<svg width="27" height="20" viewBox="0 0 27 20" fill="none" xmlns="http://www.w3.org/2000/svg">
<g clip-path="url(#clip0_202_31)">
<path d="M0 0H27V20H0V0Z" fill="#000066"/>
<path fill-rule="evenodd" clip-rule="evenodd" d="M12.6478 16.3542L10.8042 16.5125L11.0573 18.3208L9.7875 17L8.51766 18.3208L8.77078 16.5125L6.92719 16.3542L8.51766 15.425L7.4925 13.9042L9.22219 14.55L9.7875 12.8125L10.357 14.55L12.0867 13.9042L11.0616 15.425M20.5284 18.0208L20.0813 17.3625L20.8322 17.6417L21.0769 16.8875L21.3216 17.6417L22.0725 17.3625L21.6295 18.0208L22.3214 18.425L21.5198 18.4958L21.6295 19.2833L21.0811 18.7042L20.5242 19.2833L20.6339 18.4958L19.8323 18.4292M20.5242 6.26667L20.0813 5.60833L20.8322 5.8875L21.0769 5.13333L21.3216 5.8875L22.0725 5.60833L21.6295 6.26667L22.3214 6.675L21.5198 6.74167L21.6295 7.52917L21.0811 6.95417L20.5242 7.525L20.6339 6.74167L19.8323 6.675M16.065 11.0417L15.622 10.3833L16.373 10.6625L16.6177 9.90833L16.8666 10.6625L17.6175 10.3833L17.1703 11.0417L17.8622 11.4458L17.0606 11.5167L17.1745 12.3042L16.6177 11.725L16.0692 12.3042L16.1747 11.5167L15.3731 11.45M24.4983 9.86667L24.0469 9.20833L24.7978 9.4875L25.0425 8.73333L25.2914 9.4875L26.0423 9.20833L25.5994 9.86667L26.287 10.2708L25.4855 10.3417L25.5952 11.125L25.0467 10.55L24.4898 11.125L24.5995 10.3417L23.798 10.2708M22.8656 13.3333L22.4311 13.6042L22.5534 13.1083L22.1611 12.7833L22.6716 12.7417L22.8656 12.275L23.0639 12.7458L23.5744 12.7833L23.182 13.1083L23.3044 13.6042" fill="white"/>
<path d="M1.58203 0L6.72891 3.77083L11.8547 0H13.5V1.29167L8.4375 5.02083L13.5 8.72917V10H11.8125L6.75 6.27083L1.70859 10H0V8.75L5.04141 5.04167L0 1.33333V0H1.58203Z" fill="white"/>
<path d="M5.08359 0V10H8.45859V0H5.08359ZM0 3.33333V6.66667H13.5V3.33333H0Z" fill="white"/>
<path d="M8.94375 5.85417L13.5 9.16667V10L7.78359 5.85417H8.94375ZM5.0625 6.27083L5.18906 7L1.13906 10H0L5.0625 6.27083ZM13.5 0V0.0625L8.24766 3.97917L8.28984 3.0625L12.4453 0H13.5ZM0 0L5.04141 3.66667H3.77578L0 0.875V0Z" fill="#C8102E"/>
<path d="M0 4.02083V6.02083H13.5V4.02083H0ZM5.75859 0V10H7.78359V0H5.75859Z" fill="#C8102E"/>
</g>
<defs>
<clipPath id="clip0_202_31">
<rect width="27" height="20" fill="white"/>
</clipPath>
</defs>
</svg>
