<svg width="27" height="20" viewBox="0 0 27 20" fill="none" xmlns="http://www.w3.org/2000/svg">
<g clip-path="url(#clip0_202_42)">
<path d="M0.00421143 0H27.0042V20H0.00421143V0Z" fill="#3F9C35"/>
<path d="M0.00421143 0H27.0042V13.3333H0.00421143V0Z" fill="#ED2939"/>
<path d="M0.00421143 0H27.0042V6.66667H0.00421143V0Z" fill="#00B9E4"/>
<path d="M15.2515 11.8048C14.6972 12.5307 13.8166 13 12.825 13C11.1474 13 9.78749 11.6569 9.78749 10C9.78749 8.34315 11.1474 7 12.825 7C13.8166 7 14.6972 7.46925 15.2515 8.19518C14.7968 7.76459 14.1797 7.5 13.5 7.5C12.102 7.5 10.9687 8.61929 10.9687 10C10.9687 11.3807 12.102 12.5 13.5 12.5C14.1797 12.5 14.7968 12.2354 15.2515 11.8048Z" fill="white"/>
<path d="M16.2 8.33333L16.5248 9.22917L17.3939 8.82083L16.9805 9.68333L17.8875 10L16.9805 10.3208L17.3939 11.1792L16.5248 10.7708L16.2 11.6667L15.8751 10.7708L15.0061 11.1792L15.4195 10.3208L14.5125 10L15.4195 9.67917L15.0061 8.82083L15.8751 9.22917L16.2 8.33333Z" fill="white"/>
</g>
<defs>
<clipPath id="clip0_202_42">
<rect width="27" height="20" fill="white"/>
</clipPath>
</defs>
</svg>
