<svg width="27" height="20" viewBox="0 0 27 20" fill="none" xmlns="http://www.w3.org/2000/svg">
<g clip-path="url(#clip0_202_87)">
<path fill-rule="evenodd" clip-rule="evenodd" d="M0 0H27V20H0V0Z" fill="#229E45"/>
<path fill-rule="evenodd" clip-rule="evenodd" d="M13.5591 18.1667L26.2786 10.0125L13.4831 1.83333L0.721406 10.0292L13.5591 18.1667Z" fill="#F8E509"/>
<path fill-rule="evenodd" clip-rule="evenodd" d="M19.1025 10C19.1025 12.9292 16.6936 15.3042 13.7194 15.3042C12.6565 15.3025 11.6181 14.9897 10.7352 14.4052C9.85238 13.8207 9.16481 12.9909 8.75943 12.0205C8.35405 11.0502 8.24906 9.98288 8.45774 8.9536C8.66642 7.92432 9.17939 6.97925 9.93181 6.23787C10.6842 5.49648 11.6423 4.99207 12.685 4.78839C13.7276 4.58471 14.808 4.69092 15.7895 5.09357C16.771 5.49623 17.6096 6.17727 18.1993 7.05058C18.789 7.9239 19.1033 8.95029 19.1025 10Z" fill="#2B49A3"/>
<path fill-rule="evenodd" clip-rule="evenodd" d="M11.9517 13.1792L11.783 13.0833L11.6142 13.1667L11.6522 12.9792L11.5172 12.8375L11.707 12.8167L11.7998 12.65L11.88 12.825L12.0656 12.8583L11.9264 12.9833M15.5545 14.0792L15.39 13.9833L15.2212 14.0667L15.255 13.8792L15.1242 13.7417L15.3141 13.7208L15.4027 13.55L15.487 13.725L15.6727 13.7583L15.5292 13.8875M14.002 12.6375L13.8586 12.5542L13.7109 12.6292L13.7447 12.4667L13.6266 12.3458L13.7953 12.3292L13.8713 12.1792L13.9388 12.3333L14.1033 12.3625L13.9767 12.475M17.647 12.1208L17.5036 12.0375L17.3559 12.1125L17.3897 11.95L17.2758 11.8333L17.4403 11.8167L17.5163 11.6708L17.5837 11.8208L17.7441 11.85L17.6217 11.9583M13.9388 11.0417L13.77 10.95L13.6012 11.0333L13.635 10.8417L13.5042 10.7042L13.6941 10.6833L13.7827 10.5125L13.867 10.6875L14.0527 10.7208L13.9092 10.8542M9.49641 9.39583L9.32766 9.30417L9.15891 9.3875L9.20109 9.19583L9.06188 9.05833L9.25594 9.0375L9.34031 8.86667L9.42469 9.04167L9.61031 9.075L9.47109 9.20417M10.0322 11.5875L9.86344 11.4917L9.69469 11.575L9.73266 11.3875L9.59766 11.25L9.7875 11.225L9.87609 11.0583L9.96047 11.2333L10.1461 11.2667L10.0069 11.3958M15.5756 8.59167L15.4238 8.50833L15.2719 8.58333L15.3056 8.41667L15.1875 8.29167L15.3562 8.27083L15.4364 8.12083L15.5081 8.27917L15.6769 8.30833L15.5503 8.42083M15.2677 10.0167L15.1538 9.95L15.0314 10.0083L15.0567 9.875L14.9639 9.77917L15.0989 9.7625L15.1622 9.64583L15.217 9.77083L15.3436 9.79167L15.2508 9.88333M9.25172 11.9833L9.13781 11.9208L9.02391 11.975L9.04922 11.85L8.96062 11.7583L9.08719 11.7417L9.14625 11.6292L9.20109 11.7458L9.32766 11.7708L9.23063 11.8542M17.6766 12.4917L17.5837 12.4458L17.4909 12.4875L17.512 12.3917L17.4403 12.325L17.5416 12.3125L17.5922 12.2292L17.6344 12.3125L17.7398 12.3333L17.6597 12.3958" fill="#FFFFEF"/>
<path fill-rule="evenodd" clip-rule="evenodd" d="M9.25172 11.9833L9.13781 11.9208L9.02391 11.975L9.04922 11.85L8.96062 11.7583L9.08719 11.7417L9.14625 11.6292L9.20109 11.7458L9.32766 11.7708L9.23063 11.8542" fill="#FFFFEF"/>
<path fill-rule="evenodd" clip-rule="evenodd" d="M9.25172 11.9833L9.13781 11.9208L9.02391 11.975L9.04922 11.85L8.96062 11.7583L9.08719 11.7417L9.14625 11.6292L9.20109 11.7458L9.32766 11.7708L9.23063 11.8542M11.0152 11.9792L10.9055 11.9208L10.7916 11.975L10.8169 11.85L10.7283 11.7583L10.8548 11.7417L10.9139 11.6292L10.9688 11.7458L11.0953 11.7667L10.9983 11.8542M10.7958 12.5625L10.6861 12.5L10.5722 12.5583L10.5975 12.4333L10.5089 12.3375L10.6355 12.3208L10.6945 12.2083L10.7494 12.325L10.8759 12.35L10.7789 12.4333M14.4661 11.5083L14.3564 11.4417L14.2383 11.5L14.2636 11.375L14.1792 11.2792L14.3058 11.2667L14.3648 11.1542L14.4155 11.2708L14.542 11.2917L14.4492 11.3792M13.3903 11.5042L13.2764 11.4417L13.1625 11.5L13.1878 11.375L13.1034 11.2792L13.23 11.2667L13.2891 11.15L13.3397 11.2708L13.4663 11.2917L13.3734 11.3792M10.4709 11.1375L10.3992 11.0958L10.3275 11.1292L10.3444 11.05L10.2895 10.9917L10.3697 10.9833L10.4034 10.9125L10.4372 10.9875L10.5173 11L10.4583 11.0542M17.5373 12.9458L17.4277 12.8833L17.3137 12.9417L17.3391 12.8167L17.2505 12.7208L17.377 12.7042L17.4361 12.5917L17.4909 12.7083L17.6175 12.7333L17.5205 12.8167M16.643 13.0667L16.5502 13.0083L16.4531 13.0583L16.4742 12.95L16.4025 12.875L16.508 12.8625L16.5586 12.7667L16.6008 12.8667L16.7063 12.8833L16.6261 12.9583M17.0648 13.0542L16.9805 13.0042L16.8919 13.0458L16.9088 12.95L16.8413 12.8792L16.9383 12.8667L16.9847 12.7833L17.0269 12.8667L17.1239 12.8875L17.0522 12.9542M18.2798 12.0042L18.1955 11.9625L18.1111 12.0042L18.1322 11.9083L18.0647 11.8375L18.1617 11.825L18.2039 11.7417L18.2461 11.8292L18.3347 11.8458L18.2672 11.9125M16.6303 13.6542L16.5248 13.5958L16.4109 13.6458L16.4363 13.5292L16.3519 13.4458L16.4784 13.4333L16.5333 13.3292L16.5839 13.4375L16.7105 13.4583L16.6134 13.5375M16.6388 14.1292L16.5375 14.0708L16.4363 14.125L16.4616 14.0083L16.3814 13.925L16.4953 13.9083L16.5459 13.8042L16.5923 13.9125L16.7063 13.9333L16.6219 14.0167M15.8203 13.0542L15.7402 13.0042L15.6558 13.0458L15.6727 12.9542L15.6094 12.8833L15.7022 12.875L15.7444 12.7917L15.7866 12.875L15.8794 12.8917L15.8119 12.9583M15.0609 13.0542L14.9766 13.0042L14.8922 13.0458L14.9133 12.9542L14.8458 12.8833L14.9428 12.875L14.985 12.7917L15.0272 12.875L15.1158 12.8917L15.0483 12.9583M13.7658 11.9333L13.6814 11.8875L13.597 11.9292L13.6181 11.8333L13.5506 11.7667L13.6434 11.7542L13.6856 11.6708L13.7278 11.7542L13.8206 11.775L13.7531 11.8375M13.9092 14.2125L13.8417 14.175L13.7658 14.2125L13.7827 14.1292L13.7278 14.0708L13.808 14.0625L13.8459 13.9917L13.8797 14.0667L13.9598 14.0792L13.9008 14.1333M11.9517 10.525L11.783 10.4292L11.6142 10.5125L11.6522 10.325L11.5172 10.1875L11.707 10.1625L11.7998 9.99583L11.88 10.1708L12.0656 10.2042L11.9264 10.3333" fill="#FFFFEF"/>
<path fill-rule="evenodd" clip-rule="evenodd" d="M18.7481 11.9083C18.8526 11.6405 18.9345 11.3645 18.9928 11.0833C16.1325 8.60417 12.9473 7.33333 8.92266 7.59583C8.77669 7.87479 8.65666 8.16627 8.56406 8.46667C13.3313 8.01667 16.8328 10.1 18.7481 11.9083Z" fill="white"/>
<path d="M17.4656 10.5167L17.5627 10.5708C17.5482 10.5991 17.5437 10.6314 17.55 10.6625C17.5599 10.6927 17.581 10.718 17.6091 10.7333C17.6386 10.7542 17.6681 10.7667 17.6934 10.7625C17.7188 10.7625 17.7356 10.75 17.7483 10.7333C17.7556 10.7223 17.7586 10.7089 17.7567 10.6958C17.7533 10.6804 17.746 10.6661 17.7356 10.6542C17.7272 10.6417 17.7061 10.6125 17.6723 10.5792C17.6377 10.5438 17.6117 10.501 17.5964 10.4542C17.5859 10.4187 17.5886 10.3807 17.6041 10.347C17.6196 10.3134 17.6468 10.2863 17.6808 10.2708C17.7115 10.2582 17.7454 10.2553 17.7778 10.2625C17.8175 10.2715 17.8548 10.2885 17.8875 10.3125C17.9466 10.3542 17.9845 10.3958 17.9972 10.4458C18.003 10.4692 18.0038 10.4936 17.9994 10.5173C17.9951 10.541 17.9857 10.5635 17.9719 10.5833L17.8706 10.5208C17.8833 10.4958 17.8875 10.4708 17.8791 10.45C17.8748 10.4292 17.858 10.4083 17.8284 10.3917C17.8068 10.3745 17.7803 10.3643 17.7525 10.3625C17.7449 10.3622 17.7373 10.364 17.7306 10.3677C17.7239 10.3714 17.7184 10.3768 17.7145 10.3833C17.7061 10.3958 17.7061 10.4083 17.7103 10.425C17.7145 10.4417 17.7356 10.475 17.7778 10.5167C17.82 10.5583 17.8453 10.5958 17.8622 10.6208C17.8773 10.6481 17.8841 10.6791 17.8818 10.7102C17.8796 10.7412 17.8684 10.7709 17.8495 10.7958C17.8298 10.8242 17.8019 10.8459 17.7694 10.8583C17.7377 10.8727 17.7024 10.8771 17.6681 10.8708C17.6302 10.8625 17.5922 10.8458 17.55 10.8167C17.4867 10.775 17.4487 10.7292 17.4361 10.6792C17.4223 10.6225 17.4314 10.5627 17.4614 10.5125L17.4656 10.5167ZM16.9762 10.2L17.0817 10.2542C17.0687 10.2829 17.0657 10.3152 17.0733 10.3458C17.0841 10.3744 17.1051 10.3981 17.1323 10.4125C17.1661 10.4333 17.1914 10.4417 17.2167 10.4375C17.242 10.4375 17.2589 10.425 17.2716 10.4042C17.278 10.3943 17.2809 10.3826 17.28 10.3708C17.28 10.3583 17.2716 10.3417 17.2589 10.3292C17.2373 10.3034 17.2148 10.2784 17.1914 10.2542C17.145 10.2083 17.1155 10.1708 17.107 10.1375C17.1001 10.1161 17.0981 10.0934 17.101 10.0711C17.1039 10.0488 17.1117 10.0273 17.1239 10.0083C17.1399 9.98262 17.1635 9.96229 17.1914 9.95C17.2204 9.9368 17.2527 9.93245 17.2842 9.9375C17.3232 9.94399 17.3605 9.95816 17.3939 9.97917C17.4572 10.0208 17.4952 10.0625 17.5078 10.1083C17.5155 10.1318 17.518 10.1565 17.5151 10.181C17.5121 10.2054 17.5039 10.229 17.4909 10.25L17.3855 10.1917C17.3981 10.1625 17.4023 10.1417 17.3939 10.1208C17.3855 10.1 17.3686 10.0792 17.3391 10.0625C17.3157 10.046 17.2876 10.0372 17.2589 10.0375C17.252 10.038 17.2453 10.0401 17.2394 10.0437C17.2335 10.0474 17.2286 10.0524 17.2252 10.0583C17.2167 10.0708 17.2167 10.0833 17.2209 10.1C17.2252 10.1167 17.2505 10.15 17.2927 10.1917C17.3348 10.2333 17.3644 10.2667 17.377 10.2917C17.3939 10.3178 17.4029 10.3482 17.4029 10.3792C17.4029 10.4102 17.3939 10.4405 17.377 10.4667C17.3589 10.4957 17.3325 10.5189 17.3011 10.5333C17.2695 10.5477 17.2341 10.5521 17.1998 10.5458C17.1564 10.5386 17.1149 10.523 17.0775 10.5C17.023 10.4713 16.981 10.4239 16.9594 10.3667C16.9431 10.311 16.9491 10.2513 16.9762 10.2ZM16.3772 10.0417L16.6852 9.54167L17.0564 9.77083L17.0058 9.85417L16.7358 9.6875L16.6683 9.8L16.9214 9.95417L16.8666 10.0375L16.6134 9.88333L16.5291 10.0208L16.8117 10.1875L16.7611 10.2708L16.3814 10.0417H16.3772ZM15.5039 9.33333L15.5503 9.25L15.7781 9.3625L15.6727 9.57083C15.6389 9.57917 15.5967 9.58333 15.5461 9.57917C15.4975 9.57388 15.4503 9.55975 15.4069 9.5375C15.3558 9.51294 15.3122 9.47558 15.2803 9.42917C15.2513 9.38604 15.2366 9.33509 15.2381 9.28333C15.2403 9.22946 15.2547 9.17677 15.2803 9.12917C15.3057 9.07906 15.3434 9.03607 15.39 9.00417C15.4346 8.97371 15.4877 8.9577 15.5419 8.95833C15.5841 8.95833 15.6263 8.97083 15.6769 9C15.7444 9.02917 15.7866 9.07083 15.8077 9.11667C15.8296 9.16217 15.8341 9.21398 15.8203 9.2625L15.7064 9.22917C15.7134 9.20126 15.7104 9.17183 15.698 9.14583C15.6853 9.12083 15.6642 9.10417 15.6305 9.0875C15.6108 9.07641 15.589 9.06956 15.5664 9.06741C15.5439 9.06525 15.5211 9.06784 15.4997 9.075C15.4575 9.0875 15.4195 9.125 15.39 9.18333C15.3605 9.24167 15.3478 9.29583 15.3605 9.34167C15.3663 9.3634 15.3769 9.38362 15.3914 9.40089C15.406 9.41817 15.4242 9.43209 15.4448 9.44167C15.4659 9.45417 15.4913 9.4625 15.5166 9.4625C15.5417 9.46627 15.5673 9.46627 15.5925 9.4625L15.6263 9.39583L15.5039 9.33333ZM11.6986 8.40417L11.783 7.82083L11.9602 7.85L12.0066 8.25833L12.1711 7.88333L12.3483 7.90833L12.2639 8.48333L12.15 8.46667L12.2217 8.0125L12.0361 8.45L11.9222 8.43333L11.8758 7.9625L11.8083 8.42083L11.6986 8.40417ZM11.1038 8.33333L11.1586 7.75L11.5931 7.79167L11.5847 7.89167L11.2683 7.8625L11.2556 7.9875L11.5509 8.01667L11.5383 8.11667L11.243 8.0875L11.2303 8.24583L11.5594 8.275L11.5509 8.375L11.1038 8.33333Z" fill="#309E3A"/>
<path d="M9.13359 7.97083C9.13359 7.90833 9.14625 7.8625 9.16313 7.82083C9.17791 7.7912 9.19791 7.7644 9.22219 7.74167C9.24383 7.72011 9.26966 7.7031 9.29813 7.69167C9.34031 7.67917 9.3825 7.67083 9.42469 7.67083C9.51328 7.67083 9.58078 7.70417 9.63562 7.75417C9.66173 7.78602 9.68115 7.82269 9.69274 7.86204C9.70433 7.90139 9.70786 7.94262 9.70312 7.98333C9.70312 8.075 9.67359 8.15 9.61875 8.20417C9.59057 8.22989 9.55723 8.24949 9.52089 8.2617C9.48456 8.2739 9.44603 8.27843 9.40781 8.275C9.3701 8.27538 9.33271 8.26819 9.2979 8.25386C9.26309 8.23954 9.23159 8.21838 9.20531 8.19167C9.15282 8.1303 9.12703 8.05091 9.13359 7.97083Z" fill="#309E3A"/>
<path d="M9.25594 7.97083C9.25594 8.03333 9.26859 8.08333 9.29813 8.12083C9.32766 8.15417 9.36563 8.175 9.41625 8.175C9.43815 8.17651 9.46012 8.17319 9.48055 8.16526C9.50099 8.15733 9.51937 8.145 9.53438 8.12917C9.56391 8.09583 9.57656 8.04583 9.58078 7.975C9.58078 7.90833 9.57234 7.85833 9.53859 7.825C9.52485 7.80821 9.50751 7.79464 9.48781 7.78527C9.46811 7.7759 9.44655 7.77097 9.42469 7.77083C9.40249 7.77013 9.38042 7.77425 9.36001 7.78289C9.3396 7.79152 9.32135 7.80448 9.30656 7.82083C9.27281 7.85417 9.26016 7.90417 9.25594 7.97083Z" fill="#F7FFFF"/>
<path d="M9.82969 8.27083L9.83813 7.6875H10.0913C10.1545 7.6875 10.1967 7.69583 10.2262 7.70833C10.2558 7.71667 10.2769 7.7375 10.2937 7.7625C10.3106 7.7875 10.3191 7.82083 10.3191 7.85833C10.3194 7.89842 10.3043 7.93713 10.2769 7.96667C10.2457 7.99552 10.2056 8.01314 10.163 8.01667L10.2262 8.06667C10.2431 8.08333 10.2642 8.11667 10.2895 8.1625L10.3613 8.27917H10.2178L10.1334 8.14583L10.0744 8.0625C10.0641 8.05104 10.0511 8.04242 10.0364 8.0375C10.0172 8.03197 9.99733 8.02917 9.97734 8.02917H9.95203V8.27083H9.82969Z" fill="#309E3A"/>
<path d="M9.95625 7.9375H10.0406C10.0997 7.9375 10.1377 7.9375 10.1503 7.92917C10.163 7.92917 10.1756 7.91667 10.1841 7.90833C10.1925 7.9 10.1967 7.87917 10.1967 7.86667C10.1967 7.84167 10.1925 7.825 10.1798 7.81667C10.1714 7.80417 10.1545 7.79583 10.1377 7.79167H10.0533L9.95625 7.7875V7.9375Z" fill="white"/>
<path d="M10.5047 7.71667L10.7241 7.72917C10.7705 7.72917 10.8084 7.73333 10.8337 7.74167C10.8666 7.75343 10.8957 7.77355 10.9181 7.8C10.9424 7.82913 10.9597 7.86332 10.9688 7.9C10.9814 7.9375 10.9856 7.98333 10.9814 8.0375C10.9814 8.08003 10.9742 8.12226 10.9603 8.1625C10.9434 8.20417 10.9181 8.2375 10.8886 8.2625C10.864 8.2825 10.8352 8.29675 10.8042 8.30417C10.7789 8.3125 10.7409 8.3125 10.6988 8.3125L10.4752 8.3L10.5047 7.71667Z" fill="#309E3A"/>
<path d="M10.6186 7.82083L10.5975 8.20833H10.7578C10.7789 8.20833 10.7958 8.2 10.8084 8.1875C10.8211 8.175 10.8337 8.15833 10.8422 8.13333C10.8506 8.10833 10.8591 8.07083 10.8591 8.025L10.8548 7.92083C10.8488 7.89886 10.8372 7.87878 10.8211 7.8625C10.8071 7.84858 10.7896 7.83853 10.7705 7.83333C10.7386 7.82632 10.7061 7.82214 10.6734 7.82083H10.6186Z" fill="white"/>
<path d="M13.3988 8.75833L13.538 8.19167L13.7236 8.23333L13.8586 8.275C13.8881 8.29167 13.9134 8.31667 13.9261 8.35417C13.943 8.3875 13.943 8.425 13.9345 8.47083C13.9261 8.50417 13.9134 8.53333 13.8923 8.55417C13.8769 8.57246 13.8575 8.58717 13.8356 8.59726C13.8138 8.60734 13.7899 8.61254 13.7658 8.6125C13.7362 8.6125 13.6941 8.60417 13.6392 8.59167L13.5675 8.57083L13.5169 8.7875L13.3988 8.75833Z" fill="#309E3A"/>
<path d="M13.6266 8.31667L13.5928 8.475L13.6561 8.49167C13.6983 8.5 13.732 8.50833 13.7489 8.50417C13.7653 8.50192 13.7806 8.4947 13.7927 8.48351C13.8048 8.47231 13.8131 8.4577 13.8164 8.44167C13.8164 8.42083 13.8164 8.40417 13.808 8.3875C13.7987 8.37056 13.7838 8.35731 13.7658 8.35L13.6856 8.32917L13.6308 8.31667H13.6266Z" fill="white"/>
<path d="M13.9472 8.92083L14.1455 8.37083L14.3775 8.45417C14.4408 8.475 14.4787 8.49583 14.5041 8.5125C14.5252 8.53333 14.542 8.55417 14.5462 8.5875C14.5505 8.62083 14.5547 8.65 14.5462 8.68333C14.5294 8.725 14.5041 8.75417 14.4703 8.775C14.4366 8.79167 14.3944 8.79583 14.3438 8.7875C14.3606 8.80833 14.3775 8.82917 14.3859 8.85417L14.4197 8.96667L14.445 9.09583L14.3142 9.05L14.272 8.9C14.2644 8.86608 14.2545 8.83267 14.2425 8.8C14.2369 8.78704 14.2282 8.7756 14.2172 8.76667C14.2088 8.75417 14.1919 8.74583 14.1623 8.7375L14.1413 8.72917L14.0569 8.9625L13.9472 8.92083Z" fill="#309E3A"/>
<path d="M14.175 8.64167L14.2552 8.67083C14.31 8.69167 14.3438 8.7 14.3606 8.7C14.3733 8.7 14.3859 8.7 14.3986 8.6875C14.4113 8.67917 14.4197 8.66667 14.4239 8.65C14.4323 8.63333 14.4323 8.61667 14.4239 8.6C14.4177 8.58385 14.4057 8.57051 14.3902 8.5625L14.2214 8.50417L14.1708 8.64167H14.175Z" fill="white"/>
<path d="M14.6391 8.9C14.6536 8.85121 14.678 8.80585 14.7108 8.76667C14.7321 8.74153 14.7578 8.72036 14.7867 8.70417C14.8129 8.68958 14.8414 8.6797 14.8711 8.675C14.9133 8.675 14.9555 8.675 15.0019 8.69167C15.0396 8.70088 15.0749 8.71791 15.1054 8.74161C15.136 8.76532 15.1611 8.79516 15.1791 8.82917C15.2128 8.89583 15.2128 8.975 15.1875 9.06667C15.1666 9.14542 15.1151 9.21282 15.0441 9.25417C14.9808 9.29167 14.9048 9.29583 14.8247 9.27083C14.7871 9.26137 14.7519 9.24426 14.7214 9.22058C14.6909 9.1969 14.6657 9.16718 14.6475 9.13333C14.6306 9.09691 14.6212 9.05754 14.6197 9.0175C14.6183 8.97746 14.6248 8.93753 14.6391 8.9Z" fill="#309E3A"/>
<path d="M14.7572 8.93333C14.7403 8.99583 14.7361 9.05 14.7572 9.09167C14.7783 9.13333 14.8078 9.15833 14.8542 9.175C14.8964 9.1875 14.9386 9.18333 14.9808 9.15833C15.023 9.1375 15.0483 9.09167 15.0694 9.025C15.0905 8.9625 15.0905 8.9125 15.0694 8.87083C15.061 8.85107 15.0484 8.83335 15.0324 8.81895C15.0163 8.80455 14.9973 8.79381 14.9766 8.7875C14.9558 8.78042 14.9337 8.77788 14.9119 8.78003C14.89 8.78219 14.8689 8.789 14.85 8.8C14.8078 8.825 14.7783 8.86667 14.7572 8.93333Z" fill="white"/>
<path d="M15.7908 9.7125L16.0608 9.19583L16.2844 9.30833C16.3265 9.32831 16.365 9.35506 16.3983 9.3875C16.4194 9.40833 16.432 9.43333 16.432 9.46667C16.432 9.5 16.432 9.52917 16.4152 9.55833C16.3989 9.5958 16.3687 9.62565 16.3308 9.64167C16.2886 9.65 16.2464 9.65 16.2 9.63333C16.2169 9.65833 16.2253 9.68333 16.2337 9.70417C16.2422 9.72917 16.2464 9.76667 16.2506 9.82083L16.2591 9.95417L16.1325 9.89167L16.1156 9.7375C16.1136 9.70255 16.1094 9.66776 16.103 9.63333C16.1001 9.61775 16.0928 9.60329 16.0819 9.59167L16.0312 9.5625L16.0102 9.55L15.8962 9.76667L15.7908 9.7125Z" fill="#309E3A"/>
<path d="M16.0523 9.46667L16.1325 9.50833C16.1831 9.53333 16.2169 9.55 16.2295 9.55C16.2422 9.55 16.2591 9.55 16.2717 9.54167C16.2844 9.5375 16.2928 9.525 16.3013 9.50833C16.3097 9.49167 16.3139 9.475 16.3097 9.45833C16.3045 9.44174 16.2942 9.42718 16.2802 9.41667C16.2555 9.4017 16.2301 9.3878 16.2042 9.375L16.1198 9.33333L16.0523 9.46667Z" fill="white"/>
<path d="M17.9761 10.7792C18.0034 10.7363 18.0393 10.6995 18.0816 10.6708C18.1099 10.6529 18.1414 10.6402 18.1744 10.6333C18.205 10.6272 18.2366 10.6272 18.2672 10.6333C18.3094 10.6417 18.3473 10.6583 18.3853 10.6833C18.4181 10.7035 18.4464 10.7303 18.4681 10.7618C18.4899 10.7934 18.5048 10.8291 18.5119 10.8667C18.5245 10.9375 18.5034 11.0167 18.4528 11.0958C18.4105 11.1647 18.3422 11.2141 18.263 11.2333C18.2252 11.2414 18.1861 11.2415 18.1483 11.2336C18.1105 11.2257 18.0748 11.21 18.0436 11.1875C18.0108 11.1673 17.9825 11.1406 17.9608 11.109C17.939 11.0774 17.9241 11.0417 17.917 11.0042C17.9044 10.9292 17.9255 10.8542 17.9761 10.7792Z" fill="#309E3A"/>
<path d="M18.0816 10.8458C18.0394 10.9 18.0267 10.95 18.0352 10.9958C18.0383 11.0169 18.0459 11.0371 18.0575 11.0551C18.0692 11.0731 18.0846 11.0884 18.1027 11.1C18.1448 11.1292 18.187 11.1375 18.2292 11.125C18.2714 11.1125 18.3136 11.0833 18.3516 11.025C18.3895 10.9667 18.4064 10.9167 18.398 10.875C18.3938 10.8333 18.3684 10.7958 18.3305 10.7667C18.2925 10.7375 18.2461 10.7333 18.2039 10.7458C18.1617 10.7542 18.1195 10.7875 18.0773 10.8458H18.0816Z" fill="white"/>
<path d="M12.7322 8.52083L12.8292 8.1125L13.133 8.18333L13.1203 8.25L12.8967 8.2L12.8756 8.29167L13.0823 8.3375L13.0655 8.40833L12.8587 8.35833L12.8334 8.47083L13.0655 8.525L13.0486 8.59167L12.7322 8.52083Z" fill="#309E3A"/>
</g>
<defs>
<clipPath id="clip0_202_87">
<rect width="27" height="20" fill="white"/>
</clipPath>
</defs>
</svg>
