<svg width="27" height="20" viewBox="0 0 27 20" fill="none" xmlns="http://www.w3.org/2000/svg">
<g clip-path="url(#clip0_202_69)">
<path fill-rule="evenodd" clip-rule="evenodd" d="M0 0H27.0002V13.2852H0V0Z" fill="#B20000"/>
<path fill-rule="evenodd" clip-rule="evenodd" d="M0 13.2852H27.0002V20H0V13.2852Z" fill="#429F00"/>
<path fill-rule="evenodd" clip-rule="evenodd" d="M0 0H4.48554V20H0V0Z" fill="white"/>
<path fill-rule="evenodd" clip-rule="evenodd" d="M0.213597 0.339844H0.427194V0.679687H0.213597V0.339844ZM0.854388 0.339844H1.49518V0.679687H0.854388V0.339844ZM1.06799 0H1.28158V0.339844H1.06799V0ZM2.13597 0H2.34957V0.339844H2.13597V0ZM2.99036 0.339844H3.63115V0.679687H2.99036V0.339844ZM3.20396 0H3.41755V0.339844H3.20396V0ZM0.640791 0.679687H1.06799V1.01562H0.640791V0.679687ZM1.28158 0.679687H1.70878V1.01562H1.28158V0.679687ZM2.77676 0.679687H3.20396V1.01562H2.77676V0.679687ZM3.41755 0.679687H3.84475V1.01562H3.41755V0.679687ZM0.427194 1.01562H0.854388V1.35547H0.427194V1.01562ZM1.49518 1.01562H1.92237V1.35547H1.49518V1.01562ZM2.56316 1.01562H2.99036V1.35547H2.56316V1.01562ZM3.63115 1.01562H4.05834V1.35547H3.63115V1.01562ZM4.05834 0.339844H4.27194V0.679687H4.05834V0.339844ZM0.213597 1.35547H0.640791V1.69531H0.213597V1.35547ZM1.70878 1.35547H2.13597V1.69531H1.70878V1.35547ZM3.84475 1.35547H4.27194V1.69531H3.84475V1.35547ZM0.427194 2.37109H0.854388V2.71094H0.427194V2.37109ZM0.640791 2.71094H1.06799V3.05078H0.640791V2.71094ZM1.49518 2.375H1.92237V2.71094H1.49518V2.375ZM1.28158 2.71094H1.70878V3.05078H1.28158V2.71094ZM0.854388 3.05078H1.49518V3.39062H0.854388V3.05078Z" fill="#B20000"/>
<path fill-rule="evenodd" clip-rule="evenodd" d="M1.06799 3.39063H1.28158V3.73047H1.06799V3.39063ZM2.56316 2.375H2.99036V2.71094H2.56316V2.375ZM2.77676 2.71094H3.20396V3.05078H2.77676V2.71094ZM3.63115 2.375H4.05834V2.71094H3.63115V2.375ZM3.41755 2.71094H3.84475V3.05078H3.41755V2.71094ZM2.99036 3.05078H3.63115V3.39063H2.99036V3.05078ZM3.20396 3.39063H3.41755V3.73047H3.20396V3.39063ZM2.13597 3.04688H2.34957V3.38672H2.13597V3.04688ZM0 3.04688H0.213597V3.38672H0V3.04688ZM4.27194 3.04688H4.48554V3.38672H4.27194V3.04688ZM1.06799 4.74219H1.28158V5.08203H1.06799V4.74219ZM0.854388 5.08594H1.49518V5.42188H0.854388V5.08594ZM0.640791 5.42188H1.70878V5.76172H0.640791V5.42188ZM3.20396 4.74609H3.41755V5.08594H3.20396V4.74609ZM2.99036 5.08594H3.63115V5.42188H2.99036V5.08594ZM2.77676 5.42188H3.84475V5.76172H2.77676V5.42188ZM2.99036 7.11719H4.05834V7.45703H2.99036V7.11719ZM2.56316 5.76172H4.05834V6.10156H2.56316V5.76172ZM0.427194 5.76172H1.92237V6.10156H0.427194V5.76172ZM0.640791 7.45703H1.28158V7.79688H0.640791V7.45703ZM0.427194 7.11719H1.49518V7.45703H0.427194V7.11719ZM3.41755 6.44531H4.48554V6.78516H3.41755V6.44531ZM3.20396 7.46094H3.84475V7.80078H3.20396V7.46094Z" fill="#B20000"/>
<path fill-rule="evenodd" clip-rule="evenodd" d="M0.854388 7.79688H1.06799V8.13672H0.854388V7.79688ZM3.41755 7.79688H3.63115V8.13672H3.41755V7.79688ZM0 6.44141H1.06799V6.78125H0V6.44141ZM1.92237 7.11719H2.56316V7.45703H1.92237V7.11719ZM2.13597 7.46094H2.34957V7.80078H2.13597V7.46094ZM1.49518 6.44531H2.99036V6.78516H1.49518V6.44531ZM2.34957 1.35547H2.77676V1.69531H2.34957V1.35547ZM1.92237 1.69531H2.56316V2.03516H1.92237V1.69531ZM1.70878 2.03516H2.13597V2.37109H1.70878V2.03516ZM2.34957 2.03516H2.77676V2.37109H2.34957V2.03516ZM0 1.69531H0.427194V2.03516H0V1.69531ZM0.213597 2.03516H0.640791V2.37109H0.213597V2.03516ZM4.05834 1.69531H4.48554V2.03125H4.05834V1.69531ZM3.84475 2.03125H4.27194V2.36719H3.84475V2.03125ZM0 5.07812H0.213597V5.41797H0V5.07812ZM4.27194 5.07812H4.48554V5.41797H4.27194V5.07812ZM1.92237 7.79297H2.56316V8.13281H1.92237V7.79297ZM1.70878 8.13281H2.13597V8.46875H1.70878V8.13281ZM2.34957 8.13281H2.77676V8.46875H2.34957V8.13281ZM1.49518 8.46875H1.92237V8.80859H1.49518V8.46875ZM2.56316 8.46875H2.99036V8.80859H2.56316V8.46875ZM1.28158 8.80859H1.70878V9.14844H1.28158V8.80859ZM2.77676 8.80859H3.20396V9.14844H2.77676V8.80859ZM1.06799 9.15234H1.49518V9.49219H1.06799V9.15234ZM2.99036 9.15234H3.41755V9.49219H2.99036V9.15234ZM0.640791 9.49219H1.28158V9.83203H0.640791V9.49219ZM3.20396 9.49219H3.84475V9.83203H3.20396V9.49219ZM3.63115 9.15234H4.05834V9.49219H3.63115V9.15234ZM3.84475 8.8125H4.27194V9.15234H3.84475V8.8125ZM4.05834 8.47266H4.48554V8.8125H4.05834V8.47266ZM0.427194 9.15234H0.854388V9.49219H0.427194V9.15234ZM0.213597 8.8125H0.640791V9.15234H0.213597V8.8125ZM0 8.47656H0.427194V8.81641H0V8.47656ZM0.854388 9.83594H1.06799V10.1719H0.854388V9.83594ZM3.41755 9.83594H3.63115V10.1719H3.41755V9.83594ZM2.13597 8.82031H2.34957V9.15625H2.13597V8.82031ZM1.49518 9.83594H1.70878V10.1719H1.49518V9.83594ZM2.77676 9.83594H2.99036V10.1719H2.77676V9.83594ZM2.13597 9.83594H2.34957V10.1719H2.13597V9.83594ZM0 9.83594H0.213597V10.1719H0V9.83594ZM4.27194 9.83594H4.48554V10.1719H4.27194V9.83594ZM2.13597 5.08594H2.34957V5.42188H2.13597V5.08594ZM1.06799 1.69531H1.28158V2.03516H1.06799V1.69531ZM3.20396 1.69531H3.41755V2.03516H3.20396V1.69531ZM1.92237 4.06641H2.56316V4.40625H1.92237V4.06641ZM1.49518 4.40625H2.13597V4.74609H1.49518V4.40625ZM1.70878 4.74609H1.92237V5.08594H1.70878V4.74609ZM1.28158 4.06641H1.70878V4.40625H1.28158V4.06641ZM1.49518 3.73047H2.13597V4.06641H1.49518V3.73047ZM1.70878 3.39062H1.92237V3.73047H1.70878V3.39062ZM2.34957 3.73047H2.99036V4.06641H2.34957V3.73047ZM2.56316 3.39062H2.77676V3.73047H2.56316V3.39062ZM2.77676 4.06641H3.20396V4.40625H2.77676V4.06641ZM2.34957 4.40625H2.99036V4.74609H2.34957V4.40625ZM2.56316 4.74609H2.77676V5.08594H2.56316V4.74609ZM3.41755 4.06641H3.84475V4.40625H3.41755V4.06641ZM3.63115 3.73047H4.27194V4.06641H3.63115V3.73047ZM4.05834 4.06641H4.48554V4.40625H4.05834V4.06641ZM3.63115 4.40625H4.27194V4.74609H3.63115V4.40625ZM3.84475 4.74609H4.05834V5.08594H3.84475V4.74609ZM3.84475 3.39062H4.05834V3.73047H3.84475V3.39062ZM0 4.0625H0.427194V4.40234H0V4.0625ZM0.213597 3.72656H0.854388V4.0625H0.213597V3.72656ZM0.640791 4.0625H1.06799V4.40234H0.640791V4.0625ZM0.213597 4.40234H0.854388V4.74219H0.213597V4.40234Z" fill="#B20000"/>
<path fill-rule="evenodd" clip-rule="evenodd" d="M0.427194 4.74609H0.640791V5.08594H0.427194V4.74609ZM0.427194 3.39062H0.640791V3.73047H0.427194V3.39062ZM0.213597 6.10156H1.06799V6.44141H0.213597V6.10156ZM1.28158 6.10156H2.13597V6.44141H1.28158V6.10156ZM2.34957 6.10156H3.20396V6.44141H2.34957V6.10156ZM3.41755 6.10156H4.27194V6.44141H3.41755V6.10156ZM1.70878 6.78125H2.77676V7.11719H1.70878V6.78125ZM0.213597 6.78125H1.28158V7.11719H0.213597V6.78125ZM3.20396 6.78125H4.27194V7.11719H3.20396V6.78125ZM4.27194 8.13672H4.48554V8.47266H4.27194V8.13672ZM0 8.13672H0.213597V8.47266H0V8.13672ZM0.213597 19.6602H0.427194V19.3242H0.213597V19.6602ZM0.854388 19.6602H1.49518V19.3242H0.854388V19.6602ZM1.06799 20H1.28158V19.6602H1.06799V20ZM2.13597 20H2.34957V19.6602H2.13597V20ZM2.99036 19.6602H3.63115V19.3203H2.99036V19.6602ZM3.20396 20H3.41755V19.6602H3.20396V20ZM0.640791 19.3203H1.06799V18.9844H0.640791V19.3203ZM1.28158 19.3203H1.70878V18.9844H1.28158V19.3203ZM2.77676 19.3203H3.20396V18.9844H2.77676V19.3203ZM3.41755 19.3203H3.84475V18.9844H3.41755V19.3203ZM1.49518 18.9844H1.92237V18.6445H1.49518V18.9844ZM2.56316 18.9844H2.99036V18.6445H2.56316V18.9844ZM3.63115 18.9844H4.05834V18.6445H3.63115V18.9844ZM4.05834 19.6602H4.27194V19.3203H4.05834V19.6602ZM0.213597 18.6445H0.640791V18.3047H0.213597V18.6445ZM1.70878 18.6445H2.13597V18.3047H1.70878V18.6445ZM3.84475 18.6445H4.27194V18.3047H3.84475V18.6445ZM0.427194 17.6289H0.854388V17.2891H0.427194V17.6289ZM0.640791 17.2891H1.06799V16.9492H0.640791V17.2891ZM1.49518 17.6289H1.92237V17.2891H1.49518V17.6289ZM1.28158 17.2891H1.70878V16.9492H1.28158V17.2891ZM0.854388 16.9492H1.49518V16.6094H0.854388V16.9492ZM1.06799 16.6094H1.28158V16.2734H1.06799V16.6094ZM2.56316 17.625H2.99036V17.2891H2.56316V17.625ZM2.77676 17.2891H3.20396V16.9492H2.77676V17.2891ZM3.63115 17.6289H4.05834V17.2891H3.63115V17.6289ZM3.41755 17.2891H3.84475V16.9492H3.41755V17.2891ZM2.99036 16.9492H3.63115V16.6094H2.99036V16.9492ZM3.20396 16.6094H3.41755V16.2734H3.20396V16.6094ZM2.13597 16.9531H2.34957V16.6133H2.13597V16.9531ZM0 16.9531H0.213597V16.6133H0V16.9531ZM4.27194 16.9531H4.48554V16.6133H4.27194V16.9531ZM1.06799 15.2578H1.28158V14.918H1.06799V15.2578ZM0.854388 14.9141H1.49518V14.5781H0.854388V14.9141ZM0.640791 14.5781H1.70878V14.2383H0.640791V14.5781ZM3.20396 15.2539H3.41755V14.9141H3.20396V15.2539Z" fill="#B20000"/>
<path fill-rule="evenodd" clip-rule="evenodd" d="M2.99036 14.9141H3.63115V14.5781H2.99036V14.9141ZM2.77676 14.5781H3.84475V14.2383H2.77676V14.5781ZM2.99036 12.8828H4.05834V12.5391H2.99036V12.8828ZM2.56316 14.2383H4.05834V13.8984H2.56316V14.2383ZM0.427194 14.2383H1.92237V13.8984H0.427194V14.2383ZM0.640791 12.543H1.28158V12.2031H0.640791V12.543ZM0.427194 12.8828H1.49518V12.5391H0.427194V12.8828ZM3.41755 13.5547H4.48554V13.2148H3.41755V13.5547ZM3.20396 12.5391H3.84475V12.1992H3.20396V12.5391ZM0 13.5547H1.06799V13.2148H0V13.5547ZM1.92237 12.8789H2.56316V12.5391H1.92237V12.8789ZM2.13597 12.5391H2.34957V12.1992H2.13597V12.5391ZM1.49518 13.5547H2.99036V13.2148H1.49518V13.5547ZM2.34957 18.6406H2.77676V18.3008H2.34957V18.6406ZM1.92237 18.3008H2.56316V17.9688H1.92237V18.3008ZM1.70878 17.9609H2.13597V17.6211H1.70878V17.9609ZM2.34957 17.9609H2.77676V17.6211H2.34957V17.9609ZM0 18.3047H0.427194V17.9688H0V18.3047ZM0.213597 17.9648H0.640791V17.6289H0.213597V17.9648ZM4.05834 18.3047H4.48554V17.9688H4.05834V18.3047ZM3.84475 17.9648H4.27194V17.6289H3.84475V17.9648ZM0 14.9219H0.213597V14.582H0V14.9219ZM4.27194 14.9219H4.48554V14.582H4.27194V14.9219ZM1.70878 11.8672H2.13597V11.5312H1.70878V11.8672ZM2.34957 11.8672H2.77676V11.5312H2.34957V11.8672ZM1.49518 11.5312H1.92237V11.1914H1.49518V11.5312ZM2.56316 11.5312H2.99036V11.1914H2.56316V11.5312ZM1.28158 11.1914H1.70878V10.8516H1.28158V11.1914ZM2.77676 11.1914H3.20396V10.8516H2.77676V11.1914ZM1.06799 10.8477H1.49518V10.5078H1.06799V10.8477ZM2.99036 10.8477H3.41755V10.5078H2.99036V10.8477ZM0.640791 10.5078H1.28158V10.168H0.640791V10.5078ZM3.20396 10.5078H3.84475V10.168H3.20396V10.5078ZM3.63115 10.8477H4.05834V10.5078H3.63115V10.8477ZM3.84475 11.1875H4.27194V10.8477H3.84475V11.1875ZM4.05834 11.5273H4.48554V11.1875H4.05834V11.5273ZM0.427194 10.8477H0.854388V10.5078H0.427194V10.8477ZM0.213597 11.1875H0.640791V10.8477H0.213597V11.1875ZM0 11.5234H0.427194V11.1836H0V11.5234ZM0.854388 10.1641H1.06799V9.82812H0.854388V10.1641ZM2.13597 11.1797H2.34957V10.8438H2.13597V11.1797ZM2.13597 14.9102H2.34957V14.5742H2.13597V14.9102ZM1.06799 18.3008H1.28158V17.9688H1.06799V18.3008ZM3.20396 18.3008H3.41755V17.9688H3.20396V18.3008ZM1.92237 15.9375H2.56316V15.5977H1.92237V15.9375ZM1.49518 15.5977H2.13597V15.2578H1.49518V15.5977ZM1.70878 15.2578H1.92237V14.918H1.70878V15.2578ZM1.28158 15.9375H1.70878V15.5977H1.28158V15.9375ZM1.49518 16.2695H2.13597V15.9375H1.49518V16.2695ZM1.70878 16.6094H1.92237V16.2734H1.70878V16.6094ZM2.34957 16.2695H2.99036V15.9375H2.34957V16.2695ZM2.56316 16.6094H2.77676V16.2734H2.56316V16.6094ZM2.77676 15.9336H3.20396V15.5938H2.77676V15.9336ZM2.34957 15.5938H2.99036V15.2539H2.34957V15.5938ZM2.56316 15.2539H2.77676V14.9141H2.56316V15.2539ZM3.41755 15.9375H3.84475V15.5977H3.41755V15.9375ZM3.63115 16.2695H4.27194V15.9375H3.63115V16.2695ZM4.05834 15.9336H4.48554V15.5938H4.05834V15.9336ZM3.63115 15.5938H4.27194V15.2539H3.63115V15.5938ZM3.84475 15.2539H4.05834V14.9141H3.84475V15.2539ZM3.84475 16.6094H4.05834V16.2734H3.84475V16.6094ZM0 15.9375H0.427194V15.5977H0V15.9375ZM0.213597 16.2695H0.854388V15.9375H0.213597V16.2695Z" fill="#B20000"/>
<path fill-rule="evenodd" clip-rule="evenodd" d="M0.640791 15.9336H1.06799V15.5938H0.640791V15.9336ZM0.213597 15.5938H0.854388V15.2539H0.213597V15.5938ZM0.427194 15.2539H0.640791V14.9141H0.427194V15.2539ZM0.427194 16.6094H0.640791V16.2734H0.427194V16.6094ZM0.213597 13.8984H1.06799V13.5586H0.213597V13.8984ZM1.28158 13.8984H2.13597V13.5586H1.28158V13.8984ZM2.34957 13.8984H3.20396V13.5586H2.34957V13.8984ZM3.41755 13.8984H4.27194V13.5586H3.41755V13.8984ZM1.70878 13.2188H2.77676V12.8828H1.70878V13.2188ZM0.213597 13.2188H1.28158V12.8828H0.213597V13.2188ZM3.20396 13.2188H4.27194V12.8828H3.20396V13.2188ZM4.27194 11.8672H4.48554V11.5234H4.27194V11.8672ZM0 11.8672H0.213597V11.5234H0V11.8672ZM1.92237 10.168H2.13597V10.5078H1.92237V10.168ZM2.34957 10.168H2.56316V10.5078H2.34957V10.168ZM2.34957 9.49219H2.56316V9.83203H2.34957V9.49219ZM1.92237 9.49219H2.13597V9.83203H1.92237V9.49219ZM0.427194 18.6445H0.854388V18.9844H0.427194V18.6445ZM3.41755 12.2031H3.63115V11.8633H3.41755V12.2031ZM0.854388 12.2031H1.06799V11.8633H0.854388V12.2031ZM1.92237 11.8633H2.56316V12.2031H1.92237V11.8633Z" fill="#B20000"/>
</g>
<defs>
<clipPath id="clip0_202_69">
<rect width="27" height="20" fill="white"/>
</clipPath>
</defs>
</svg>
