<svg width="27" height="20" viewBox="0 0 27 20" fill="none" xmlns="http://www.w3.org/2000/svg">
<g clip-path="url(#clip0_202_166)">
<path d="M6.1522 0H20.4006L20.5455 20H6.15225L6.1522 0Z" fill="white"/>
<path d="M-0.148376 0H6.1522L6.15225 20H-0.148376V0ZM20.4006 0H26.8516V20H20.4046L20.4006 0ZM8.28772 9.66408L7.72925 9.85158L10.3052 12.0977C10.5019 12.6719 10.2384 12.8398 10.0692 13.1445L12.8615 12.793L12.7946 15.5859L13.3767 15.5703L13.2469 12.7969L16.047 13.1289C15.874 12.7656 15.7206 12.5742 15.8779 11.9961L18.45 9.86717L18.0016 9.70312C17.6319 9.42188 18.1589 8.34767 18.2376 7.66796C18.2376 7.66796 16.7392 8.17967 16.6409 7.91017L16.2555 7.17971L14.8908 8.67188C14.7414 8.70704 14.6784 8.64842 14.6431 8.52342L15.2723 5.40625L14.2734 5.96483C14.1908 6.00392 14.1082 5.97267 14.0531 5.875L13.0896 3.96092L12.0985 5.94925C12.0238 6.01954 11.9491 6.02733 11.8862 5.9805L10.9344 5.44925L11.5086 8.53904C11.4615 8.66404 11.3513 8.69529 11.2255 8.62892L9.91587 7.15625C9.74677 7.42971 9.63271 7.87108 9.40463 7.97267C9.18045 8.06642 8.42142 7.78517 7.91408 7.67579C8.08712 8.29688 8.62986 9.32812 8.28772 9.66796V9.66408Z" fill="#D52B1E"/>
</g>
<defs>
<clipPath id="clip0_202_166">
<rect width="27" height="20" fill="white"/>
</clipPath>
</defs>
</svg>
