<svg width="27" height="20" viewBox="0 0 27 20" fill="none" xmlns="http://www.w3.org/2000/svg">
<g clip-path="url(#clip0_202_184)">
<path d="M0 0H27V20H0V0Z" fill="#DE2910"/>
<path d="M3.24002 7.39997L5.0625 1.99997L6.88498 7.39997L2.02504 4.09997H8.09996L3.24002 7.39997Z" fill="#FFDE00"/>
<path d="M11.1447 2.10345L9.26915 2.51396L10.5202 1.0741L10.3975 3.01196L9.3567 1.29637L11.1447 2.10345Z" fill="#FFDE00"/>
<path d="M13.0376 4.47277L11.1476 4.13271L12.8662 3.28477L11.9921 5.02395L11.7065 3.04396L13.0376 4.47277Z" fill="#FFDE00"/>
<path d="M12.7617 7.79681L11.1765 6.725L13.0958 6.64307L11.5796 7.87893L12.1364 5.95602L12.7617 7.79681Z" fill="#FFDE00"/>
<path d="M10.3777 9.96833L9.3346 8.375L11.137 9.03155L9.25511 9.59312L10.5207 8.03183L10.3777 9.96833Z" fill="#FFDE00"/>
</g>
<defs>
<clipPath id="clip0_202_184">
<rect width="27" height="20" fill="white"/>
</clipPath>
</defs>
</svg>
