<svg width="27" height="20" viewBox="0 0 27 20" fill="none" xmlns="http://www.w3.org/2000/svg">
<path d="M26.9736 13.3445H0.0263672V20H26.9736V13.3445Z" fill="#010101"/>
<path d="M26.9736 6.689H0.0263672V13.3445H26.9736V6.689Z" fill="white"/>
<path d="M26.9736 0.0334778H0.0263672V6.68899H26.9736V0.0334778Z" fill="#BD1F34"/>
<path d="M27 6.72246H0V0H27V6.72246ZM0.0527344 6.65551H26.9473V0.0736529H0.0527344V6.65551Z" fill="#BD1F34"/>
<path d="M13.3524 13.1704C13.8692 13.1704 14.3596 13.1168 14.6496 13.0164C14.7709 12.9896 14.7709 12.9093 14.7709 12.8021C14.8922 12.7486 14.8289 12.5678 14.9133 12.5678C14.8289 12.5946 14.8078 12.387 14.7076 12.4138C14.7076 12.233 14.5653 12.2062 14.4387 12.2598C14.1961 12.3602 13.7584 12.387 13.3471 12.387C12.9358 12.3602 12.5086 12.3602 12.2555 12.2598C12.1342 12.2062 11.9865 12.233 11.9865 12.4138C11.8811 12.387 11.8653 12.5946 11.7809 12.5678C11.8653 12.5678 11.802 12.7486 11.9233 12.8021C11.9233 12.9026 11.9233 12.9829 12.0498 13.0164C12.3451 13.1168 12.8356 13.1704 13.3524 13.1704Z" fill="white"/>
<path d="M13.3524 13.2374C12.7986 13.2374 12.324 13.1771 12.0445 13.0767C11.9022 13.0432 11.8863 12.9428 11.8811 12.8423C11.8178 12.7955 11.802 12.7151 11.7967 12.6682C11.7967 12.6548 11.7914 12.6415 11.7861 12.6281C11.7809 12.6281 11.7756 12.6281 11.7756 12.6281C11.7492 12.6214 11.7334 12.5879 11.7387 12.5544C11.744 12.5209 11.765 12.5008 11.7914 12.5008C11.7914 12.5008 11.7967 12.5008 11.7967 12.5075H11.802C11.8125 12.5075 11.8336 12.4741 11.8442 12.4607C11.8705 12.4205 11.9022 12.3669 11.9549 12.3535C11.9813 12.1995 12.1289 12.1326 12.2818 12.1995C12.477 12.2799 12.7986 12.3 13.1361 12.3134L13.3576 12.3268C13.8797 12.3268 14.233 12.2866 14.4281 12.1995C14.5863 12.1326 14.734 12.1995 14.7604 12.3602C14.8184 12.3803 14.8447 12.4272 14.8658 12.4607C14.8764 12.4741 14.8922 12.5075 14.9027 12.5075C14.908 12.5075 14.9186 12.5075 14.9186 12.5075C14.9449 12.5075 14.966 12.5343 14.9713 12.5611C14.9766 12.5946 14.9608 12.6214 14.9344 12.6348C14.9291 12.6348 14.9291 12.6348 14.9238 12.6348H14.9186C14.9186 12.6348 14.9186 12.6548 14.9133 12.6749C14.9027 12.7218 14.8869 12.8022 14.8289 12.849C14.8289 12.9428 14.8078 13.0499 14.6654 13.0834C14.3807 13.1771 13.9008 13.2374 13.3524 13.2374ZM11.8811 12.5946C11.8863 12.608 11.8916 12.6281 11.8916 12.6415C11.9022 12.695 11.9074 12.7285 11.9443 12.7419C11.9654 12.7486 11.9813 12.7754 11.9813 12.8022C11.9813 12.9026 11.9813 12.9294 12.0656 12.9495C12.3346 13.0499 12.8145 13.1035 13.3524 13.1035C13.8902 13.1035 14.3701 13.0432 14.6338 12.9495C14.7182 12.9294 14.7182 12.9026 14.7182 12.8022C14.7182 12.7754 14.734 12.7486 14.7551 12.7419C14.792 12.7285 14.7973 12.695 14.8078 12.6415C14.8131 12.6281 14.8131 12.608 14.8184 12.5946C14.8025 12.5745 14.792 12.5544 14.7815 12.541C14.7604 12.5008 14.7445 12.4808 14.7287 12.4808C14.7129 12.4808 14.6918 12.4808 14.6813 12.4674C14.6707 12.454 14.6602 12.4339 14.6602 12.4138C14.6602 12.387 14.6602 12.3 14.5547 12.3C14.5231 12.3 14.4914 12.3067 14.4598 12.3201C14.2541 12.4071 13.8902 12.454 13.3524 12.454L13.1256 12.4406C12.7828 12.4272 12.4559 12.4071 12.2449 12.3201C12.2133 12.3067 12.1816 12.3 12.15 12.3C12.0445 12.3 12.0445 12.387 12.0445 12.4138C12.0445 12.4339 12.0393 12.454 12.0234 12.4674C12.0129 12.4808 11.9971 12.4875 11.9813 12.4808C11.9549 12.4808 11.9391 12.5008 11.918 12.541C11.9074 12.5544 11.8969 12.5745 11.8811 12.5946Z" fill="#F0C726"/>
<path d="M12.1817 12.5142C12.1395 12.5142 12.1395 12.541 12.1817 12.541C12.1975 12.541 12.1975 12.5142 12.1817 12.5142Z" fill="#F4D135"/>
<path d="M12.1817 12.5812C12.1289 12.5812 12.1237 12.541 12.1237 12.5343C12.1237 12.5075 12.1606 12.4875 12.1817 12.4875C12.1975 12.4875 12.2239 12.5209 12.2239 12.5343C12.2186 12.5477 12.1975 12.5812 12.1817 12.5812Z" fill="#F0C726"/>
<path d="M12.1816 12.4138C12.1605 12.4138 12.1605 12.4674 12.1816 12.4674C12.2185 12.4674 12.2185 12.4138 12.1816 12.4138Z" fill="#F4D135"/>
<path d="M12.1816 12.5008C12.1658 12.5008 12.1394 12.4607 12.1394 12.4406C12.1394 12.4205 12.171 12.3803 12.1816 12.3803C12.2185 12.3803 12.2396 12.4138 12.2396 12.4406C12.2396 12.4674 12.2185 12.5008 12.1816 12.5008Z" fill="#F0C726"/>
<path d="M12.1816 12.8022C12.1605 12.8022 12.1605 12.8557 12.1816 12.8557C12.1974 12.8557 12.1974 12.8022 12.1816 12.8022Z" fill="#F4D135"/>
<path d="M12.1816 12.8892C12.1658 12.8892 12.1394 12.849 12.1394 12.8289C12.1394 12.8089 12.171 12.7687 12.1816 12.7687C12.1974 12.7687 12.2238 12.8089 12.2238 12.8289C12.2185 12.849 12.1974 12.8892 12.1816 12.8892Z" fill="#F0C726"/>
<path d="M12.2608 12.8289C12.2186 12.8289 12.2186 12.8825 12.2608 12.8825C12.2819 12.8825 12.2819 12.8289 12.2608 12.8289Z" fill="#F4D135"/>
<path d="M12.2608 12.916C12.2239 12.916 12.2028 12.8825 12.2028 12.8557C12.2028 12.8222 12.2344 12.7954 12.2608 12.7954C12.2766 12.7954 12.303 12.8356 12.303 12.8557C12.303 12.8825 12.2819 12.916 12.2608 12.916Z" fill="#F0C726"/>
<path d="M12.3451 12.8557C12.3293 12.8557 12.3293 12.9093 12.3451 12.9093C12.382 12.9093 12.382 12.8557 12.3451 12.8557Z" fill="#F4D135"/>
<path d="M12.3452 12.9428C12.3293 12.9428 12.303 12.9026 12.303 12.8825C12.303 12.8624 12.3293 12.8222 12.3452 12.8222C12.3821 12.8222 12.4032 12.8557 12.4032 12.8825C12.4032 12.9093 12.3821 12.9428 12.3452 12.9428Z" fill="#F0C726"/>
<path d="M13.616 12.5946C13.5949 12.5946 13.5949 12.6481 13.616 12.6481C13.6371 12.6481 13.6371 12.5946 13.616 12.5946Z" fill="#F4D135"/>
<path d="M13.616 12.6816C13.6002 12.6816 13.5739 12.6414 13.5739 12.6214C13.5739 12.6013 13.6002 12.5611 13.616 12.5611C13.6319 12.5611 13.6582 12.6013 13.6582 12.6214C13.6635 12.6414 13.6319 12.6816 13.616 12.6816Z" fill="#F0C726"/>
<path d="M13.6371 12.7017C13.5949 12.7017 13.5949 12.7285 13.6371 12.7285C13.6582 12.7218 13.6582 12.7017 13.6371 12.7017Z" fill="#F4D135"/>
<path d="M13.7004 12.9561C13.6793 12.9561 13.6793 13.0097 13.7004 13.0097C13.7215 13.0164 13.7215 12.9561 13.7004 12.9561Z" fill="#F4D135"/>
<path d="M13.7004 13.0499C13.6846 13.0499 13.6582 13.003 13.6582 12.9896C13.6582 12.9695 13.6846 12.9294 13.7004 12.9294C13.7162 12.9294 13.7426 12.9762 13.7426 12.9896C13.7426 13.003 13.7162 13.0499 13.7004 13.0499Z" fill="#F0C726"/>
<path d="M13.7848 12.9561C13.7426 12.9561 13.7426 13.0097 13.7848 13.0097C13.8006 13.0164 13.8006 12.9561 13.7848 12.9561Z" fill="#F4D135"/>
<path d="M13.7847 13.0499C13.7425 13.0499 13.7214 13.0164 13.7214 12.9896C13.7214 12.9561 13.7425 12.9294 13.7847 12.9294C13.8005 12.9294 13.8269 12.9762 13.8269 12.9896C13.8269 13.0164 13.8058 13.0499 13.7847 13.0499Z" fill="#F0C726"/>
<path d="M14.6232 12.7486C14.581 12.7486 14.581 12.7753 14.6232 12.7753C14.6496 12.782 14.6496 12.7486 14.6232 12.7486Z" fill="#F4D135"/>
<path d="M14.6232 12.8155C14.5705 12.8155 14.5652 12.7754 14.5652 12.7687C14.5652 12.7419 14.6021 12.7218 14.6232 12.7218C14.639 12.7218 14.6654 12.7486 14.6654 12.7687C14.6707 12.7821 14.639 12.8155 14.6232 12.8155Z" fill="#F0C726"/>
<path d="M12.4032 12.849C12.3874 12.849 12.3715 12.8423 12.3557 12.8356C12.3346 12.8289 12.3083 12.8222 12.2924 12.8021C12.2713 12.8021 12.2555 12.7955 12.2291 12.7821C12.2081 12.7821 12.1711 12.7419 12.1711 12.6682C12.1922 12.6147 12.2028 12.541 12.2186 12.4674L12.2344 12.4004C12.2397 12.3803 12.2502 12.3736 12.2661 12.3736C12.2819 12.3803 12.2872 12.4004 12.2872 12.4138L12.2713 12.4808C12.2555 12.5678 12.2397 12.6348 12.2186 12.6816C12.2239 12.695 12.2344 12.7084 12.2344 12.7084C12.2502 12.7151 12.2661 12.7218 12.2766 12.7218C12.2766 12.7084 12.2819 12.6883 12.2872 12.6749C12.2924 12.6214 12.2977 12.6013 12.3135 12.5946C12.3188 12.6013 12.3241 12.6147 12.3293 12.6348L12.3452 12.6482C12.3452 12.6482 12.3452 12.6615 12.3399 12.6749C12.3399 12.6816 12.3399 12.6816 12.3399 12.6816C12.3346 12.7084 12.3293 12.7352 12.3241 12.7486C12.3293 12.7486 12.3346 12.7553 12.361 12.762C12.3768 12.7687 12.3926 12.7754 12.3979 12.7687C12.4084 12.762 12.419 12.7352 12.4243 12.6816L12.4348 12.6883L12.4084 12.6482C12.4137 12.6348 12.4401 12.6214 12.4506 12.6281C12.4612 12.6348 12.4823 12.6749 12.4823 12.695C12.4717 12.7553 12.4612 12.8088 12.4243 12.8356C12.4243 12.8423 12.4137 12.849 12.4032 12.849Z" fill="#F0C726"/>
<path d="M12.2396 12.7888H12.2344C12.1711 12.7687 12.1342 12.7218 12.1342 12.6749C12.1342 12.6482 12.15 12.608 12.2185 12.5879C12.2344 12.5879 12.2502 12.5946 12.2502 12.6147C12.2554 12.6348 12.2449 12.6548 12.2291 12.6548C12.1922 12.6615 12.1869 12.6749 12.1869 12.6749C12.1869 12.6816 12.208 12.7017 12.2449 12.7151C12.2607 12.7218 12.266 12.7419 12.266 12.7553C12.2607 12.7754 12.2502 12.7888 12.2396 12.7888Z" fill="#F0C726"/>
<path d="M12.8302 12.9963C12.8197 12.9963 12.7986 12.9896 12.7933 12.9762C12.788 12.9896 12.7458 12.9762 12.7458 12.8758C12.7353 12.8758 12.7142 12.8691 12.6984 12.8557C12.6457 12.8825 12.5876 12.8892 12.5507 12.8758C12.5349 12.9026 12.5191 12.9227 12.498 12.9361C12.4822 12.9427 12.4664 12.9361 12.4611 12.916C12.4558 12.8959 12.4611 12.8758 12.4769 12.8691C12.4927 12.8624 12.5033 12.849 12.5138 12.8289C12.5085 12.8155 12.5033 12.7954 12.5033 12.7754C12.498 12.762 12.4875 12.7285 12.5033 12.7017C12.5507 12.6883 12.5666 12.7151 12.5771 12.762C12.5771 12.7754 12.5771 12.7954 12.5718 12.8088C12.5876 12.8155 12.6193 12.8155 12.6562 12.8021C12.6298 12.7687 12.6298 12.7218 12.6457 12.6883C12.6615 12.6414 12.7037 12.6214 12.7458 12.6347C12.7775 12.6548 12.7986 12.695 12.7933 12.7419C12.7933 12.7754 12.7775 12.8088 12.7564 12.8289C12.7669 12.8356 12.7775 12.8423 12.788 12.8557C12.8039 12.9294 12.8091 12.9294 12.8144 12.9294C12.825 12.9294 12.846 12.8825 12.846 12.8356V12.6013C12.846 12.5611 12.8988 12.5611 12.8988 12.6013V12.8356C12.8988 12.9026 12.8724 12.9829 12.8355 13.003C12.8355 12.9963 12.8355 12.9963 12.8302 12.9963Z" fill="#F0C726"/>
<path d="M12.941 12.916C12.9252 12.916 12.9147 12.9026 12.9147 12.8825C12.9147 12.8423 12.9199 12.7821 12.9252 12.7285C12.9305 12.6816 12.9358 12.6281 12.9358 12.5946C12.9358 12.5544 12.9885 12.5544 12.9885 12.5946C12.9885 12.6348 12.9832 12.6883 12.978 12.7352C12.9727 12.7888 12.9674 12.8356 12.9674 12.8758C12.9674 12.9026 12.9569 12.916 12.941 12.916Z" fill="#F0C726"/>
<path d="M13.0043 13.07C12.9937 13.07 12.9884 13.0633 12.9832 13.0566C12.9726 13.0432 12.9779 13.0164 12.9884 13.0097C13.0306 12.9695 13.0464 12.9361 13.0517 12.9093C13.0412 12.8959 13.0306 12.8892 13.0201 12.8758C13.0043 12.8423 13.0043 12.8155 13.0148 12.7954C13.0201 12.7821 13.0412 12.7754 13.0517 12.7754C13.0728 12.7821 13.0939 12.8021 13.1045 12.849C13.1045 12.8557 13.1045 12.8691 13.1045 12.8758C13.1097 12.8758 13.115 12.8758 13.1203 12.8758C13.1203 12.8758 13.1308 12.8691 13.1308 12.8222C13.1203 12.8155 13.115 12.8021 13.115 12.7821C13.115 12.762 13.1361 12.7285 13.1519 12.7285C13.1625 12.7285 13.1836 12.7553 13.1888 12.7754C13.1994 12.7754 13.2099 12.7754 13.2257 12.7754C13.2732 12.8021 13.3523 12.8021 13.3681 12.7887C13.4156 12.7754 13.4367 12.8222 13.4367 12.8959C13.4367 12.9026 13.4261 12.9427 13.4209 12.9494C13.405 12.9963 13.3945 13.0298 13.3681 13.0365C13.3418 13.0365 13.3207 13.0164 13.3048 12.9963C13.2996 12.9628 13.2996 12.9561 13.2627 12.9561H13.1203C13.1097 12.9561 13.1045 12.9561 13.0992 12.9561C13.0886 12.9963 13.0675 13.0365 13.0148 13.0834C13.0148 13.07 13.0095 13.07 13.0043 13.07ZM13.1836 12.8691H13.2679C13.3418 12.8691 13.3523 12.9227 13.3523 12.9561L13.3734 12.9026C13.3787 12.8758 13.3787 12.8624 13.3787 12.849C13.3312 12.8691 13.2468 12.8624 13.2099 12.8356C13.2047 12.8356 13.1941 12.8356 13.1836 12.8356C13.1888 12.849 13.1888 12.8624 13.1836 12.8691Z" fill="#F0C726"/>
<path d="M13.4947 12.9427C13.4894 12.9427 13.4842 12.9427 13.4789 12.936C13.4631 12.9294 13.4472 12.936 13.442 12.936C13.4261 12.936 13.3998 12.9227 13.3998 12.9026C13.3998 12.8825 13.3998 12.8691 13.4156 12.8691V12.9026L13.4314 12.8624C13.442 12.8624 13.4525 12.8557 13.4631 12.8557C13.4631 12.8155 13.4736 12.7954 13.4789 12.782C13.4947 12.762 13.5211 12.7553 13.5474 12.7687C13.5738 12.782 13.5896 12.8155 13.5896 12.849C13.5844 12.9093 13.5211 12.9427 13.4947 12.9427Z" fill="#F0C726"/>
<path d="M13.6582 12.9361C13.6476 12.9361 13.6424 12.9361 13.6371 12.9294C13.6265 12.9227 13.6107 12.8959 13.6107 12.8825C13.6318 12.8356 13.6582 12.8155 13.6845 12.8088C13.6898 12.7553 13.6845 12.6749 13.6687 12.6013C13.6635 12.5812 13.674 12.5611 13.6898 12.5611C13.7056 12.5544 13.7215 12.5678 13.7215 12.5879C13.7373 12.6615 13.7426 12.7553 13.7373 12.8289C13.7426 12.8289 13.7795 12.849 13.7795 12.849C13.8006 12.849 13.8058 12.8356 13.8111 12.7888C13.8006 12.7687 13.7847 12.7352 13.79 12.7218C13.7953 12.7084 13.8164 12.695 13.8322 12.695C13.8427 12.695 13.8691 12.7285 13.8691 12.7486C13.8691 12.7553 13.8691 12.762 13.8691 12.7754C13.8691 12.7821 13.8691 12.7821 13.8691 12.7888C13.8638 12.8892 13.8427 12.9227 13.7847 12.9227C13.7584 12.9428 13.732 12.9294 13.7162 12.9227C13.7162 12.9227 13.7162 12.9227 13.7109 12.916C13.6951 12.9294 13.6793 12.9361 13.6582 12.9361Z" fill="#F0C726"/>
<path d="M13.9061 13.0231C13.9008 13.0231 13.8903 13.0164 13.885 13.0097C13.8744 12.9963 13.8744 12.9762 13.885 12.9628C13.9061 12.9361 13.9219 12.9026 13.9324 12.8758C13.885 12.8423 13.8797 12.8021 13.8797 12.7821C13.8797 12.7687 13.8797 12.7218 13.9061 12.7084C13.9377 12.695 13.9588 12.7218 13.9852 12.762C14.0168 12.8423 13.9694 12.9561 13.9272 13.0164C13.9219 13.0164 13.9114 13.0231 13.9061 13.0231Z" fill="#F0C726"/>
<path d="M14.0484 12.9695C14.0379 12.9695 14.0273 12.9628 14.022 12.9494C14.0168 12.9294 14.022 12.9093 14.0379 12.9026C14.059 12.8959 14.0695 12.8825 14.0748 12.8691C14.0326 12.8758 14.0168 12.849 14.0115 12.8222C14.0062 12.7887 14.022 12.7486 14.0537 12.7285C14.059 12.7218 14.0906 12.7151 14.1011 12.7151C14.1222 12.7285 14.1328 12.7553 14.1381 12.8021C14.2119 12.7887 14.3121 12.7553 14.3859 12.7017C14.3965 12.6883 14.4176 12.695 14.4228 12.7151C14.4281 12.7285 14.4281 12.7553 14.4123 12.762C14.3226 12.8289 14.2119 12.8624 14.1328 12.8691C14.1275 12.9093 14.1117 12.9494 14.059 12.9762C14.059 12.9695 14.0537 12.9695 14.0484 12.9695Z" fill="#F0C726"/>
<path d="M14.2962 12.8691C14.2857 12.8691 14.2751 12.8691 14.2646 12.8624C14.2488 12.8356 14.2382 12.8021 14.2277 12.762C14.2224 12.7754 14.2224 12.7887 14.2224 12.8021C14.2224 12.8423 14.1697 12.8423 14.1697 12.8021C14.1697 12.7486 14.1855 12.7017 14.2119 12.6816C14.2119 12.6749 14.2119 12.6682 14.2066 12.6615L14.1855 12.5544C14.1802 12.5343 14.1908 12.5142 14.2066 12.5142C14.2224 12.5075 14.2382 12.5209 14.2382 12.541L14.2593 12.6481C14.2593 12.6548 14.2593 12.6548 14.2593 12.6615C14.2699 12.6615 14.291 12.6615 14.3068 12.6682C14.3384 12.6816 14.3595 12.7218 14.3595 12.7553C14.3701 12.7754 14.3701 12.8155 14.349 12.849C14.3384 12.8624 14.3173 12.8691 14.2962 12.8691Z" fill="#F0C726"/>
<path d="M14.4492 12.7954C14.4123 12.7954 14.3859 12.7754 14.3754 12.7352C14.3701 12.7285 14.3754 12.6816 14.3806 12.6749C14.4123 12.608 14.5072 12.6013 14.5441 12.6481C14.5599 12.6883 14.5547 12.7218 14.5388 12.7419C14.5177 12.7754 14.4861 12.7954 14.4492 12.7954Z" fill="#F0C726"/>
<path d="M14.618 12.7084C14.6022 12.7084 14.5917 12.7017 14.5864 12.695C14.5389 12.6615 14.5178 12.5812 14.5178 12.4607C14.5178 12.4339 14.5125 12.4205 14.502 12.4138C14.4862 12.4071 14.4598 12.4138 14.444 12.4339C14.4334 12.4473 14.4176 12.4473 14.4071 12.4339C14.3965 12.4205 14.3965 12.4004 14.4071 12.387C14.4387 12.3468 14.4862 12.3334 14.5231 12.3535C14.5547 12.3736 14.5758 12.4138 14.5758 12.4674C14.5758 12.5745 14.5969 12.6281 14.618 12.6414C14.6233 12.6481 14.6338 12.6481 14.6444 12.6414V12.6347C14.6497 12.6214 14.6813 12.5812 14.6918 12.5879C14.7024 12.5946 14.7182 12.6347 14.7182 12.6548C14.676 12.695 14.6444 12.7084 14.618 12.7084Z" fill="#F0C726"/>
<path d="M13.3735 10.1708L15.1401 12.2531L15.0135 8.46335C14.9924 7.88753 14.6022 8.02144 14.3174 8.22901C14.0274 8.46335 13.7004 8.46335 13.3524 8.30935C13.0043 8.46335 12.6774 8.46335 12.3874 8.22901C12.1026 8.02144 11.7071 7.88753 11.6913 8.46335L11.5647 12.2531L13.3735 10.1708Z" fill="white"/>
<path d="M11.5593 12.2933C11.5541 12.2933 11.5541 12.2933 11.5488 12.2866C11.5382 12.2799 11.533 12.2665 11.533 12.2531L11.6595 8.46334C11.6701 8.09508 11.8335 8.02142 11.9654 8.02142C12.1236 8.02142 12.3082 8.13525 12.3978 8.20221C12.6615 8.41647 12.9779 8.44325 13.3417 8.28255C13.7478 8.44325 14.0431 8.42316 14.3015 8.2089C14.3964 8.14195 14.5757 8.02812 14.7339 8.02812C14.8658 8.02812 15.024 8.10847 15.0398 8.47003L15.1664 12.2598C15.1664 12.2732 15.1611 12.2866 15.1505 12.2933C15.14 12.3 15.1294 12.3 15.1189 12.2866L13.3681 10.2243L11.5751 12.2866C11.5751 12.2866 11.5699 12.2933 11.5593 12.2933ZM11.9654 8.09508C11.8072 8.09508 11.7228 8.22229 11.7175 8.47673L11.5962 12.1794L13.3576 10.1506C13.3681 10.1373 13.3839 10.1373 13.3945 10.1506L15.1136 12.1794L14.9923 8.47673C14.9765 8.04821 14.7128 7.99464 14.3384 8.26916C14.0642 8.49012 13.7267 8.5236 13.347 8.34951C13.0095 8.5169 12.6509 8.49012 12.3767 8.26916C12.2185 8.15534 12.0708 8.09508 11.9654 8.09508Z" fill="#F0C726"/>
<path d="M13.6371 8.44324C13.7373 8.51689 13.8427 8.51689 13.906 8.51689C13.7003 8.33611 13.6371 7.84063 13.6582 7.63306C13.7003 7.21124 13.616 6.97689 13.4156 6.93002C13.3734 6.93002 13.3523 6.90324 13.2732 6.90324C13.2099 6.88315 13.1625 6.9568 13.1414 7.00367C13.0781 6.95011 13.0253 6.97689 12.9673 6.93002C12.9041 6.90324 12.7986 6.93002 12.7986 7.1108L12.8408 7.09071C12.8619 7.09741 12.8935 7.1175 12.9357 7.15098C12.9884 7.20454 13.0675 7.24472 13.0886 7.4255C13.1308 7.81385 13.0886 8.18211 12.7986 8.52359C12.8619 8.52359 12.9673 8.52359 13.0675 8.44994C13.0253 8.52359 13.0095 8.55037 12.9673 8.60394C13.0886 8.57716 13.1941 8.52359 13.2521 8.39637C13.2732 8.44994 13.3312 8.52359 13.3576 8.57716C13.3787 8.52359 13.4367 8.44994 13.463 8.39637C13.521 8.52359 13.6265 8.57716 13.7478 8.60394C13.7003 8.55037 13.6792 8.52359 13.6371 8.44324Z" fill="white"/>
<path d="M12.8831 8.65083L12.9411 8.57718C12.9569 8.55709 12.9674 8.5437 12.978 8.52361C12.9042 8.5504 12.8356 8.5504 12.7881 8.5504H12.7249L12.7723 8.49683C13.0149 8.20892 13.0993 7.88752 13.0518 7.43222C13.036 7.29161 12.9833 7.25144 12.9358 7.20457L12.9042 7.17778C12.862 7.151 12.8356 7.13091 12.8198 7.12422L12.7565 7.16439V7.11752C12.7565 6.90996 12.8778 6.86309 12.9569 6.90326C12.9885 6.93004 13.0096 6.93674 13.0413 6.93674C13.0624 6.94343 13.0887 6.94343 13.1151 6.96352C13.1362 6.92335 13.1784 6.86978 13.2311 6.86978C13.3049 6.87648 13.3366 6.88317 13.3577 6.88987C13.3735 6.89656 13.384 6.89656 13.3999 6.89656C13.6213 6.95013 13.711 7.20457 13.6688 7.63978C13.6477 7.85405 13.711 8.32274 13.9061 8.49014L13.9747 8.5504H13.8956C13.8481 8.5504 13.7795 8.5504 13.7057 8.52361C13.7163 8.5437 13.7268 8.55709 13.7426 8.57718L13.8006 8.65083L13.7215 8.63075C13.6266 8.61066 13.5159 8.57048 13.442 8.44996C13.4315 8.46335 13.4209 8.48344 13.4104 8.50353C13.3893 8.53031 13.3735 8.56379 13.3629 8.59057L13.3418 8.64414L13.3208 8.59057C13.3102 8.56379 13.2891 8.53701 13.2733 8.50353C13.2627 8.48344 13.2522 8.47005 13.2417 8.44996C13.1678 8.57048 13.0571 8.61066 12.9622 8.63075L12.8831 8.65083ZM13.4526 8.32944L13.4737 8.37631C13.5106 8.45666 13.5686 8.51022 13.6635 8.5437C13.6477 8.52361 13.6372 8.49683 13.6161 8.46335L13.6477 8.41648C13.711 8.46335 13.7743 8.47674 13.827 8.48344C13.653 8.26248 13.6055 7.82726 13.6266 7.63309C13.6635 7.23135 13.595 7.01039 13.4051 6.96352C13.3893 6.97691 13.3735 6.95683 13.3577 6.95013C13.3366 6.94343 13.3102 6.93674 13.2627 6.93674C13.1995 6.93674 13.1678 7.0037 13.1573 7.02378L13.1415 7.05726L13.1204 7.03717C13.094 7.01709 13.0676 7.01039 13.0413 7.0037C13.0096 6.997 12.978 6.9903 12.9463 6.96352C12.9305 6.95682 12.8461 6.92335 12.825 7.07065C12.862 7.07065 12.8883 7.09074 12.9252 7.11752L12.9727 7.1577C13.0254 7.20457 13.0887 7.25813 13.1098 7.42552C13.1415 7.73352 13.1415 8.12187 12.862 8.49014C12.9147 8.48344 12.9833 8.47005 13.0518 8.42318L13.0834 8.47005C13.0624 8.50353 13.0518 8.53031 13.036 8.5504C13.1309 8.51692 13.1889 8.46335 13.2258 8.383L13.2469 8.33614L13.268 8.3897C13.2786 8.41648 13.2997 8.44327 13.3155 8.47674C13.326 8.49683 13.3366 8.51022 13.3471 8.53031C13.3577 8.51692 13.3682 8.49683 13.3788 8.47674C13.3999 8.44996 13.4157 8.41648 13.4262 8.3897L13.4526 8.32944Z" fill="#F0C726"/>
<path d="M13.6529 8.50351C13.6424 8.50351 13.6318 8.49681 13.6265 8.48342C13.5685 8.33611 13.5052 8.16872 13.5052 7.94776C13.5052 7.90759 13.558 7.90759 13.558 7.94776C13.558 8.15533 13.6107 8.30264 13.6687 8.45664C13.674 8.47672 13.6687 8.49681 13.6582 8.50351C13.6582 8.50351 13.6582 8.50351 13.6529 8.50351Z" fill="#F0C726"/>
<path d="M13.4526 8.42985C13.442 8.42985 13.4367 8.42316 13.4315 8.41646C13.3893 8.32942 13.3629 8.16872 13.3629 7.94776C13.3629 7.90759 13.4156 7.90759 13.4156 7.94776C13.4156 8.14863 13.4367 8.30264 13.4737 8.37629C13.4842 8.38968 13.4789 8.41646 13.4631 8.42316C13.4631 8.42985 13.4578 8.42985 13.4526 8.42985Z" fill="#F0C726"/>
<path d="M13.0465 8.50352C13.0412 8.50352 13.0359 8.50352 13.0359 8.49682C13.0201 8.49013 13.0148 8.47004 13.0254 8.44995C13.0834 8.30934 13.1361 8.15534 13.1361 7.94108C13.1361 7.90091 13.1889 7.90091 13.1889 7.94108C13.1889 8.16873 13.1309 8.32943 13.0676 8.47673C13.0676 8.49682 13.057 8.50352 13.0465 8.50352Z" fill="#F0C726"/>
<path d="M13.2468 8.42985C13.2415 8.42985 13.2363 8.42985 13.231 8.42316C13.2205 8.40977 13.2152 8.38968 13.2205 8.37629C13.2574 8.30264 13.2785 8.14863 13.2785 7.94776C13.2785 7.90759 13.3312 7.90759 13.3312 7.94776C13.3312 8.16203 13.3101 8.32272 13.2626 8.41646C13.2626 8.42316 13.2574 8.42985 13.2468 8.42985Z" fill="#F0C726"/>
<path d="M12.8092 7.09072C12.8514 7.09741 12.8725 7.1108 12.9305 7.15098C12.9727 7.17776 13.0623 7.24472 13.0834 7.39872C13.0623 7.31837 13.1045 7.23802 13.1467 7.2648C13.0834 7.08402 12.8883 7.03715 12.8092 7.09072Z" fill="#F0C726"/>
<path d="M13.0834 7.4188C13.0782 7.4188 13.0729 7.4121 13.0729 7.40541C13.0729 7.39871 13.0676 7.38532 13.0676 7.37193C13.0412 7.24471 12.9621 7.19115 12.9252 7.16436L12.9041 7.13089L12.8989 7.14428C12.8619 7.11749 12.8461 7.1041 12.8092 7.1041C12.825 7.05723 12.8567 7.05054 12.8883 7.05054C12.9832 7.05054 13.1098 7.11749 13.1625 7.2581C13.1625 7.2648 13.1573 7.2648 13.152 7.27149C13.152 7.27819 13.1362 7.27819 13.1309 7.27819C13.0992 7.31167 13.0887 7.33845 13.094 7.36523C13.094 7.37193 13.094 7.37193 13.094 7.37863C13.0992 7.38532 13.0992 7.39202 13.0992 7.39871C13.0992 7.40541 13.094 7.4121 13.0834 7.4188ZM12.8514 7.09071C12.8672 7.09071 12.883 7.1041 12.9041 7.11749L12.9358 7.13758C12.9674 7.16436 13.036 7.20454 13.0729 7.30497C13.0781 7.29158 13.0834 7.28489 13.0887 7.27149C13.0992 7.2581 13.1151 7.24471 13.1309 7.24471C13.0834 7.13088 12.941 7.07062 12.8514 7.09071Z" fill="#F0C726"/>
<path d="M13.4315 10.5859L13.6793 12.0188L13.6002 12.1259L13.5158 12.0455L13.3735 10.7667L13.4315 12.0455L13.3524 12.1794L13.268 12.0455L13.326 10.7667L13.1889 12.0455L13.1045 12.1259L13.0201 12.0188L13.268 10.5859H13.4315Z" fill="#F0C726"/>
<path d="M13.3523 12.2263L13.2521 12.0656L13.2785 11.4496L13.2099 12.0522L13.115 12.1527L13.0043 12.0455L13.2469 10.5859L13.4314 10.5658L13.7004 12.0255L13.6107 12.1594L13.5 12.0723L13.4261 11.4429L13.4525 12.0455L13.3523 12.2263ZM13.3523 10.7868L13.2943 12.0455L13.3523 12.1326L13.4156 12.0321L13.3523 10.7868ZM13.4103 10.5926L13.2679 10.6127L13.0412 12.0255L13.115 12.0991L13.1677 12.0188L13.2996 10.76L13.347 10.7667L13.3945 10.76L13.5369 12.0388L13.6107 12.0991L13.6635 11.9987L13.4103 10.5926Z" fill="#F0C726"/>
<path d="M11.8917 8.33612L11.7704 12.0187L11.5647 12.2531L11.6913 8.46334C11.744 8.41647 11.8495 8.33612 11.8917 8.33612Z" fill="#F0C726"/>
<path d="M12.1395 8.60396L12.034 11.684L11.8284 11.9518L11.9549 8.39639C11.9971 8.44326 12.1184 8.57048 12.1395 8.60396Z" fill="#F0C726"/>
<path d="M12.3663 8.8383L12.2872 11.4094L12.1184 11.617L12.2239 8.6843C12.2608 8.73117 12.3452 8.81151 12.3663 8.8383Z" fill="#F0C726"/>
<path d="M12.6088 8.96551L12.5297 11.155L12.3662 11.3224L12.4453 8.88516C12.4875 8.91195 12.5666 8.96551 12.6088 8.96551Z" fill="#F0C726"/>
<path d="M12.8355 8.96552L12.7775 10.7934L12.6088 11.001L12.672 8.9923C12.7142 8.9923 12.8144 8.9923 12.8355 8.96552Z" fill="#F0C726"/>
<path d="M14.8079 8.33612L14.9292 12.0187L15.1348 12.2531L15.0083 8.46334C14.9555 8.41647 14.85 8.33612 14.8079 8.33612Z" fill="#F0C726"/>
<path d="M14.5599 8.60394L14.6654 11.684L14.8711 11.9116L14.7445 8.38968C14.7076 8.44324 14.5863 8.57046 14.5599 8.60394Z" fill="#F0C726"/>
<path d="M14.3385 8.8383L14.4229 11.4094L14.5864 11.5768L14.4809 8.6843C14.4387 8.73117 14.3596 8.81151 14.3385 8.8383Z" fill="#F0C726"/>
<path d="M14.0906 8.96551L14.1697 11.1148L14.3332 11.2822L14.2541 8.88516C14.2119 8.91195 14.1328 8.96551 14.0906 8.96551Z" fill="#F0C726"/>
<path d="M13.8639 8.96552L13.9219 10.7934L14.0907 11.001L14.0274 8.9923C13.9852 8.9923 13.885 8.9923 13.8639 8.96552Z" fill="#F0C726"/>
<path d="M12.7934 9.95648L12.303 12.1794L12.978 12.3067L13.268 10.6394L12.7934 9.95648Z" fill="white"/>
<path d="M12.978 12.3401L12.2977 12.2062C12.2924 12.2062 12.2819 12.1995 12.2819 12.1928C12.2766 12.1861 12.2766 12.1728 12.2766 12.1661L12.767 9.94309C12.767 9.9297 12.7776 9.923 12.7881 9.923C12.7987 9.923 12.8092 9.923 12.8145 9.9297L13.2891 10.6127L13.0043 12.3134C13.0043 12.3335 12.9938 12.3401 12.978 12.3401ZM12.3346 12.1527L12.9622 12.2732L13.2469 10.6327L12.8092 10.0234L12.3346 12.1527Z" fill="#F0C726"/>
<path d="M13.906 9.95648L14.3964 12.1794L13.7214 12.3067L13.4314 10.6394L13.906 9.95648Z" fill="white"/>
<path d="M13.7214 12.3401C13.7109 12.3401 13.7003 12.3267 13.6951 12.3133L13.405 10.6461L13.8849 9.93638C13.8902 9.92968 13.9007 9.92299 13.9113 9.92968C13.9218 9.92968 13.9271 9.94308 13.9324 9.94977L14.4228 12.1727C14.4228 12.1794 14.4228 12.1928 14.4175 12.1995C14.4123 12.2062 14.407 12.2129 14.4017 12.2129L13.7214 12.3401ZM13.8955 10.0234L13.4525 10.6595L13.7425 12.2732L14.3701 12.1527L13.8955 10.0234Z" fill="#F0C726"/>
<path d="M12.6932 10.9341C12.6879 10.9341 12.6879 10.9341 12.6932 10.9341C12.6773 10.9341 12.6721 10.9207 12.6668 10.914L12.6088 10.7332C12.6035 10.7131 12.6088 10.693 12.6246 10.6863C12.6404 10.6796 12.6563 10.6863 12.6615 10.7064L12.7037 10.8403L12.8619 10.6194C12.8725 10.606 12.8883 10.606 12.8988 10.6194C12.9094 10.6327 12.9094 10.6528 12.8988 10.6662L12.7143 10.9274C12.7037 10.9274 12.6984 10.9341 12.6932 10.9341Z" fill="#F0C726"/>
<path d="M12.92 11.088H12.9147C12.9041 11.0813 12.8936 11.0747 12.8936 11.0613L12.8303 10.3314C12.8303 10.3113 12.8409 10.298 12.8567 10.2913C12.8725 10.2913 12.8831 10.3047 12.8883 10.3247L12.9463 10.9675L13.1098 10.6997C13.1204 10.6863 13.1362 10.6796 13.1467 10.693C13.1573 10.7064 13.1625 10.7265 13.152 10.7399L12.9463 11.0814C12.9358 11.0814 12.9305 11.088 12.92 11.088Z" fill="#F0C726"/>
<path d="M13.1625 11.2688C13.1519 11.2688 13.1414 11.2621 13.1361 11.2487L13.0148 10.8604C13.0095 10.8403 13.0148 10.8202 13.0306 10.8135C13.0464 10.8068 13.0623 10.8135 13.0675 10.8336L13.1888 11.222C13.1941 11.242 13.1888 11.2621 13.173 11.2688C13.173 11.2688 13.1677 11.2688 13.1625 11.2688Z" fill="#F0C726"/>
<path d="M12.978 11.5835H12.9727C12.9621 11.5835 12.9569 11.5701 12.9516 11.5634L12.8672 11.222L12.7987 11.3827C12.7934 11.3961 12.7828 11.4094 12.7723 11.4027C12.7617 11.4027 12.7512 11.3961 12.7459 11.3827L12.6774 11.1684L12.5244 11.3425C12.5139 11.3559 12.4981 11.3559 12.4875 11.3425C12.477 11.3291 12.477 11.309 12.4875 11.2956L12.6668 11.0881C12.6721 11.0814 12.6826 11.0747 12.6932 11.0814C12.7037 11.0814 12.709 11.0881 12.7143 11.1014L12.7776 11.2956L12.8514 11.1215C12.8567 11.1081 12.8725 11.1014 12.8778 11.1014C12.8883 11.1014 12.8989 11.1148 12.8989 11.1282L12.9885 11.4898L13.1203 11.3157C13.1309 11.3023 13.1467 11.3023 13.1573 11.3157C13.1678 11.3291 13.1678 11.3492 13.1573 11.3626L12.9885 11.5768C12.9938 11.5835 12.9885 11.5835 12.978 11.5835Z" fill="#F0C726"/>
<path d="M13.0413 12.0589C13.0307 12.0589 13.0149 12.0455 13.0149 12.0321L12.9622 11.7107L12.8356 11.9183C12.8303 11.925 12.8198 11.9317 12.8092 11.9317C12.7987 11.9317 12.7934 11.9183 12.7881 11.9116L12.7249 11.6572L12.6141 11.838C12.6088 11.8446 12.5983 11.8513 12.5877 11.8513C12.5772 11.8513 12.5719 11.8446 12.5667 11.8313L12.4401 11.4429C12.4348 11.4228 12.4401 11.4027 12.4559 11.396C12.4717 11.3893 12.4875 11.396 12.4928 11.4161L12.6036 11.7509L12.7196 11.5634C12.7249 11.5567 12.7354 11.55 12.7459 11.55C12.7565 11.55 12.7618 11.5634 12.767 11.5701L12.8303 11.8246L12.9622 11.6103C12.9674 11.5969 12.978 11.5969 12.9885 11.5969C12.9991 11.5969 13.0043 11.6103 13.0096 11.6237L13.0729 12.0187C13.0782 12.0388 13.0676 12.0589 13.0518 12.0589C13.0465 12.0589 13.0465 12.0589 13.0413 12.0589Z" fill="#F0C726"/>
<path d="M12.8777 12.3468H12.8724C12.8619 12.3468 12.8566 12.3335 12.8566 12.3268L12.7933 12.0857L12.7036 12.2799C12.6984 12.2933 12.6878 12.3067 12.6773 12.3C12.6667 12.3 12.6562 12.2933 12.6562 12.2799L12.5718 11.9987L12.4769 12.1594C12.4663 12.1728 12.4505 12.1795 12.44 12.1661C12.4294 12.1527 12.4242 12.1326 12.4347 12.1192L12.556 11.9049C12.5613 11.8915 12.5718 11.8915 12.5824 11.8915C12.5929 11.8915 12.5982 11.8982 12.6035 11.9116L12.6878 12.1862L12.7828 11.9853C12.788 11.9719 12.7986 11.9652 12.8091 11.9652C12.8197 11.9652 12.8302 11.9786 12.8302 11.992L12.8988 12.2598L12.9937 12.1594C13.0042 12.146 13.0253 12.1527 13.0306 12.1661C13.0411 12.1795 13.0411 12.1995 13.0253 12.2129L12.8988 12.3468C12.8882 12.3402 12.8829 12.3468 12.8777 12.3468Z" fill="#F0C726"/>
<path d="M14.0115 10.934C14.0063 10.934 13.9957 10.9273 13.9905 10.9206L13.8059 10.6595C13.7953 10.6461 13.7953 10.626 13.8059 10.6126C13.8164 10.5993 13.8323 10.5993 13.8428 10.6126L14.001 10.8336L14.0432 10.6997C14.0485 10.6796 14.0643 10.6729 14.0801 10.6796C14.0959 10.6863 14.1012 10.7064 14.0959 10.7265L14.0379 10.9073C14.0326 10.9206 14.0221 10.9273 14.0115 10.934Z" fill="#F0C726"/>
<path d="M13.7848 11.0881C13.7742 11.0881 13.769 11.0814 13.7637 11.0747L13.5527 10.7332C13.5422 10.7198 13.5475 10.693 13.558 10.6863C13.5686 10.6729 13.5844 10.6796 13.5949 10.693L13.7584 10.9608L13.8111 10.3181C13.8111 10.298 13.827 10.2846 13.8428 10.2846C13.8586 10.2846 13.8692 10.3047 13.8692 10.3248L13.8111 11.0546C13.8111 11.068 13.8006 11.0814 13.7901 11.0814C13.7901 11.0881 13.7848 11.0881 13.7848 11.0881Z" fill="#F0C726"/>
<path d="M13.5369 11.2688C13.5316 11.2688 13.5316 11.2688 13.5263 11.2688C13.5105 11.2621 13.5052 11.242 13.5105 11.222L13.6318 10.8336C13.6371 10.8135 13.6529 10.8068 13.6687 10.8135C13.6845 10.8202 13.6898 10.8403 13.6845 10.8604L13.5633 11.2487C13.558 11.2621 13.5474 11.2688 13.5369 11.2688Z" fill="#F0C726"/>
<path d="M13.7215 11.5835C13.7163 11.5835 13.7057 11.5768 13.7004 11.5701L13.537 11.3559C13.5264 11.3425 13.5264 11.3224 13.537 11.309C13.5475 11.2956 13.5633 11.2956 13.5739 11.309L13.7004 11.4764L13.769 11.1215C13.769 11.1081 13.7795 11.0947 13.7901 11.0947C13.8006 11.0947 13.8112 11.1014 13.8165 11.1081L13.9114 11.2889L13.9747 11.088C13.9799 11.0747 13.9852 11.068 13.9958 11.068C14.0063 11.068 14.0116 11.068 14.0221 11.0747L14.2067 11.2822C14.2172 11.2956 14.2172 11.3157 14.2067 11.3291C14.1961 11.3425 14.1803 11.3425 14.1698 11.3291L14.0116 11.155L13.943 11.3693C13.9377 11.3827 13.9325 11.3894 13.9219 11.3894C13.9114 11.3894 13.9008 11.3827 13.8956 11.376L13.8059 11.2086L13.7374 11.5501C13.7374 11.5634 13.7268 11.5701 13.7163 11.5768C13.7268 11.5835 13.7215 11.5835 13.7215 11.5835Z" fill="#F0C726"/>
<path d="M13.6582 12.0589H13.653C13.6371 12.0522 13.6266 12.0388 13.6319 12.0187L13.6951 11.6237C13.6951 11.6103 13.7057 11.5969 13.7162 11.5969C13.7268 11.5902 13.7373 11.5969 13.7426 11.6103L13.8744 11.8246L13.9377 11.5701C13.943 11.5567 13.9483 11.55 13.9588 11.55C13.9694 11.55 13.9799 11.55 13.9852 11.5634L14.1012 11.7509L14.2119 11.4161C14.2172 11.396 14.233 11.3893 14.2489 11.396C14.2647 11.4027 14.27 11.4228 14.2647 11.4429L14.1381 11.8313C14.1328 11.8446 14.1276 11.8513 14.117 11.8513C14.1065 11.8513 14.0959 11.8446 14.0907 11.838L13.9799 11.6572L13.9166 11.9116C13.9114 11.925 13.9061 11.9317 13.8955 11.9317C13.885 11.9384 13.8744 11.9317 13.8692 11.9183L13.7426 11.7174L13.6899 12.0388C13.6846 12.0455 13.6688 12.0589 13.6582 12.0589Z" fill="#F0C726"/>
<path d="M13.827 12.3468C13.8217 12.3468 13.8164 12.3468 13.8112 12.3401L13.6846 12.2062C13.6741 12.1928 13.6688 12.1727 13.6793 12.1593C13.6899 12.146 13.7057 12.1393 13.7162 12.1527L13.8112 12.2531L13.8797 11.9853C13.885 11.9719 13.8903 11.9652 13.9008 11.9585C13.9114 11.9585 13.9219 11.9652 13.9272 11.9786L14.0221 12.1794L14.1065 11.9049C14.1118 11.8915 14.117 11.8848 14.1276 11.8848C14.1328 11.8848 14.1487 11.8848 14.1539 11.8982L14.2752 12.1125C14.2858 12.1259 14.2805 12.1527 14.27 12.1593C14.2594 12.1727 14.2383 12.166 14.233 12.1527L14.1381 11.992L14.0537 12.2732C14.0485 12.2866 14.0432 12.2933 14.0327 12.2933C14.0221 12.3 14.0116 12.2866 14.0063 12.2732L13.9166 12.079L13.8534 12.32C13.8481 12.3334 13.8428 12.3401 13.8375 12.3401C13.8323 12.3401 13.827 12.3468 13.827 12.3468Z" fill="#F0C726"/>
<path d="M13.3524 8.6843C13.558 8.89186 13.827 8.9923 14.1328 8.97221C14.1117 9.88282 13.9061 10.5122 13.3524 10.9809C12.7987 10.5122 12.593 9.88282 12.5719 8.97221C12.8778 8.9923 13.1467 8.88517 13.3524 8.6843Z" fill="white"/>
<path d="M13.3523 11.001C13.3471 11.001 13.3471 11.001 13.3418 10.9943C12.8145 10.5457 12.5771 9.93638 12.5508 8.9655C12.5982 8.94542 12.6246 8.94542 12.6562 8.94542C12.9199 8.94542 13.1572 8.84498 13.3418 8.6575C13.5738 8.86507 13.8322 8.9655 14.1328 8.93872C14.1275 9.93638 13.8955 10.5457 13.3629 10.9943C13.3576 11.001 13.3523 11.001 13.3523 11.001ZM12.5666 8.99229C12.6088 9.91629 12.8408 10.5122 13.3523 10.9474C13.8639 10.5122 14.0906 9.91629 14.117 8.9655C14.1064 8.99229 14.0801 8.99229 14.0537 8.99229C13.7848 8.99229 13.5369 8.89185 13.3418 8.69768C13.1783 8.89185 12.9305 8.99229 12.6562 8.99229C12.6246 8.99898 12.5982 8.99229 12.5666 8.99229Z" fill="#F0C726"/>
<path d="M13.3523 10.8738C13.7847 10.5055 14.0326 9.88282 14.0537 9.04586C13.7847 9.04586 13.5158 8.97221 13.3523 8.78473C13.1677 8.96551 12.9252 9.04586 12.6351 9.04586C12.672 9.88282 12.9199 10.5055 13.3523 10.8738Z" fill="#F0C726"/>
<path d="M13.3523 10.9073C13.347 10.9073 13.3418 10.9073 13.3365 10.9006C12.8988 10.5256 12.6457 9.88283 12.6088 9.04587C12.6088 9.03917 12.6088 9.02578 12.614 9.01908C12.6193 9.01239 12.6246 9.01239 12.6351 9.01239C12.9357 9.01239 13.1677 8.93204 13.3365 8.75795C13.347 8.75126 13.3576 8.75126 13.3681 8.75795C13.5105 8.91865 13.7584 9.00569 14.0537 9.00569C14.059 9.00569 14.0695 9.01239 14.0695 9.01239C14.0748 9.01908 14.0748 9.02578 14.0748 9.03917C14.0537 9.87613 13.8058 10.5189 13.3629 10.8939C13.3576 10.9073 13.3576 10.9073 13.3523 10.9073ZM12.6562 9.07265C12.6984 9.86943 12.941 10.472 13.347 10.8336C13.7636 10.472 13.9957 9.86943 14.022 9.07265C13.8427 9.07265 13.5422 9.03247 13.347 8.82491C13.1783 8.9923 12.9515 9.07265 12.6562 9.07265Z" fill="#F0C726"/>
<path d="M12.6509 12.1794C12.8197 12.2062 13.0043 12.233 13.1466 12.2062C13.2257 12.2062 13.289 12.387 13.1256 12.4138C12.9832 12.4339 12.7564 12.4138 12.6351 12.387C12.5297 12.3602 12.3029 12.3133 12.1605 12.2598C12.0181 12.1794 12.1183 12.0254 12.2027 12.0455C12.324 12.0991 12.4875 12.146 12.6509 12.1794Z" fill="white"/>
<path d="M12.9833 12.454C12.8514 12.454 12.709 12.4339 12.6247 12.4138C12.5245 12.3937 12.2977 12.3402 12.1501 12.2866C12.0551 12.233 12.0551 12.1527 12.0604 12.1259C12.071 12.0589 12.1237 12.0054 12.1817 12.0054C12.2924 12.0455 12.4612 12.1058 12.6563 12.1393C12.7829 12.1594 12.9938 12.1928 13.1467 12.1661C13.2048 12.1661 13.2522 12.2263 13.2575 12.2933C13.2628 12.3535 13.2311 12.4205 13.1309 12.4406C13.0835 12.454 13.036 12.454 12.9833 12.454ZM12.187 12.079C12.1501 12.079 12.1184 12.1125 12.1131 12.146C12.1079 12.1862 12.1448 12.2129 12.1659 12.2263C12.3083 12.2732 12.535 12.3268 12.6352 12.3535C12.746 12.3803 12.9727 12.4071 13.1204 12.3803C13.1731 12.3736 13.1995 12.3469 13.1995 12.3067C13.1995 12.2732 13.1731 12.2397 13.1467 12.2397C13.0044 12.2665 12.7776 12.233 12.6458 12.2129C12.4454 12.1795 12.2766 12.1125 12.187 12.079Z" fill="#F0C726"/>
<path d="M14.0484 12.1794C13.8797 12.2062 13.6951 12.233 13.558 12.2062C13.4736 12.2062 13.4156 12.387 13.5738 12.4138C13.7162 12.4339 13.9429 12.4138 14.0642 12.387C14.1697 12.3602 14.3965 12.3133 14.5388 12.2598C14.6812 12.1794 14.581 12.0254 14.4966 12.0455C14.3754 12.0991 14.2119 12.146 14.0484 12.1794Z" fill="white"/>
<path d="M13.7162 12.454C13.6634 12.454 13.616 12.454 13.5738 12.4473C13.4736 12.4272 13.4419 12.3602 13.4472 12.3C13.4525 12.2263 13.4999 12.166 13.558 12.166C13.7162 12.1928 13.9165 12.1593 14.0484 12.1393C14.2435 12.1058 14.4122 12.0455 14.4966 12.012C14.5757 11.9987 14.6337 12.0589 14.6443 12.1259C14.6496 12.1593 14.6496 12.233 14.5599 12.2866C14.407 12.3401 14.1802 12.3937 14.08 12.4138C13.9904 12.4406 13.848 12.454 13.7162 12.454ZM13.5527 12.2397C13.5263 12.2397 13.4999 12.2732 13.4999 12.3067C13.4999 12.3401 13.5263 12.3669 13.579 12.3803C13.7214 12.4004 13.9535 12.3803 14.0642 12.3535C14.1644 12.3334 14.3912 12.2799 14.5388 12.2263C14.5599 12.2129 14.5968 12.1861 14.5915 12.146C14.5863 12.1125 14.5546 12.079 14.523 12.079C14.4281 12.1125 14.2593 12.1794 14.0589 12.2129C13.9113 12.233 13.7056 12.2665 13.5527 12.2397Z" fill="#F0C726"/>
<path d="M12.1394 12.0723C12.0129 12.0455 11.9548 12.2263 11.997 12.3334C12.0129 12.2799 12.1025 12.2799 12.1183 12.233C12.1394 12.146 12.0972 12.146 12.1394 12.0723Z" fill="white"/>
<path d="M11.9971 12.3669C11.9866 12.3669 11.976 12.3602 11.9707 12.3469C11.9444 12.2866 11.9496 12.1995 11.9813 12.1326C12.0129 12.0723 12.0604 12.0388 12.1131 12.0388C12.1237 12.0388 12.1448 12.0522 12.15 12.0589C12.1553 12.0723 12.1659 12.0857 12.1606 12.0924C12.1448 12.1259 12.1448 12.1326 12.15 12.146C12.15 12.1661 12.1553 12.1928 12.1448 12.2397C12.1289 12.2799 12.0973 12.3 12.0657 12.3134C12.0446 12.3201 12.0235 12.3335 12.0182 12.3469C12.0129 12.3602 12.0077 12.3736 11.9971 12.3669ZM12.092 12.1125C12.0551 12.1259 12.034 12.1527 12.0287 12.1661C12.0129 12.1928 12.0077 12.233 12.0077 12.2665C12.0182 12.2598 12.034 12.2531 12.0446 12.2464C12.0657 12.2397 12.0868 12.2263 12.092 12.2129C12.0973 12.1862 12.0973 12.1728 12.0973 12.1594C12.092 12.146 12.092 12.1326 12.092 12.1125Z" fill="#F0C726"/>
<path d="M12.6298 12.5544C12.6298 12.454 12.7089 12.4674 12.7089 12.3602C12.7089 12.3067 12.6878 12.2263 12.6456 12.2263C12.6035 12.2263 12.5665 12.2799 12.5665 12.3268C12.5507 12.4339 12.6298 12.454 12.6298 12.5544Z" fill="white"/>
<path d="M12.6299 12.5879C12.6141 12.5879 12.6035 12.5745 12.6035 12.5544C12.6035 12.5209 12.593 12.4941 12.5719 12.4673C12.5508 12.4339 12.5244 12.3937 12.5402 12.32C12.5402 12.2598 12.593 12.1861 12.651 12.1861C12.7142 12.1861 12.7406 12.2866 12.7406 12.3535C12.7406 12.4205 12.709 12.454 12.6879 12.474C12.6668 12.4941 12.6562 12.5075 12.6562 12.5477C12.6615 12.5745 12.6457 12.5879 12.6299 12.5879ZM12.651 12.2665C12.6246 12.2665 12.5982 12.3 12.5982 12.3334C12.593 12.3803 12.6035 12.4004 12.6193 12.4272C12.6246 12.4339 12.6299 12.4473 12.6351 12.454C12.6404 12.4473 12.651 12.4339 12.6562 12.4272C12.6773 12.4071 12.6879 12.3937 12.6879 12.3535C12.6879 12.3133 12.6668 12.2665 12.651 12.2665Z" fill="#F0C726"/>
<path d="M13.2205 12.2598C13.3418 12.2598 13.3313 12.4674 13.2733 12.5678C13.2733 12.4941 13.1678 12.4674 13.1678 12.4138C13.1625 12.3334 13.2575 12.3334 13.2205 12.2598Z" fill="white"/>
<path d="M13.268 12.6013C13.2627 12.6013 13.2627 12.6013 13.2574 12.6013C13.2469 12.5946 13.2363 12.5812 13.2363 12.5678C13.2363 12.5477 13.2152 12.5209 13.1889 12.5008C13.1625 12.474 13.1309 12.454 13.1309 12.4071C13.1309 12.3535 13.1572 12.3267 13.1783 12.3066C13.173 12.2933 13.1783 12.2665 13.1836 12.2531C13.1889 12.2397 13.2047 12.2196 13.2152 12.2196C13.2627 12.2196 13.2996 12.2464 13.3207 12.3C13.3523 12.387 13.3312 12.5142 13.2891 12.5879C13.2838 12.5946 13.2785 12.6013 13.268 12.6013ZM13.2574 12.3C13.2521 12.3267 13.2363 12.3468 13.2205 12.3602C13.2047 12.3803 13.1941 12.387 13.1941 12.4071C13.1941 12.4138 13.2152 12.4339 13.2258 12.4406C13.2416 12.454 13.2574 12.4673 13.2732 12.4874C13.2891 12.4339 13.2943 12.3669 13.2785 12.3267C13.268 12.32 13.2627 12.3066 13.2574 12.3Z" fill="#F0C726"/>
<path d="M14.5599 12.0723C14.6865 12.0455 14.7445 12.2263 14.7023 12.3334C14.6865 12.2799 14.5969 12.2799 14.581 12.233C14.5599 12.146 14.6021 12.146 14.5599 12.0723Z" fill="white"/>
<path d="M14.7076 12.3669C14.697 12.3602 14.6865 12.3602 14.6812 12.3468C14.6759 12.3334 14.6548 12.3201 14.6337 12.3134C14.6021 12.3 14.5705 12.2799 14.5599 12.2464C14.5494 12.1995 14.5494 12.1727 14.5546 12.1527C14.5546 12.1326 14.5599 12.1259 14.5441 12.0991C14.5388 12.0924 14.5388 12.079 14.5388 12.0656C14.5441 12.0522 14.5494 12.0455 14.5599 12.0455C14.6496 12.0388 14.6917 12.079 14.7234 12.1393C14.755 12.2062 14.7603 12.2933 14.7339 12.3535C14.7287 12.3602 14.7181 12.3669 14.7076 12.3669ZM14.6074 12.1058C14.6126 12.1259 14.6126 12.1393 14.6074 12.1594C14.6074 12.1727 14.6021 12.1861 14.6126 12.2129C14.6179 12.2263 14.639 12.233 14.6601 12.2464C14.6707 12.2531 14.6865 12.2598 14.697 12.2665C14.697 12.233 14.6917 12.1928 14.6759 12.166C14.6601 12.146 14.639 12.1125 14.6074 12.1058Z" fill="#F0C726"/>
<path d="M14.0696 12.5544C14.0696 12.454 13.9905 12.4674 13.9905 12.3602C13.9905 12.3067 14.0116 12.2263 14.0538 12.2263C14.0959 12.2263 14.1329 12.2799 14.1329 12.3268C14.1487 12.4339 14.0696 12.454 14.0696 12.5544Z" fill="white"/>
<path d="M14.0695 12.5879C14.0537 12.5879 14.0431 12.5745 14.0431 12.5544C14.0431 12.5209 14.0326 12.5075 14.0115 12.4808C13.9904 12.4607 13.9587 12.4272 13.9587 12.3602C13.9587 12.2933 13.9851 12.1928 14.0484 12.1928C14.1064 12.1928 14.1591 12.2598 14.1591 12.3335C14.1697 12.3937 14.1433 12.4406 14.1275 12.4741C14.1117 12.5008 14.0958 12.5209 14.0958 12.5611C14.0958 12.5745 14.0853 12.5879 14.0695 12.5879ZM14.0484 12.2665C14.0326 12.2665 14.0115 12.3201 14.0115 12.3602C14.0115 12.3937 14.022 12.4071 14.0431 12.4339C14.0484 12.4406 14.0589 12.4473 14.0642 12.4607C14.0695 12.454 14.0748 12.4406 14.08 12.4339C14.0958 12.4071 14.1117 12.387 14.1011 12.3468C14.1064 12.3 14.0748 12.2665 14.0484 12.2665Z" fill="#F0C726"/>
<path d="M13.4842 12.2598C13.3629 12.2598 13.3735 12.4674 13.4315 12.5678C13.4315 12.4941 13.5369 12.4674 13.5369 12.4138C13.5369 12.3334 13.442 12.3334 13.4842 12.2598Z" fill="white"/>
<path d="M13.4314 12.6013C13.4208 12.6013 13.4156 12.5946 13.4103 12.5879C13.3681 12.5142 13.3417 12.387 13.3787 12.3C13.3998 12.2464 13.4367 12.2196 13.4841 12.2196C13.4947 12.2196 13.5052 12.2263 13.5105 12.2397C13.5158 12.2531 13.5158 12.2665 13.5105 12.2732C13.5421 12.3267 13.5685 12.3535 13.5685 12.4071C13.5685 12.4473 13.5421 12.474 13.5105 12.5008C13.4894 12.5209 13.463 12.541 13.463 12.5678C13.463 12.5812 13.4578 12.5946 13.4419 12.6013C13.4367 12.6013 13.4367 12.6013 13.4314 12.6013ZM13.4472 12.3C13.4367 12.3066 13.4314 12.3133 13.4261 12.3267C13.4103 12.3669 13.4156 12.4272 13.4314 12.4874C13.4472 12.4673 13.463 12.454 13.4789 12.4406C13.4894 12.4272 13.5105 12.4138 13.5105 12.4071C13.5105 12.387 13.5 12.3803 13.4841 12.3602C13.4683 12.3535 13.4525 12.3334 13.4472 12.3Z" fill="#F0C726"/>
<path d="M12.1816 12.1259C12.2238 12.1259 12.2871 12.146 12.3029 12.1795L12.1816 12.1259Z" fill="white"/>
<path d="M12.3029 12.1995H12.2976L12.1763 12.146C12.1658 12.1393 12.1605 12.1326 12.1658 12.1192C12.1658 12.1058 12.1763 12.0991 12.1869 12.0991C12.229 12.0991 12.2976 12.1192 12.324 12.1594C12.3292 12.166 12.3292 12.1794 12.324 12.1861C12.3134 12.1995 12.3081 12.1995 12.3029 12.1995Z" fill="#F0C726"/>
<path d="M12.3821 12.2062C12.4032 12.2062 12.4875 12.2263 12.5245 12.2598L12.3821 12.2062Z" fill="white"/>
<path d="M12.5297 12.2799C12.5244 12.2799 12.5244 12.2799 12.5297 12.2799L12.382 12.2263C12.3715 12.2196 12.3662 12.2129 12.3662 12.1995C12.3715 12.1527 12.4822 12.1928 12.5402 12.233C12.5508 12.2397 12.5508 12.2531 12.5508 12.2665C12.5402 12.2732 12.535 12.2799 12.5297 12.2799Z" fill="#F0C726"/>
<path d="M13.1255 12.3067C13.0833 12.3067 13.0042 12.3067 12.9832 12.3335L13.1255 12.3067Z" fill="white"/>
<path d="M12.978 12.3535C12.9727 12.3535 12.9621 12.3468 12.9621 12.3401C12.9569 12.3334 12.9621 12.32 12.9674 12.3133C12.9885 12.2866 13.0465 12.2866 13.1256 12.2866C13.1362 12.2866 13.1467 12.2933 13.1467 12.3066C13.1467 12.32 13.1414 12.3334 13.1309 12.3334L12.978 12.3535C12.9832 12.3535 12.9832 12.3535 12.978 12.3535Z" fill="#F0C726"/>
<path d="M12.8989 12.3066C12.8778 12.2799 12.7934 12.2799 12.7565 12.3066H12.8989Z" fill="white"/>
<path d="M12.8988 12.3334H12.7564C12.7459 12.3334 12.7406 12.3268 12.7354 12.3134C12.7354 12.3 12.7354 12.2933 12.7459 12.2866C12.7828 12.2598 12.8619 12.2263 12.9146 12.2933C12.9199 12.3 12.9199 12.3134 12.9199 12.3201C12.9146 12.3268 12.9041 12.3334 12.8988 12.3334Z" fill="#F0C726"/>
<path d="M14.523 12.1259C14.4808 12.1259 14.4228 12.146 14.4017 12.1795L14.523 12.1259Z" fill="white"/>
<path d="M14.3965 12.1995C14.3912 12.1995 14.3859 12.1928 14.3807 12.1861C14.3754 12.1794 14.3754 12.166 14.3859 12.1594C14.4123 12.1259 14.4809 12.0991 14.523 12.0991C14.5336 12.0991 14.5389 12.1058 14.5441 12.1192C14.5441 12.1326 14.5389 12.1393 14.5336 12.146L14.4123 12.1995C14.4018 12.1995 14.4018 12.1995 14.3965 12.1995Z" fill="#F0C726"/>
<path d="M14.3174 12.2062C14.2963 12.2062 14.212 12.2263 14.175 12.2598L14.3174 12.2062Z" fill="white"/>
<path d="M14.175 12.2799C14.1697 12.2799 14.1592 12.2732 14.1592 12.2665C14.1539 12.2531 14.1592 12.2397 14.1697 12.233C14.233 12.1928 14.3385 12.1594 14.3437 12.1995C14.3437 12.2129 14.3385 12.2196 14.3279 12.2263L14.175 12.2799Z" fill="#F0C726"/>
<path d="M13.5739 12.3067C13.616 12.3067 13.6951 12.3067 13.7162 12.3335L13.5739 12.3067Z" fill="white"/>
<path d="M13.7215 12.3535L13.5738 12.3267C13.5633 12.3267 13.558 12.3134 13.558 12.3C13.558 12.2866 13.5685 12.2799 13.5791 12.2799C13.6582 12.2799 13.7109 12.2866 13.7373 12.3067C13.7426 12.3134 13.7478 12.3267 13.7426 12.3334C13.7373 12.3535 13.7267 12.3535 13.7215 12.3535Z" fill="#F0C726"/>
<path d="M13.8005 12.3066C13.8216 12.2799 13.906 12.2799 13.9429 12.3066H13.8005Z" fill="white"/>
<path d="M13.9482 12.3334H13.8058C13.8006 12.3334 13.79 12.3267 13.79 12.32C13.7848 12.3134 13.79 12.3 13.7953 12.2933C13.848 12.233 13.9271 12.2665 13.964 12.2866C13.9693 12.2933 13.9746 12.3 13.9746 12.3134C13.964 12.3267 13.9535 12.3334 13.9482 12.3334Z" fill="#F0C726"/>
<path d="M13.6372 7.16436C13.595 7.03045 13.5211 6.93002 13.4209 6.90323C13.3682 6.88315 13.3155 6.88984 13.2575 6.88984C13.1942 6.86976 13.1415 6.9501 13.1204 7.00367C13.1836 7.05723 13.1995 7.1175 13.2311 7.13758C13.2944 7.16437 13.326 7.13758 13.3893 7.06393C13.4526 6.98358 13.6002 7.00367 13.6372 7.16436Z" fill="#F0C726"/>
<path d="M13.2785 7.16439C13.2626 7.16439 13.2468 7.1577 13.231 7.151C13.2099 7.1443 13.1994 7.12422 13.1835 7.09743C13.1677 7.07735 13.1466 7.04387 13.115 7.01709C13.1255 6.96352 13.1677 6.86978 13.2363 6.86978L13.289 6.87648C13.3523 6.86978 13.3892 6.87648 13.4261 6.88987C13.5105 6.90996 13.5843 6.9903 13.6318 7.11083C13.5527 7.03717 13.4472 7.0037 13.3945 7.07065C13.3523 7.13091 13.3207 7.16439 13.2785 7.16439ZM13.2574 6.90995C13.1994 6.90995 13.1625 6.96352 13.1361 7.01709C13.1677 7.03048 13.1888 7.05726 13.2046 7.08404C13.2205 7.10413 13.2257 7.11752 13.2416 7.12422C13.2943 7.1443 13.3207 7.13091 13.3839 7.05056C13.4314 6.9903 13.521 6.9903 13.5791 7.03717C13.5316 6.97691 13.4789 6.93674 13.4208 6.92335C13.3892 6.90996 13.3523 6.90995 13.3207 6.90995H13.2574Z" fill="#F0C726"/>
<path d="M13.2469 6.9635C13.2047 6.9635 13.2047 7.04385 13.2469 7.04385C13.289 7.04385 13.289 6.9635 13.2469 6.9635Z" fill="white"/>
<path d="M13.2469 7.07732C13.2152 7.07732 13.1888 7.04384 13.1888 7.00367C13.1888 6.91662 13.3049 6.91662 13.3049 7.00367C13.3049 7.04384 13.2785 7.07732 13.2469 7.07732Z" fill="white"/>
<path d="M13.6002 8.95882V10.5993C13.5264 10.6997 13.442 10.7934 13.3471 10.8738C13.2522 10.7934 13.1678 10.7064 13.094 10.5993V8.95212C13.1889 8.91195 13.2733 8.85169 13.3471 8.78473C13.4209 8.85838 13.5053 8.91864 13.6002 8.95882Z" fill="white"/>
</svg>
