<svg width="27" height="20" viewBox="0 0 27 20" fill="none" xmlns="http://www.w3.org/2000/svg">
<path d="M0 0H27V20H0V0Z" fill="#003399"/>
<path d="M13.5 9.10825L13.2 10.0959L13.7 10.1947L13.5 9.10825Z" fill="#FFCC00"/>
<path d="M13.5 9.10825L13.8 10.0959L13.3 10.1947L13.5 9.10825Z" fill="#FFCC00"/>
<path d="M14.4511 9.7907L13.4073 9.81411L13.4667 10.3143L14.4511 9.7907Z" fill="#FFCC00"/>
<path d="M14.4511 9.7907L13.5927 10.3777L13.3431 9.93856L14.4511 9.7907Z" fill="#FFCC00"/>
<path d="M14.0878 10.8949L13.7427 9.92174L13.2794 10.1321L14.0878 10.8949Z" fill="#FFCC00"/>
<path d="M14.0878 10.8949L13.2573 10.2701L13.603 9.89989L14.0878 10.8949Z" fill="#FFCC00"/>
<path d="M12.5489 9.7907L13.5927 9.81411L13.5333 10.3143L12.5489 9.7907Z" fill="#FFCC00"/>
<path d="M12.5489 9.7907L13.4073 10.3777L13.6569 9.93856L12.5489 9.7907Z" fill="#FFCC00"/>
<path d="M12.9122 10.8949L13.2573 9.92174L13.7206 10.1321L12.9122 10.8949Z" fill="#FFCC00"/>
<path d="M12.9122 10.8949L13.7427 10.2701L13.397 9.89989L12.9122 10.8949Z" fill="#FFCC00"/>
<path d="M13.5 9.10825L13.2 10.0959L13.7 10.1947L13.5 9.10825Z" fill="#FFCC00"/>
<path d="M13.5 9.10825L13.8 10.0959L13.3 10.1947L13.5 9.10825Z" fill="#FFCC00"/>
<path d="M14.4511 9.7907L13.4073 9.81411L13.4667 10.3143L14.4511 9.7907Z" fill="#FFCC00"/>
<path d="M14.4511 9.7907L13.5927 10.3777L13.3431 9.93856L14.4511 9.7907Z" fill="#FFCC00"/>
<path d="M14.0878 10.8949L13.7427 9.92174L13.2794 10.1321L14.0878 10.8949Z" fill="#FFCC00"/>
<path d="M14.0878 10.8949L13.2573 10.2701L13.603 9.89989L14.0878 10.8949Z" fill="#FFCC00"/>
<path d="M12.5489 9.7907L13.5927 9.81411L13.5333 10.3143L12.5489 9.7907Z" fill="#FFCC00"/>
<path d="M12.5489 9.7907L13.4073 10.3777L13.6569 9.93856L12.5489 9.7907Z" fill="#FFCC00"/>
<path d="M12.9122 10.8949L13.2573 9.92174L13.7206 10.1321L12.9122 10.8949Z" fill="#FFCC00"/>
<path d="M12.9122 10.8949L13.7427 10.2701L13.397 9.89989L12.9122 10.8949Z" fill="#FFCC00"/>
<path d="M13.5 9.10825L13.2 10.0959L13.7 10.1947L13.5 9.10825Z" fill="#FFCC00"/>
<path d="M13.5 9.10825L13.8 10.0959L13.3 10.1947L13.5 9.10825Z" fill="#FFCC00"/>
<path d="M14.4511 9.7907L13.4073 9.81411L13.4667 10.3143L14.4511 9.7907Z" fill="#FFCC00"/>
<path d="M14.4511 9.7907L13.5927 10.3777L13.3431 9.93856L14.4511 9.7907Z" fill="#FFCC00"/>
<path d="M14.0878 10.8949L13.7427 9.92174L13.2794 10.1321L14.0878 10.8949Z" fill="#FFCC00"/>
<path d="M14.0878 10.8949L13.2573 10.2701L13.603 9.89989L14.0878 10.8949Z" fill="#FFCC00"/>
<path d="M12.5489 9.7907L13.5927 9.81411L13.5333 10.3143L12.5489 9.7907Z" fill="#FFCC00"/>
<path d="M12.5489 9.7907L13.4073 10.3777L13.6569 9.93856L12.5489 9.7907Z" fill="#FFCC00"/>
<path d="M12.9122 10.8949L13.2573 9.92174L13.7206 10.1321L12.9122 10.8949Z" fill="#FFCC00"/>
<path d="M12.9122 10.8949L13.7427 10.2701L13.397 9.89989L12.9122 10.8949Z" fill="#FFCC00"/>
<path d="M9.98582 5.80768L10.8163 5.18281L10.4706 4.81264L9.98582 5.80768Z" fill="#FFCC00"/>
<path d="M9.98582 5.80768L10.3309 4.83449L10.7942 5.04485L9.98582 5.80768Z" fill="#FFCC00"/>
<path d="M9.62255 4.70345L10.4809 5.29044L10.7305 4.85131L9.62255 4.70345Z" fill="#FFCC00"/>
<path d="M9.62255 4.70345L10.6663 4.72686L10.6069 5.22703L9.62255 4.70345Z" fill="#FFCC00"/>
<path d="M10.5736 4.021L10.2736 5.00865L10.7736 5.10742L10.5736 4.021Z" fill="#FFCC00"/>
<path d="M10.5736 4.021L10.8736 5.00865L10.3736 5.10742L10.5736 4.021Z" fill="#FFCC00"/>
<path d="M11.1614 5.80768L10.3309 5.18281L10.6766 4.81264L11.1614 5.80768Z" fill="#FFCC00"/>
<path d="M11.1614 5.80768L10.8163 4.83449L10.353 5.04485L11.1614 5.80768Z" fill="#FFCC00"/>
<path d="M11.5247 4.70345L10.6663 5.29044L10.4167 4.85131L11.5247 4.70345Z" fill="#FFCC00"/>
<path d="M11.5247 4.70345L10.4809 4.72686L10.5403 5.22703L11.5247 4.70345Z" fill="#FFCC00"/>
<path d="M8.93694 8.00467L8.59186 7.03148L8.12858 7.24184L8.93694 8.00467Z" fill="#FFCC00"/>
<path d="M8.93694 8.00467L8.10645 7.3798L8.45218 7.00963L8.93694 8.00467Z" fill="#FFCC00"/>
<path d="M7.76137 8.00467L8.59186 7.3798L8.24613 7.00963L7.76137 8.00467Z" fill="#FFCC00"/>
<path d="M7.76137 8.00467L8.10645 7.03148L8.56974 7.24184L7.76137 8.00467Z" fill="#FFCC00"/>
<path d="M7.3981 6.90044L8.25645 7.48743L8.50607 7.0483L7.3981 6.90044Z" fill="#FFCC00"/>
<path d="M7.3981 6.90044L8.44186 6.92385L8.38246 7.42402L7.3981 6.90044Z" fill="#FFCC00"/>
<path d="M9.30021 6.90044L8.44186 7.48743L8.19225 7.0483L9.30021 6.90044Z" fill="#FFCC00"/>
<path d="M9.30021 6.90044L8.25645 6.92385L8.31586 7.42402L9.30021 6.90044Z" fill="#FFCC00"/>
<path d="M8.34916 6.21799L8.64916 7.20564L8.14916 7.3044L8.34916 6.21799Z" fill="#FFCC00"/>
<path d="M8.34916 6.21799L8.04916 7.20564L8.54916 7.3044L8.34916 6.21799Z" fill="#FFCC00"/>
<path d="M9.30132 12.8406L8.25756 12.864L8.31696 13.3642L9.30132 12.8406Z" fill="#FFCC00"/>
<path d="M9.30132 12.8406L8.44297 13.4276L8.19336 12.9884L9.30132 12.8406Z" fill="#FFCC00"/>
<path d="M8.93805 13.9448L8.59297 12.9716L8.12968 13.182L8.93805 13.9448Z" fill="#FFCC00"/>
<path d="M8.93805 13.9448L8.10756 13.3199L8.45329 12.9498L8.93805 13.9448Z" fill="#FFCC00"/>
<path d="M7.76248 13.9448L8.59297 13.3199L8.24724 12.9498L7.76248 13.9448Z" fill="#FFCC00"/>
<path d="M7.76248 13.9448L8.10756 12.9716L8.57085 13.182L7.76248 13.9448Z" fill="#FFCC00"/>
<path d="M8.35027 12.1581L8.65027 13.1458L8.15027 13.2445L8.35027 12.1581Z" fill="#FFCC00"/>
<path d="M8.35027 12.1581L8.05027 13.1458L8.55027 13.2445L8.35027 12.1581Z" fill="#FFCC00"/>
<path d="M7.39921 12.8406L8.44297 12.864L8.38357 13.3642L7.39921 12.8406Z" fill="#FFCC00"/>
<path d="M7.39921 12.8406L8.25756 13.4276L8.50718 12.9884L7.39921 12.8406Z" fill="#FFCC00"/>
<path d="M11.4717 14.8285L10.4279 14.8519L10.4873 15.3521L11.4717 14.8285Z" fill="#FFCC00"/>
<path d="M11.4717 14.8285L10.6133 15.4155L10.3637 14.9764L11.4717 14.8285Z" fill="#FFCC00"/>
<path d="M11.1084 15.9327L10.7633 14.9595L10.3 15.1699L11.1084 15.9327Z" fill="#FFCC00"/>
<path d="M11.1084 15.9327L10.2779 15.3079L10.6236 14.9377L11.1084 15.9327Z" fill="#FFCC00"/>
<path d="M9.93283 15.9327L10.7633 15.3079L10.4176 14.9377L9.93283 15.9327Z" fill="#FFCC00"/>
<path d="M9.93283 15.9327L10.2779 14.9595L10.7412 15.1699L9.93283 15.9327Z" fill="#FFCC00"/>
<path d="M10.5206 14.146L10.8206 15.1337L10.3206 15.2325L10.5206 14.146Z" fill="#FFCC00"/>
<path d="M10.5206 14.146L10.2206 15.1337L10.7206 15.2325L10.5206 14.146Z" fill="#FFCC00"/>
<path d="M9.56956 14.8285L10.6133 14.8519L10.5539 15.3521L9.56956 14.8285Z" fill="#FFCC00"/>
<path d="M9.56956 14.8285L10.4279 15.4155L10.6775 14.9764L9.56956 14.8285Z" fill="#FFCC00"/>
<path d="M13.5 9.10825L13.8 10.0959L13.3 10.1947L13.5 9.10825Z" fill="#FFCC00"/>
<path d="M13.5 9.10825L13.2 10.0959L13.7 10.1947L13.5 9.10825Z" fill="#FFCC00"/>
<path d="M12.5489 9.7907L13.5927 9.81411L13.5333 10.3143L12.5489 9.7907Z" fill="#FFCC00"/>
<path d="M12.5489 9.7907L13.4073 10.3777L13.6569 9.93856L12.5489 9.7907Z" fill="#FFCC00"/>
<path d="M12.9122 10.8949L13.2573 9.92174L13.7206 10.1321L12.9122 10.8949Z" fill="#FFCC00"/>
<path d="M12.9122 10.8949L13.7427 10.2701L13.397 9.89989L12.9122 10.8949Z" fill="#FFCC00"/>
<path d="M14.4511 9.7907L13.4073 9.81411L13.4667 10.3143L14.4511 9.7907Z" fill="#FFCC00"/>
<path d="M14.4511 9.7907L13.5927 10.3777L13.3431 9.93856L14.4511 9.7907Z" fill="#FFCC00"/>
<path d="M14.0878 10.8949L13.7427 9.92174L13.2794 10.1321L14.0878 10.8949Z" fill="#FFCC00"/>
<path d="M14.0878 10.8949L13.2573 10.2701L13.603 9.89989L14.0878 10.8949Z" fill="#FFCC00"/>
<path d="M17.0142 5.80768L16.1837 5.18281L16.5294 4.81264L17.0142 5.80768Z" fill="#FFCC00"/>
<path d="M17.0142 5.80768L16.6691 4.83449L16.2058 5.04485L17.0142 5.80768Z" fill="#FFCC00"/>
<path d="M17.3774 4.70345L16.5191 5.29044L16.2695 4.85131L17.3774 4.70345Z" fill="#FFCC00"/>
<path d="M17.3774 4.70345L16.3337 4.72686L16.3931 5.22703L17.3774 4.70345Z" fill="#FFCC00"/>
<path d="M16.4264 4.021L16.7264 5.00865L16.2264 5.10742L16.4264 4.021Z" fill="#FFCC00"/>
<path d="M16.4264 4.021L16.1264 5.00865L16.6264 5.10742L16.4264 4.021Z" fill="#FFCC00"/>
<path d="M15.8386 5.80768L16.6691 5.18281L16.3234 4.81264L15.8386 5.80768Z" fill="#FFCC00"/>
<path d="M15.8386 5.80768L16.1837 4.83449L16.647 5.04485L15.8386 5.80768Z" fill="#FFCC00"/>
<path d="M15.4753 4.70345L16.3337 5.29044L16.5833 4.85131L15.4753 4.70345Z" fill="#FFCC00"/>
<path d="M15.4753 4.70345L16.5191 4.72686L16.4597 5.22703L15.4753 4.70345Z" fill="#FFCC00"/>
<path d="M18.0631 8.00467L18.4081 7.03148L18.8714 7.24184L18.0631 8.00467Z" fill="#FFCC00"/>
<path d="M18.0631 8.00467L18.8935 7.3798L18.5478 7.00963L18.0631 8.00467Z" fill="#FFCC00"/>
<path d="M19.2386 8.00467L18.4081 7.3798L18.7539 7.00963L19.2386 8.00467Z" fill="#FFCC00"/>
<path d="M19.2386 8.00467L18.8935 7.03148L18.4303 7.24184L19.2386 8.00467Z" fill="#FFCC00"/>
<path d="M19.6019 6.90044L18.7435 7.48743L18.4939 7.0483L19.6019 6.90044Z" fill="#FFCC00"/>
<path d="M19.6019 6.90044L18.5581 6.92385L18.6175 7.42402L19.6019 6.90044Z" fill="#FFCC00"/>
<path d="M17.6998 6.90044L18.5581 7.48743L18.8077 7.0483L17.6998 6.90044Z" fill="#FFCC00"/>
<path d="M17.6998 6.90044L18.7435 6.92385L18.6841 7.42402L17.6998 6.90044Z" fill="#FFCC00"/>
<path d="M18.6508 6.21799L18.3508 7.20564L18.8508 7.3044L18.6508 6.21799Z" fill="#FFCC00"/>
<path d="M18.6508 6.21799L18.9508 7.20564L18.4508 7.3044L18.6508 6.21799Z" fill="#FFCC00"/>
<path d="M17.6987 12.8406L18.7424 12.864L18.683 13.3642L17.6987 12.8406Z" fill="#FFCC00"/>
<path d="M17.6987 12.8406L18.557 13.4276L18.8066 12.9884L17.6987 12.8406Z" fill="#FFCC00"/>
<path d="M18.0619 13.9448L18.407 12.9716L18.8703 13.182L18.0619 13.9448Z" fill="#FFCC00"/>
<path d="M18.0619 13.9448L18.8924 13.3199L18.5467 12.9498L18.0619 13.9448Z" fill="#FFCC00"/>
<path d="M19.2375 13.9448L18.407 13.3199L18.7528 12.9498L19.2375 13.9448Z" fill="#FFCC00"/>
<path d="M19.2375 13.9448L18.8924 12.9716L18.4292 13.182L19.2375 13.9448Z" fill="#FFCC00"/>
<path d="M18.6497 12.1581L18.3497 13.1458L18.8497 13.2445L18.6497 12.1581Z" fill="#FFCC00"/>
<path d="M18.6497 12.1581L18.9497 13.1458L18.4497 13.2445L18.6497 12.1581Z" fill="#FFCC00"/>
<path d="M19.6008 12.8406L18.557 12.864L18.6164 13.3642L19.6008 12.8406Z" fill="#FFCC00"/>
<path d="M19.6008 12.8406L18.7424 13.4276L18.4928 12.9884L19.6008 12.8406Z" fill="#FFCC00"/>
<path d="M15.5283 14.8285L16.5721 14.8519L16.5127 15.3521L15.5283 14.8285Z" fill="#FFCC00"/>
<path d="M15.5283 14.8285L16.3867 15.4155L16.6363 14.9764L15.5283 14.8285Z" fill="#FFCC00"/>
<path d="M15.8916 15.9327L16.2367 14.9595L16.7 15.1699L15.8916 15.9327Z" fill="#FFCC00"/>
<path d="M15.8916 15.9327L16.7221 15.3079L16.3764 14.9377L15.8916 15.9327Z" fill="#FFCC00"/>
<path d="M17.0672 15.9327L16.2367 15.3079L16.5824 14.9377L17.0672 15.9327Z" fill="#FFCC00"/>
<path d="M17.0672 15.9327L16.7221 14.9595L16.2588 15.1699L17.0672 15.9327Z" fill="#FFCC00"/>
<path d="M16.4794 14.146L16.1794 15.1337L16.6794 15.2325L16.4794 14.146Z" fill="#FFCC00"/>
<path d="M16.4794 14.146L16.7794 15.1337L16.2794 15.2325L16.4794 14.146Z" fill="#FFCC00"/>
<path d="M17.4304 14.8285L16.3867 14.8519L16.4461 15.3521L17.4304 14.8285Z" fill="#FFCC00"/>
<path d="M17.4304 14.8285L16.5721 15.4155L16.3225 14.9764L17.4304 14.8285Z" fill="#FFCC00"/>
</svg>
