<svg width="27" height="20" viewBox="0 0 27 20" fill="none" xmlns="http://www.w3.org/2000/svg">
<path d="M27 0H0V20H27V0Z" fill="white"/>
<path d="M6.40193 4.51289C6.38611 4.88115 6.35974 5.24272 6.31755 5.59759C6.30173 5.71142 6.28591 5.82524 6.27009 5.93907C6.44412 5.91228 6.62341 5.89889 6.80798 5.89889C6.98728 5.89889 7.16658 5.91228 7.34587 5.93907C7.33005 5.82524 7.31423 5.71142 7.29841 5.59759C7.25623 5.24272 7.22459 4.88115 7.21404 4.51289C7.599 4.53298 7.97341 4.59324 8.33728 4.68028C8.31619 4.45932 8.30564 4.23167 8.30564 3.99732C8.30564 3.76297 8.31619 3.54201 8.33728 3.31436C7.96814 3.4014 7.59373 3.46167 7.21404 3.48175C7.22986 2.99297 7.27732 2.51757 7.34587 2.05557C7.17185 2.08236 6.99255 2.09575 6.80798 2.09575C6.62341 2.09575 6.44939 2.08236 6.27009 2.05557C6.33865 2.52427 6.38611 2.99966 6.40193 3.48175C6.01697 3.46167 5.64255 3.4014 5.27869 3.31436C5.29978 3.53532 5.31033 3.76297 5.31033 3.99732C5.31033 4.22497 5.29978 4.45263 5.27869 4.68028C5.64255 4.59324 6.02224 4.53298 6.40193 4.51289Z" fill="#D51F3A"/>
<path d="M19.7912 4.51289C19.7754 4.88115 19.749 5.24272 19.7068 5.59759C19.691 5.71142 19.6752 5.82524 19.6594 5.93907C19.8334 5.91228 20.0127 5.89889 20.1973 5.89889C20.3766 5.89889 20.5559 5.91228 20.7352 5.93907C20.7193 5.82524 20.7035 5.71142 20.6877 5.59759C20.6455 5.24272 20.6139 4.88115 20.6033 4.51289C20.9883 4.53298 21.3627 4.59324 21.7318 4.68028C21.7107 4.45932 21.7002 4.23167 21.7002 3.99732C21.7002 3.76297 21.7107 3.54201 21.7318 3.31436C21.3627 3.4014 20.9883 3.46167 20.6033 3.48175C20.6244 2.99297 20.6666 2.51757 20.7352 2.05557C20.5611 2.08236 20.3818 2.09575 20.1973 2.09575C20.0127 2.09575 19.8387 2.08236 19.6594 2.05557C19.7279 2.52427 19.7754 2.99966 19.7912 3.48175C19.4062 3.46167 19.0318 3.4014 18.668 3.31436C18.6891 3.53532 18.6996 3.76297 18.6996 3.99732C18.6996 4.22497 18.6891 4.45263 18.668 4.68028C19.0318 4.59324 19.4062 4.53298 19.7912 4.51289Z" fill="#D51F3A"/>
<path d="M7.20879 15.4871C7.22461 15.1188 7.25098 14.7573 7.29316 14.4024C7.30898 14.2886 7.3248 14.1748 7.34062 14.0609C7.1666 14.0877 6.9873 14.1011 6.80273 14.1011C6.61816 14.1011 6.44414 14.0877 6.26484 14.0609C6.28066 14.1748 6.29648 14.2886 6.3123 14.4024C6.35449 14.7573 6.38613 15.1188 6.39668 15.4871C6.01172 15.4603 5.6373 15.4068 5.27344 15.3197C5.29453 15.5407 5.30508 15.7683 5.30508 16.0027C5.30508 16.2303 5.29453 16.458 5.27344 16.6856C5.64258 16.5986 6.01699 16.5383 6.39668 16.5182C6.38086 17.007 6.3334 17.4824 6.26484 17.9511C6.43887 17.9243 6.61816 17.9109 6.80273 17.9109C6.98203 17.9109 7.16133 17.9243 7.34062 17.9511C7.27207 17.4824 7.22461 17.007 7.20879 16.5182C7.59375 16.545 7.96816 16.5986 8.33203 16.6856C8.31094 16.4647 8.30039 16.237 8.30039 16.0027C8.30039 15.7683 8.31094 15.5474 8.33203 15.3197C7.96816 15.4001 7.59375 15.4603 7.20879 15.4871Z" fill="#D51F3A"/>
<path d="M20.5981 15.4871C20.6139 15.1188 20.6403 14.7573 20.6824 14.4024C20.6983 14.2886 20.7141 14.1748 20.7299 14.0609C20.5559 14.0877 20.3766 14.1011 20.192 14.1011C20.0074 14.1011 19.8334 14.0877 19.6541 14.0609C19.6699 14.1748 19.6858 14.2886 19.7016 14.4024C19.7438 14.7573 19.7754 15.1188 19.786 15.4871C19.401 15.4603 19.0266 15.4068 18.6627 15.3197C18.6838 15.5407 18.6944 15.7683 18.6944 16.0027C18.6944 16.2303 18.6838 16.458 18.6627 16.6856C19.0319 16.5986 19.4063 16.5383 19.786 16.5182C19.7701 17.007 19.7227 17.4824 19.6541 17.9511C19.8282 17.9243 20.0074 17.9109 20.192 17.9109C20.3713 17.9109 20.5506 17.9243 20.7299 17.9511C20.6614 17.4824 20.6139 17.007 20.5981 16.5182C20.983 16.545 21.3574 16.5986 21.7266 16.6856C21.7055 16.4647 21.6949 16.237 21.6949 16.0027C21.6949 15.7683 21.7055 15.5474 21.7266 15.3197C21.3574 15.4001 20.9778 15.4603 20.5981 15.4871Z" fill="#D51F3A"/>
<path d="M15.0873 0H11.9127V20H15.0873V0Z" fill="#D51F3A"/>
<path d="M27 7.98125H0V12.012H27V7.98125Z" fill="#D51F3A"/>
</svg>
