<svg width="27" height="20" viewBox="0 0 27 20" fill="none" xmlns="http://www.w3.org/2000/svg">
<g clip-path="url(#clip0_202_120)">
<path fill-rule="evenodd" clip-rule="evenodd" d="M26.9933 20H-0.00674438V0H26.9933V20Z" fill="#BA0000"/>
<path fill-rule="evenodd" clip-rule="evenodd" d="M11.3627 6.58C11.0692 8.836 13.1155 9.7055 13.1155 9.7055C13.0759 9.64465 13.0378 9.59197 13.002 9.54253C12.8444 9.32468 12.7323 9.16978 12.7388 8.65583C12.7784 8.32683 12.8974 8.13492 13.0957 7.94692C13.2344 7.82277 13.3897 7.74541 13.5447 7.66818C13.6734 7.60409 13.8018 7.54009 13.9205 7.4495C14.1262 7.29938 14.2881 7.09825 14.3898 6.86646C14.4915 6.63467 14.5293 6.38047 14.4995 6.12958C14.4678 5.76142 14.3686 5.47942 14.2061 5.20525C14.0752 4.96633 14.0038 4.73133 14.099 4.48067C14.1505 4.3475 14.2457 4.23783 14.3647 4.12817C13.9205 4.16342 13.4843 4.22217 13.056 4.35142C12.1479 4.75483 11.6443 5.49508 11.3627 6.58ZM12.8814 9.4397C12.4974 9.10407 12.3174 8.50693 12.311 7.91515C12.3078 7.62025 12.3478 7.32926 12.4257 7.07667C12.5037 6.82359 12.6189 6.6118 12.7639 6.47238L12.7057 6.41346C12.5473 6.56582 12.4265 6.79172 12.3461 7.05271C12.2654 7.31417 12.2244 7.61362 12.2277 7.91602C12.2342 8.51882 12.417 9.14368 12.8262 9.5013L12.8814 9.4397Z" fill="white"/>
<path fill-rule="evenodd" clip-rule="evenodd" d="M12.7229 6.44292V6.43117V6.44292Z" fill="#BA0000"/>
<path fill-rule="evenodd" clip-rule="evenodd" d="M13.2226 6.05125L13.3534 6.26667L13.1155 6.16875L12.9291 6.36458L12.9608 6.11L12.7229 6.01208L12.9807 5.95333L13.0124 5.70267L13.1433 5.91808L13.405 5.85933" fill="#BA0000"/>
<path fill-rule="evenodd" clip-rule="evenodd" d="M15.8002 6.98341C13.5279 7.36725 13.29 9.55667 13.29 9.55667C13.3398 9.49913 13.3812 9.44569 13.42 9.39562C13.5818 9.18662 13.6983 9.03617 14.1942 8.89083C14.4661 8.83651 14.7488 8.88397 14.9873 9.024C15.1491 9.11901 15.2699 9.24378 15.3909 9.36878C15.4894 9.47051 15.588 9.57239 15.709 9.6585C15.9149 9.80822 16.1572 9.90156 16.4114 9.92908C16.6656 9.95659 16.9226 9.91729 17.1565 9.81516C17.466 9.69772 17.7432 9.50986 17.9655 9.26683C18.1558 9.07491 18.366 8.93783 18.6317 8.95741C18.7824 8.96525 18.9132 9.024 19.052 9.10233C18.8895 8.695 18.707 8.29941 18.4572 7.93516C17.7989 7.191 16.9344 6.93641 15.8002 6.98341ZM13.4746 9.26049C13.6897 8.79764 14.2161 8.45247 14.7872 8.273C15.0719 8.18357 15.3652 8.13613 15.6323 8.13553C15.9 8.13492 16.1385 8.18132 16.3157 8.27677L16.3555 8.20456C16.1619 8.10026 15.9082 8.05266 15.6322 8.05328C15.3556 8.0539 15.0539 8.10291 14.762 8.19462C14.1801 8.37745 13.6279 8.73336 13.3989 9.22618L13.4746 9.26049Z" fill="white"/>
<path fill-rule="evenodd" clip-rule="evenodd" d="M16.3316 8.23283H16.3435H16.3316Z" fill="#BA0000"/>
<path fill-rule="evenodd" clip-rule="evenodd" d="M16.8591 8.58925L16.6885 8.77333L16.7123 8.51875L16.4744 8.40125L16.7242 8.36208L16.748 8.09967L16.8829 8.33467L17.1367 8.28767L16.9661 8.47175L17.097 8.70675" fill="#BA0000"/>
<path fill-rule="evenodd" clip-rule="evenodd" d="M16.7084 11.2526C15.6218 9.24333 13.4407 9.71333 13.4407 9.71333C13.5116 9.74194 13.5758 9.76403 13.6361 9.78473C13.8892 9.87174 14.0707 9.9341 14.3686 10.3518C14.5071 10.5886 14.5509 10.868 14.4916 11.1351C14.4526 11.3149 14.3721 11.4666 14.2916 11.6184C14.2248 11.7443 14.158 11.8703 14.1148 12.0124C14.0366 12.252 14.0236 12.5078 14.0772 12.7539C14.1308 13.0001 14.2491 13.2279 14.4202 13.4146C14.6312 13.669 14.9003 13.8703 15.2054 14.0021C15.4513 14.1196 15.6495 14.2723 15.713 14.5308C15.7526 14.6718 15.7407 14.8128 15.709 14.9695C16.0461 14.6836 16.3713 14.3898 16.6409 14.0373C17.1446 13.1874 17.1168 12.2983 16.7084 11.2526ZM13.7891 9.79339C14.2999 9.84839 14.7973 10.2316 15.1504 10.7099C15.3264 10.9482 15.465 11.2081 15.5504 11.4587C15.636 11.7098 15.6674 11.9487 15.6323 12.1463L15.7143 12.1605C15.7526 11.9449 15.7176 11.6913 15.6293 11.4325C15.5409 11.1732 15.3982 10.9058 15.2177 10.6614C14.858 10.1742 14.3422 9.7702 13.7981 9.71162L13.7891 9.79339Z" fill="white"/>
<path fill-rule="evenodd" clip-rule="evenodd" d="M15.6773 12.1456L15.6852 12.1534L15.6773 12.1456Z" fill="#BA0000"/>
<path fill-rule="evenodd" clip-rule="evenodd" d="M15.5028 12.7527L15.2688 12.6508L15.5266 12.5921L15.5583 12.3297L15.6813 12.5529L15.939 12.4942L15.7606 12.69L15.8795 12.9132L15.6495 12.8114L15.4711 13.0112" fill="#BA0000"/>
<path fill-rule="evenodd" clip-rule="evenodd" d="M11.6562 12.7409L11.6522 12.7488L11.6562 12.7409Z" fill="#BA0000"/>
<path fill-rule="evenodd" clip-rule="evenodd" d="M12.8181 13.4616C14.4599 11.8714 13.3931 9.93658 13.3931 9.93658V9.93267C13.3855 10.0073 13.3823 10.0742 13.3793 10.1369C13.3664 10.4029 13.3571 10.5939 13.0362 10.9902C12.7943 11.2252 12.5801 11.2996 12.3065 11.3348C12.1203 11.3477 11.9506 11.3126 11.7807 11.2775C11.6394 11.2483 11.498 11.2191 11.3468 11.2173C11.0918 11.2106 10.8394 11.2705 10.6153 11.3908C10.3911 11.5112 10.203 11.6877 10.0699 11.9028C9.88184 12.1752 9.76221 12.4881 9.72093 12.8153C9.67334 13.0778 9.58213 13.3088 9.35213 13.442C9.22523 13.5203 9.0785 13.5478 8.91988 13.5595C9.29661 13.8023 9.67334 14.0256 10.0897 14.1823C11.0573 14.4212 11.9139 14.1431 12.8181 13.4616ZM13.4077 10.2848C13.5018 10.7855 13.2704 11.3661 12.905 11.8356C12.723 12.0695 12.5091 12.2738 12.2894 12.4247C12.0693 12.5758 11.8458 12.6716 11.6439 12.6922L11.6525 12.774C11.873 12.7515 12.1099 12.6481 12.337 12.4922C12.5644 12.3361 12.7843 12.1257 12.9711 11.8857C13.3433 11.4074 13.5898 10.8032 13.4896 10.2698L13.4077 10.2848Z" fill="white"/>
<path fill-rule="evenodd" clip-rule="evenodd" d="M11.0177 12.7448L11.0534 12.4942L11.1842 12.7174L11.446 12.6782L11.2636 12.8584L11.3944 13.0817L11.1525 12.9681L10.9701 13.1482L11.0018 12.8976L10.7599 12.784" fill="#BA0000"/>
<path d="M13.1465 9.89858C13.1496 9.89524 13.1512 9.8935 13.1512 9.8935V9.89742C13.1496 9.8978 13.148 9.89819 13.1465 9.89858Z" fill="white"/>
<path fill-rule="evenodd" clip-rule="evenodd" d="M9.59006 10.5358C11.5926 11.4982 13.0533 9.9975 13.1465 9.89858C13.0751 9.91616 13.0122 9.93505 12.9532 9.95279C12.6968 10.0298 12.5129 10.085 12.025 9.917C11.7196 9.76817 11.5768 9.59583 11.4579 9.353C11.3816 9.18287 11.358 9.01156 11.3344 8.84037C11.3152 8.70021 11.2959 8.56012 11.2477 8.42083C11.1693 8.18022 11.0278 7.96437 10.8377 7.79516C10.6476 7.62595 10.4155 7.5094 10.1651 7.45733C9.84523 7.37189 9.50924 7.36383 9.18557 7.43383C8.9159 7.47692 8.6621 7.46908 8.45986 7.30067C8.34485 7.20667 8.26951 7.08133 8.20209 6.94033C8.09502 7.36725 8.01174 7.79025 7.99985 8.23283C8.09105 9.212 8.63831 9.92092 9.59006 10.5358ZM12.8212 10.0262C12.3758 10.2784 11.7451 10.2551 11.1754 10.0708C10.8915 9.97897 10.6253 9.84785 10.408 9.69365C10.1903 9.53915 10.0241 9.36317 9.93697 9.18256L9.8618 9.21795C9.95704 9.41529 10.1349 9.60111 10.3594 9.76044C10.5843 9.92006 10.8583 10.0548 11.1495 10.149C11.7298 10.3367 12.388 10.3663 12.8626 10.0976L12.8212 10.0262Z" fill="white"/>
<path fill-rule="evenodd" clip-rule="evenodd" d="M9.89542 9.212L9.88749 9.20808L9.89542 9.212Z" fill="#BA0000"/>
<path fill-rule="evenodd" clip-rule="evenodd" d="M9.68128 8.61667L9.93111 8.56575L9.76059 8.76158L9.88352 8.99267L9.65352 8.883L9.483 9.07883L9.51075 8.8125L9.27678 8.70283L9.52662 8.65192L9.55438 8.38558" fill="#BA0000"/>
</g>
<defs>
<clipPath id="clip0_202_120">
<rect width="27" height="20" fill="white"/>
</clipPath>
</defs>
</svg>
