<svg width="27" height="20" viewBox="0 0 27 20" fill="none" xmlns="http://www.w3.org/2000/svg">
<g clip-path="url(#clip0_202_148)">
<path d="M0 0H27V6.66667H0V0Z" fill="#FF9933"/>
<path d="M0 6.66667H27V13.3333H0V6.66667Z" fill="white"/>
<path d="M0 13.3333H27V20H0V13.3333Z" fill="#128807"/>
<path d="M13.5 12.6667C14.9912 12.6667 16.2 11.4728 16.2 10C16.2 8.52724 14.9912 7.33333 13.5 7.33333C12.0088 7.33333 10.8 8.52724 10.8 10C10.8 11.4728 12.0088 12.6667 13.5 12.6667Z" fill="#000088"/>
<path d="M13.5 12.3333C14.8048 12.3333 15.8625 11.2887 15.8625 10C15.8625 8.71134 14.8048 7.66667 13.5 7.66667C12.1952 7.66667 11.1375 8.71134 11.1375 10C11.1375 11.2887 12.1952 12.3333 13.5 12.3333Z" fill="white"/>
<path d="M13.5 10.4667C13.761 10.4667 13.9725 10.2577 13.9725 10C13.9725 9.74227 13.761 9.53333 13.5 9.53333C13.239 9.53333 13.0275 9.74227 13.0275 10C13.0275 10.2577 13.239 10.4667 13.5 10.4667Z" fill="#000088"/>
<path d="M15.8264 10.4244C15.8929 10.4331 15.9539 10.3868 15.9627 10.3211C15.9715 10.2554 15.9246 10.1951 15.8581 10.1865C15.7916 10.1778 15.7305 10.2241 15.7218 10.2898C15.713 10.3555 15.7599 10.4158 15.8264 10.4244Z" fill="#000088"/>
<path d="M13.5 12.3333L13.581 10.9333L13.5 10.2667L13.419 10.9333L13.5 12.3333Z" fill="#000088"/>
<path d="M15.6359 11.0046C15.6979 11.03 15.769 11.0009 15.7946 10.9397C15.8203 10.8785 15.7909 10.8083 15.7289 10.7829C15.6669 10.7575 15.5958 10.7866 15.5701 10.8478C15.5445 10.9091 15.5739 10.9793 15.6359 11.0046Z" fill="#000088"/>
<path d="M12.8885 12.2538L13.3337 10.9222L13.4301 10.2576L13.1772 10.8808L12.8885 12.2538Z" fill="#000088"/>
<path d="M15.2999 11.5164C15.3531 11.5567 15.4294 11.5468 15.4702 11.4942C15.5111 11.4416 15.501 11.3663 15.4478 11.326C15.3945 11.2856 15.3183 11.2955 15.2774 11.3481C15.2366 11.4007 15.2466 11.476 15.2999 11.5164Z" fill="#000088"/>
<path d="M12.3188 12.0207L13.0976 10.8483L13.365 10.2309L12.9574 10.7683L12.3188 12.0207Z" fill="#000088"/>
<path d="M14.8412 11.9248C14.882 11.9774 14.9583 11.9873 15.0115 11.9469C15.0647 11.9066 15.0748 11.8313 15.0339 11.7787C14.9931 11.7261 14.9168 11.7162 14.8636 11.7565C14.8103 11.7969 14.8003 11.8722 14.8412 11.9248Z" fill="#000088"/>
<path d="M11.8295 11.6499L12.8891 10.7165L13.3091 10.1886L12.7745 10.6034L11.8295 11.6499Z" fill="#000088"/>
<path d="M14.2911 12.202C14.3167 12.2633 14.3878 12.2923 14.4498 12.267C14.5118 12.2416 14.5412 12.1714 14.5156 12.1102C14.4899 12.049 14.4188 12.0199 14.3568 12.0453C14.2948 12.0706 14.2654 12.1408 14.2911 12.202Z" fill="#000088"/>
<path d="M11.454 11.1667L12.7221 10.5359L13.2662 10.1333L12.6411 10.3974L11.454 11.1667Z" fill="#000088"/>
<path d="M13.687 12.3292C13.6958 12.3949 13.7568 12.4412 13.8234 12.4325C13.8899 12.4239 13.9367 12.3636 13.928 12.2979C13.9192 12.2322 13.8582 12.1859 13.7916 12.1946C13.7251 12.2032 13.6783 12.2635 13.687 12.3292Z" fill="#000088"/>
<path d="M11.218 10.6039L12.6082 10.3188L13.2392 10.069L12.5662 10.1643L11.218 10.6039Z" fill="#000088"/>
<path d="M13.0703 12.2977C13.0615 12.3634 13.1084 12.4237 13.1749 12.4323C13.2414 12.441 13.3025 12.3947 13.3112 12.329C13.32 12.2633 13.2731 12.203 13.2066 12.1944C13.1401 12.1857 13.0791 12.232 13.0703 12.2977Z" fill="#000088"/>
<path d="M11.1375 10L12.555 10.08L13.23 10L12.555 9.92L11.1375 10Z" fill="#000088"/>
<path d="M12.4828 12.1095C12.4571 12.1708 12.4866 12.241 12.5486 12.2663C12.6106 12.2917 12.6816 12.2626 12.7073 12.2014C12.733 12.1401 12.7036 12.0699 12.6416 12.0446C12.5796 12.0192 12.5085 12.0483 12.4828 12.1095Z" fill="#000088"/>
<path d="M11.218 9.39609L12.5662 9.83571L13.2392 9.93098L12.6082 9.68116L11.218 9.39609Z" fill="#000088"/>
<path d="M11.9647 11.7776C11.9238 11.8302 11.9339 11.9055 11.9871 11.9459C12.0403 11.9862 12.1166 11.9763 12.1575 11.9237C12.1983 11.8712 12.1883 11.7958 12.135 11.7555C12.0818 11.7151 12.0055 11.7251 11.9647 11.7776Z" fill="#000088"/>
<path d="M11.454 8.83333L12.6411 9.60262L13.2662 9.86667L12.7221 9.46405L11.454 8.83333Z" fill="#000088"/>
<path d="M11.5511 11.3246C11.4979 11.3649 11.4879 11.4403 11.5287 11.4928C11.5696 11.5454 11.6458 11.5553 11.6991 11.515C11.7523 11.4747 11.7624 11.3993 11.7215 11.3467C11.6807 11.2942 11.6044 11.2843 11.5511 11.3246Z" fill="#000088"/>
<path d="M11.8295 8.35009L12.7745 9.3966L13.3091 9.81144L12.8891 9.28347L11.8295 8.35009Z" fill="#000088"/>
<path d="M11.2704 10.7813C11.2084 10.8066 11.179 10.8768 11.2047 10.9381C11.2304 10.9993 11.3014 11.0284 11.3634 11.003C11.4254 10.9777 11.4549 10.9075 11.4292 10.8462C11.4035 10.785 11.3324 10.7559 11.2704 10.7813Z" fill="#000088"/>
<path d="M12.3188 7.97927L12.9574 9.23171L13.365 9.76906L13.0976 9.15171L12.3188 7.97927Z" fill="#000088"/>
<path d="M11.1417 10.1847C11.0751 10.1934 11.0283 10.2537 11.0371 10.3194C11.0458 10.3851 11.1069 10.4313 11.1734 10.4227C11.2399 10.414 11.2867 10.3538 11.278 10.288C11.2692 10.2223 11.2082 10.1761 11.1417 10.1847Z" fill="#000088"/>
<path d="M12.8885 7.74617L13.1772 9.11917L13.4301 9.74242L13.3337 9.07776L12.8885 7.74617Z" fill="#000088"/>
<path d="M11.1736 9.57559C11.1071 9.56694 11.0461 9.6132 11.0373 9.67891C11.0285 9.74461 11.0754 9.80489 11.1419 9.81354C11.2084 9.82219 11.2695 9.77594 11.2782 9.71023C11.287 9.64452 11.2401 9.58425 11.1736 9.57559Z" fill="#000088"/>
<path d="M13.5 7.66667L13.419 9.06667L13.5 9.73333L13.581 9.06667L13.5 7.66667Z" fill="#000088"/>
<path d="M11.3641 8.99538C11.3021 8.97001 11.231 8.99909 11.2054 9.06032C11.1797 9.12155 11.2091 9.19175 11.2711 9.21711C11.3331 9.24247 11.4042 9.21339 11.4299 9.15216C11.4555 9.09094 11.4261 9.02074 11.3641 8.99538Z" fill="#000088"/>
<path d="M14.1115 7.74617L13.6663 9.07776L13.5699 9.74242L13.8228 9.11917L14.1115 7.74617Z" fill="#000088"/>
<path d="M11.7001 8.48362C11.6469 8.44328 11.5706 8.45319 11.5298 8.50577C11.4889 8.55835 11.499 8.63368 11.5522 8.67403C11.6055 8.71437 11.6817 8.70446 11.7226 8.65188C11.7634 8.5993 11.7534 8.52397 11.7001 8.48362Z" fill="#000088"/>
<path d="M14.6813 7.97927L13.9024 9.15171L13.635 9.76906L14.0426 9.23171L14.6813 7.97927Z" fill="#000088"/>
<path d="M12.1589 8.07521C12.118 8.02263 12.0417 8.01271 11.9885 8.05305C11.9353 8.0934 11.9252 8.16873 11.9661 8.22131C12.0069 8.27389 12.0832 8.2838 12.1364 8.24346C12.1897 8.20311 12.1997 8.12778 12.1589 8.07521Z" fill="#000088"/>
<path d="M15.1705 8.35009L14.1109 9.28347L13.6909 9.81144L14.2255 9.3966L15.1705 8.35009Z" fill="#000088"/>
<path d="M12.7089 7.79796C12.6833 7.73673 12.6122 7.70765 12.5502 7.73302C12.4882 7.75838 12.4588 7.82858 12.4844 7.8898C12.5101 7.95103 12.5812 7.98011 12.6432 7.95475C12.7052 7.92939 12.7346 7.85919 12.7089 7.79796Z" fill="#000088"/>
<path d="M15.546 8.83333L14.2779 9.46405L13.7338 9.86667L14.3589 9.60262L15.546 8.83333Z" fill="#000088"/>
<path d="M13.313 7.67078C13.3042 7.60508 13.2432 7.55882 13.1766 7.56747C13.1101 7.57612 13.0633 7.6364 13.072 7.70211C13.0808 7.76782 13.1418 7.81407 13.2084 7.80542C13.2749 7.79677 13.3217 7.73649 13.313 7.67078Z" fill="#000088"/>
<path d="M15.782 9.39609L14.3918 9.68116L13.7608 9.93098L14.4338 9.83571L15.782 9.39609Z" fill="#000088"/>
<path d="M13.9297 7.70234C13.9385 7.63663 13.8916 7.57635 13.8251 7.5677C13.7586 7.55905 13.6975 7.6053 13.6888 7.67101C13.68 7.73672 13.7269 7.797 13.7934 7.80565C13.8599 7.8143 13.921 7.76804 13.9297 7.70234Z" fill="#000088"/>
<path d="M15.8625 10L14.445 9.92L13.77 10L14.445 10.08L15.8625 10Z" fill="#000088"/>
<path d="M14.5172 7.89047C14.5429 7.82924 14.5134 7.75905 14.4514 7.73368C14.3894 7.70832 14.3184 7.7374 14.2927 7.79863C14.267 7.85986 14.2964 7.93005 14.3584 7.95541C14.4204 7.98078 14.4915 7.9517 14.5172 7.89047Z" fill="#000088"/>
<path d="M15.782 10.6039L14.4338 10.1643L13.7608 10.069L14.3918 10.3188L15.782 10.6039Z" fill="#000088"/>
<path d="M15.0353 8.22237C15.0762 8.16979 15.0661 8.09446 15.0129 8.05411C14.9597 8.01377 14.8834 8.02368 14.8425 8.07626C14.8017 8.12884 14.8117 8.20417 14.865 8.24452C14.9182 8.28486 14.9945 8.27495 15.0353 8.22237Z" fill="#000088"/>
<path d="M15.546 11.1667L14.3589 10.3974L13.7338 10.1333L14.2779 10.5359L15.546 11.1667Z" fill="#000088"/>
<path d="M15.4489 8.67541C15.5021 8.63506 15.5121 8.55973 15.4713 8.50715C15.4304 8.45457 15.3542 8.44466 15.3009 8.485C15.2477 8.52535 15.2376 8.60068 15.2785 8.65325C15.3193 8.70583 15.3956 8.71575 15.4489 8.67541Z" fill="#000088"/>
<path d="M15.1705 11.6499L14.2255 10.6034L13.6909 10.1886L14.1109 10.7165L15.1705 11.6499Z" fill="#000088"/>
<path d="M15.7296 9.21871C15.7916 9.19335 15.821 9.12315 15.7953 9.06193C15.7696 9.0007 15.6986 8.97162 15.6366 8.99698C15.5746 9.02234 15.5451 9.09254 15.5708 9.15377C15.5965 9.215 15.6676 9.24408 15.7296 9.21871Z" fill="#000088"/>
<path d="M14.6813 12.0207L14.0426 10.7683L13.635 10.2309L13.9024 10.8483L14.6813 12.0207Z" fill="#000088"/>
<path d="M15.8583 9.81526C15.9249 9.80661 15.9717 9.74634 15.9629 9.68063C15.9542 9.61492 15.8931 9.56867 15.8266 9.57732C15.7601 9.58597 15.7133 9.64625 15.722 9.71195C15.7308 9.77766 15.7918 9.82392 15.8583 9.81526Z" fill="#000088"/>
<path d="M14.1115 12.2538L13.8228 10.8808L13.5699 10.2576L13.6663 10.9222L14.1115 12.2538Z" fill="#000088"/>
</g>
<defs>
<clipPath id="clip0_202_148">
<rect width="27" height="20" fill="white"/>
</clipPath>
</defs>
</svg>
