<svg width="27" height="20" viewBox="0 0 27 20" fill="none" xmlns="http://www.w3.org/2000/svg">
<g clip-path="url(#clip0_202_175)">
<path fill-rule="evenodd" clip-rule="evenodd" d="M0 0H26.9987V20H0V0Z" fill="#FF0000"/>
<path d="M7.53182 10.1979L7.53073 10.1992H7.52678L7.53182 10.1979Z" fill="#FFFF00"/>
<path fill-rule="evenodd" clip-rule="evenodd" d="M7.53182 10.1979C7.81997 9.85197 8.27433 9.87219 8.77443 9.89445C9.03924 9.90623 9.31689 9.91859 9.58946 9.87745C9.5914 9.81863 9.5947 9.75997 9.59933 9.70152C9.26959 9.66087 8.98513 9.56873 8.71323 9.48066C8.3383 9.35921 7.98723 9.2455 7.57424 9.28516C8.06201 8.98837 8.51021 9.07167 8.97958 9.1589C9.20066 9.19999 9.42643 9.24195 9.66324 9.24548C9.67327 9.19586 9.68427 9.14649 9.69623 9.09739C9.35469 9.01538 9.13672 8.89185 8.9235 8.77101C8.62934 8.60431 8.34423 8.44273 7.75617 8.40234C8.33166 8.16057 8.74859 8.3172 9.17597 8.47776C9.3841 8.55595 9.59471 8.63508 9.82732 8.66957C9.84781 8.6144 9.86956 8.5597 9.89257 8.50552C9.53836 8.36142 9.29546 8.17746 9.06854 8.00561C8.77998 7.78707 8.51728 7.58811 8.08444 7.51562C8.80988 7.40901 9.11338 7.59107 9.4511 7.79366C9.63251 7.90249 9.82381 8.01724 10.0957 8.09635C10.1211 8.05189 10.1475 8.0079 10.1748 7.96441C9.82181 7.75895 9.6491 7.56352 9.48487 7.37771C9.27614 7.14153 9.08113 6.92087 8.54719 6.71484C9.20488 6.70032 9.48971 6.93276 9.80083 7.18666C9.97836 7.33155 10.1645 7.48342 10.4333 7.60037C10.4719 7.55219 10.5117 7.50484 10.5527 7.45837C10.2738 7.22077 10.1111 6.9924 9.95745 6.77682C9.75174 6.48816 9.56239 6.22245 9.13254 5.98828C9.69532 5.99877 9.98442 6.30884 10.2974 6.64454C10.4615 6.82052 10.6322 7.00355 10.8522 7.15416C10.8932 7.11685 10.9349 7.08049 10.9773 7.04507C10.7507 6.7871 10.6336 6.54084 10.5188 6.29927C10.3667 5.97927 10.2186 5.66749 9.82468 5.34766C10.3787 5.47616 10.5953 5.79379 10.8391 6.15121C10.9775 6.35418 11.1247 6.56998 11.3474 6.77125C11.3945 6.74046 11.4423 6.7107 11.4907 6.682C11.3129 6.39532 11.2318 6.13305 11.1535 5.88017C11.046 5.53252 10.9439 5.20265 10.6038 4.85156C11.137 5.01948 11.2791 5.34363 11.4506 5.73467C11.5523 5.96652 11.6643 6.22189 11.8742 6.48215C11.9292 6.45722 11.9848 6.43354 12.0409 6.41115C11.9328 6.12404 11.8947 5.86529 11.8578 5.61533C11.8014 5.23207 11.7479 4.86947 11.4502 4.45703C11.9478 4.709 12.052 5.07976 12.1714 5.50479C12.2392 5.74606 12.312 6.00482 12.4644 6.26927C12.5256 6.25252 12.5874 6.23723 12.6495 6.22342C12.5916 5.93385 12.5909 5.67303 12.5903 5.41845C12.5893 5.02719 12.5883 4.65065 12.3797 4.20703C12.8116 4.52385 12.8713 4.94687 12.9369 5.41187C12.9705 5.65008 13.0056 5.89931 13.0931 6.15091C13.1582 6.14403 13.2236 6.13875 13.2892 6.13509C13.2778 5.77386 13.3426 5.51574 13.4065 5.26124C13.4877 4.93725 13.5676 4.61911 13.4871 4.10156C13.803 4.48494 13.7697 4.86831 13.732 5.30114C13.7097 5.55823 13.6858 5.83276 13.7327 6.1351C13.7889 6.13825 13.845 6.14258 13.9008 6.14809C13.9462 5.79763 14.0548 5.53595 14.1578 5.28775C14.2987 4.94825 14.4291 4.634 14.373 4.15234C14.6909 4.62222 14.5751 5.06001 14.4564 5.5093C14.3956 5.73929 14.334 5.97229 14.3293 6.21415C14.3932 6.2276 14.4566 6.24261 14.5195 6.25916C14.6184 5.92584 14.7751 5.67342 14.9233 5.43464C15.1237 5.11187 15.3086 4.81402 15.3143 4.375C15.5661 4.8163 15.395 5.19277 15.2036 5.61398C15.0953 5.85239 14.9804 6.10513 14.932 6.39207C14.9866 6.41302 15.0407 6.43518 15.0943 6.45852C15.2661 6.09503 15.4845 5.85181 15.682 5.63194C15.929 5.35687 16.1432 5.11835 16.1924 4.72656C16.3387 5.2274 16.1026 5.58817 15.8524 5.97037C15.7134 6.18287 15.5699 6.40199 15.4855 6.65549C15.5335 6.68306 15.5808 6.71166 15.6276 6.74126C15.8207 6.44125 16.0747 6.2348 16.3137 6.04057C16.6166 5.79438 16.8954 5.56783 16.9952 5.19531C17.0666 5.75064 16.7951 6.05721 16.4871 6.40493C16.3264 6.58634 16.1558 6.77896 16.0188 7.02394C16.0549 7.05357 16.0905 7.08388 16.1255 7.11486C16.3561 6.87428 16.6181 6.70881 16.8694 6.55009C17.2007 6.3408 17.5135 6.14327 17.7111 5.80078C17.6937 6.35561 17.3382 6.64524 16.9635 6.9506C16.7836 7.09718 16.5993 7.24738 16.4457 7.43227C16.4776 7.46777 16.5088 7.5038 16.5393 7.54032C16.7877 7.35531 17.0498 7.24723 17.3108 7.13958C17.6653 6.9934 18.0179 6.84799 18.3321 6.51172C18.293 7.0112 17.924 7.22128 17.4963 7.46476C17.2733 7.59173 17.0343 7.72779 16.8178 7.91872C16.8423 7.95662 16.8661 7.99492 16.8892 8.03359C17.1624 7.90016 17.4582 7.82909 17.7433 7.76058C18.1585 7.66084 18.5512 7.5665 18.8185 7.29297C18.8028 7.74881 18.3366 7.92637 17.8123 8.12602C17.5747 8.21653 17.3251 8.31158 17.1001 8.43916C17.1199 8.48337 17.1388 8.52795 17.1569 8.57286C17.4441 8.49644 17.7421 8.468 18.0284 8.44068C18.4686 8.39867 18.8808 8.35933 19.1824 8.15234C19.1193 8.55265 18.6025 8.67188 18.0354 8.80268C17.7892 8.85948 17.5334 8.91847 17.3013 9.00361C17.3152 9.05497 17.328 9.10664 17.3398 9.1586C17.6371 9.13451 17.9158 9.15634 18.1844 9.17739C18.6062 9.21043 19.003 9.24151 19.4078 9.08984C19.1879 9.47382 18.6585 9.50531 18.1077 9.53808C17.8728 9.55205 17.634 9.56625 17.4137 9.60811C17.4192 9.66062 17.4236 9.71331 17.4269 9.76617C17.6946 9.78509 17.9634 9.84103 18.2285 9.89618C18.6672 9.98746 19.0955 10.0766 19.4909 9.99219C19.3512 10.3148 18.8427 10.2753 18.2779 10.2315C17.9973 10.2097 17.7028 10.1869 17.4328 10.2068C17.4299 10.2629 17.4256 10.3189 17.4202 10.3746C17.6906 10.43 17.9388 10.5236 18.1835 10.6158C18.5762 10.7638 18.96 10.9083 19.4118 10.8867C19.122 11.2078 18.5361 11.0757 17.9467 10.9428C17.7441 10.8971 17.541 10.8513 17.3494 10.8238C17.3392 10.8707 17.328 10.9173 17.316 10.9637C17.5881 11.0756 17.8422 11.2207 18.0849 11.3593C18.4795 11.5846 18.8438 11.7926 19.2061 11.8125C18.8864 12.052 18.4187 11.8648 17.9156 11.6635C17.6717 11.5659 17.4196 11.4649 17.1719 11.4076C17.1513 11.4599 17.1296 11.5117 17.1068 11.563C17.4082 11.7252 17.6891 11.9448 17.9455 12.1452C18.2927 12.4167 18.595 12.653 18.8423 12.6641C18.5339 12.8728 18.0622 12.5927 17.5731 12.3023C17.3513 12.1706 17.1258 12.0367 16.9105 11.9455C16.8828 11.9927 16.8541 12.0394 16.8244 12.0855C17.0989 12.291 17.3251 12.5435 17.5332 12.7759C17.8178 13.0937 18.0688 13.3739 18.3637 13.4453C17.9556 13.574 17.551 13.2309 17.1374 12.88C16.9493 12.7205 16.7593 12.5593 16.5663 12.4403C16.5308 12.4837 16.4943 12.5264 16.4568 12.5683C16.703 12.8069 16.8686 13.0682 17.0251 13.315C17.2335 13.6438 17.4257 13.947 17.7704 14.1367C17.3611 14.2352 17.0155 13.8326 16.6591 13.4176C16.4931 13.2243 16.3247 13.0282 16.1464 12.8788C16.1057 12.9152 16.0643 12.9507 16.0222 12.9852C16.2341 13.2612 16.3818 13.5893 16.519 13.894C16.6841 14.2608 16.8341 14.5939 17.0625 14.7617C16.655 14.7823 16.3841 14.3419 16.1033 13.8855C15.9642 13.6592 15.8225 13.429 15.6606 13.249C15.6161 13.2778 15.571 13.3056 15.5253 13.3325C15.6654 13.5951 15.7421 13.9035 15.8166 14.2036C15.9174 14.6094 16.0145 15.0001 16.2596 15.2422C15.8425 15.1554 15.6685 14.7345 15.4813 14.2817C15.3767 14.0286 15.2679 13.7655 15.1103 13.5453C15.0604 13.5672 15.0101 13.5882 14.9593 13.608C15.0842 13.928 15.1198 14.2732 15.1535 14.6011C15.193 14.985 15.2301 15.3451 15.4053 15.6133C14.991 15.4488 14.889 15.0181 14.7764 14.5421C14.7141 14.2793 14.6487 14.0028 14.5255 13.7496C14.472 13.7637 14.4181 13.7767 14.364 13.7886C14.4106 14.0699 14.3979 14.3596 14.3854 14.647C14.3676 15.0559 14.3499 15.46 14.5035 15.8281C14.1152 15.6406 14.0768 15.1165 14.0375 14.5798C14.0192 14.3308 14.0008 14.0792 13.9471 13.8571C13.8954 13.8628 13.8435 13.8674 13.7914 13.8711C13.8042 14.1751 13.7608 14.4649 13.7181 14.7495C13.6599 15.1381 13.6031 15.5171 13.6927 15.9102C13.3132 15.4769 13.3548 15.0416 13.3965 14.6041C13.4195 14.3631 13.4425 14.1214 13.3952 13.8791C13.3241 13.877 13.2533 13.873 13.1827 13.8671C13.1515 14.1803 13.0503 14.4665 12.9521 14.7444C12.8212 15.1149 12.6955 15.4706 12.7475 15.8555C12.4471 15.5083 12.5416 15.0538 12.6403 14.5786C12.6936 14.3224 12.7481 14.0602 12.7426 13.8055C12.6866 13.7945 12.631 13.7822 12.5756 13.7688C12.5009 14.115 12.335 14.4415 12.1824 14.7418C12.0027 15.0956 11.8414 15.4131 11.8695 15.6836C11.6173 15.2686 11.7815 14.8138 11.9506 14.3458C12.0345 14.1133 12.1196 13.8776 12.1556 13.6417C12.1068 13.624 12.0585 13.6053 12.0105 13.5857C11.8973 13.8595 11.7179 14.1001 11.5394 14.3395C11.3037 14.6556 11.0695 14.9697 10.9914 15.3555C10.8274 14.857 11.0648 14.4332 11.304 14.0062C11.417 13.8045 11.5304 13.602 11.6022 13.3906C11.5476 13.3606 11.4937 13.3293 11.4406 13.2967C11.2883 13.5178 11.1011 13.707 10.9145 13.8955C10.6211 14.192 10.3293 14.487 10.1767 14.9023C10.0412 14.4068 10.3454 14.0366 10.6622 13.651C10.8182 13.4611 10.9774 13.2674 11.0885 13.0532C11.0463 13.0204 11.0046 12.9867 10.9636 12.9521C10.7523 13.1999 10.4885 13.385 10.235 13.5629C9.91143 13.79 9.6046 14.0054 9.44499 14.3242C9.37593 13.8385 9.75423 13.4949 10.134 13.1501C10.316 12.9848 10.4984 12.8192 10.632 12.6374C10.5933 12.5961 10.5556 12.5541 10.5188 12.5113C10.2843 12.7175 9.99969 12.858 9.72523 12.9935C9.35616 13.1757 9.00553 13.3488 8.82009 13.6602C8.78916 13.1837 9.19455 12.9248 9.62395 12.6506C9.84897 12.5069 10.0806 12.359 10.2595 12.1733C10.227 12.1259 10.1957 12.0778 10.1655 12.0291C9.92353 12.1748 9.6302 12.2665 9.34025 12.3571C8.93521 12.4837 8.53676 12.6083 8.29406 12.875C8.338 12.4266 8.82687 12.2012 9.31744 11.975C9.5437 11.8707 9.77032 11.7662 9.95382 11.6395C9.92922 11.5873 9.9058 11.5346 9.88358 11.4813C9.61607 11.5884 9.31236 11.6365 9.01149 11.6842C8.59721 11.7498 8.1883 11.8146 7.88669 12.0312C8.08573 11.574 8.64571 11.4194 9.16982 11.2748C9.37502 11.2182 9.57472 11.1631 9.7451 11.0919C9.72735 11.0319 9.71105 10.9715 9.69622 10.9106C9.44082 10.9487 9.1588 10.9502 8.88027 10.9516C8.40861 10.9541 7.94695 10.9565 7.64148 11.1367C7.94836 10.6994 8.45934 10.6496 8.97176 10.5997C9.19305 10.5782 9.41462 10.5566 9.62012 10.5038C9.6118 10.4405 9.60504 10.3769 9.59987 10.3131C9.25674 10.3131 8.95636 10.2652 8.67616 10.2204C8.27544 10.1565 7.916 10.0991 7.53182 10.1979ZM15.9322 12.3954C16.5723 11.7632 16.932 10.9058 16.932 10.0117C16.932 9.11765 16.5723 8.2602 15.9322 7.628C15.2921 6.99579 14.424 6.64062 13.5187 6.64062C12.6135 6.64062 11.7453 6.99579 11.1052 7.628C10.4651 8.2602 10.1055 9.11765 10.1055 10.0117C10.1055 10.9058 10.4651 11.7632 11.1052 12.3954C11.7453 13.0276 12.6135 13.3828 13.5187 13.3828C14.424 13.3828 15.2921 13.0276 15.9322 12.3954Z" fill="#FFFF00"/>
<path d="M15.7402 11.9165C16.2012 11.3918 16.4573 10.7187 16.4573 10.0195C16.4573 9.6392 16.3816 9.26659 16.2382 8.92139C15.598 8.88101 14.9568 8.99348 14.3691 9.25C14.8128 9.57325 15.1696 9.99901 15.4082 10.49C15.6248 10.9359 15.738 11.4232 15.7402 11.9165Z" fill="#FFFF00"/>
<path d="M15.3749 12.2659C15.4366 11.2099 14.8645 10.0802 14.0527 9.46875C14.7323 10.4342 15.1429 11.305 15.0672 12.4819C15.174 12.4167 15.2768 12.3446 15.3749 12.2659Z" fill="#FFFF00"/>
<path d="M14.6877 12.6772C14.8133 11.6254 14.5376 10.4357 13.7639 9.73438C14.2223 10.3945 14.6732 11.5647 14.44 12.7699C14.524 12.7427 14.6066 12.7118 14.6877 12.6772Z" fill="#FFFF00"/>
<path d="M14.0173 12.8732C14.1259 12.4226 14.1491 11.9554 14.0852 11.4953C14.0115 10.9651 13.8237 10.4565 13.5345 10.0039C13.0171 10.7371 12.8303 11.8354 13.0751 12.8795C13.2235 12.9024 13.3745 12.9141 13.5266 12.9141C13.6922 12.9141 13.8562 12.9002 14.0173 12.8732Z" fill="#FFFF00"/>
<path d="M12.6757 12.7894C12.4998 11.6533 12.8086 10.4022 13.3289 9.73828C12.788 10.0473 12.2811 11.3441 12.3943 12.6893C12.4862 12.7273 12.5802 12.7607 12.6757 12.7894Z" fill="#FFFF00"/>
<path d="M12.0184 12.5013C11.8929 11.491 12.3534 10.2212 13.0046 9.47656C12.2572 9.94078 11.6449 11.0684 11.7123 12.2927C11.8101 12.3688 11.9123 12.4385 12.0184 12.5013Z" fill="#FFFF00"/>
<path d="M11.3608 11.9696C10.8698 11.4376 10.5959 10.7425 10.5959 10.0195C10.5959 9.64174 10.6707 9.27157 10.8122 8.92831C11.5269 8.92567 12.0475 8.99041 12.6446 9.25781C11.9265 9.88907 11.3049 10.9227 11.3608 11.9696Z" fill="#FFFF00"/>
<path d="M11.3131 8.12249C12.0657 8.12802 12.926 8.23893 13.5187 8.70312C14.1867 8.29138 14.9655 8.09306 15.7493 8.13288C15.7014 8.07786 15.6513 8.02445 15.599 7.97279C15.0493 7.42996 14.3039 7.125 13.5266 7.125C12.7494 7.125 12.0039 7.42996 11.4543 7.97279C11.4053 8.02119 11.3582 8.07113 11.3131 8.12249Z" fill="#FFFF00"/>
</g>
<defs>
<clipPath id="clip0_202_175">
<rect width="27" height="20" fill="white"/>
</clipPath>
</defs>
</svg>
