<svg width="27" height="20" viewBox="0 0 27 20" fill="none" xmlns="http://www.w3.org/2000/svg">
<g clip-path="url(#clip0_202_105)">
<path fill-rule="evenodd" clip-rule="evenodd" d="M0.000762939 0.000976562H27.0008V20.001H0.000762939V0.000976562Z" fill="white"/>
<path fill-rule="evenodd" clip-rule="evenodd" d="M3.06859 6.42708L5.71142 2.326L6.41137 2.75904L3.76854 6.86013L3.06859 6.42708ZM4.11852 7.07665L6.76134 2.97556L7.46129 3.40861L4.81847 7.50969L4.11852 7.07665ZM5.16844 7.72621L7.81127 3.62513L8.51122 4.05817L5.86839 8.15925L5.16844 7.72621Z" fill="black"/>
<path fill-rule="evenodd" clip-rule="evenodd" d="M3.06859 6.42708L5.71142 2.326L6.41137 2.75904L3.76854 6.86013L3.06859 6.42708ZM4.11852 7.07665L6.76134 2.97556L7.46129 3.40861L4.81847 7.50969L4.11852 7.07665ZM5.16844 7.72621L7.81127 3.62513L8.51122 4.05817L5.86839 8.15925L5.16844 7.72621Z" fill="black"/>
<path fill-rule="evenodd" clip-rule="evenodd" d="M18.4903 15.9562L21.1331 11.8552L21.8331 12.2882L19.1903 16.3893L18.4903 15.9562ZM19.5402 16.6058L22.1831 12.5047L22.883 12.9378L20.2402 17.0389L19.5402 16.6058ZM20.5902 17.2554L23.233 13.1543L23.9329 13.5873L21.2901 17.6884L20.5902 17.2554Z" fill="black"/>
<path fill-rule="evenodd" clip-rule="evenodd" d="M18.4903 15.9562L21.1331 11.8552L21.8331 12.2882L19.1903 16.3893L18.4903 15.9562ZM19.5402 16.6058L22.1831 12.5047L22.883 12.9378L20.2402 17.0389L19.5402 16.6058ZM20.5902 17.2554L23.233 13.1543L23.9329 13.5873L21.2901 17.6884L20.5902 17.2554Z" fill="black"/>
<path fill-rule="evenodd" clip-rule="evenodd" d="M19.4558 13.936L22.9656 16.2479L19.4558 13.936Z" fill="black"/>
<path d="M19.4558 13.936L22.9656 16.2479" stroke="white" stroke-width="0.4"/>
<path fill-rule="evenodd" clip-rule="evenodd" d="M9.30197 7.32204C10.0143 6.22359 11.1387 5.45289 12.4276 5.17948C13.7166 4.90606 15.0646 5.15234 16.1752 5.86412C17.2857 6.5759 18.0677 7.69489 18.3492 8.97492C18.6308 10.2549 18.3887 11.5912 17.6764 12.6896L9.30197 7.32204Z" fill="#CD2E3A"/>
<path fill-rule="evenodd" clip-rule="evenodd" d="M9.30197 7.32204C8.5896 8.42049 8.34756 9.7567 8.6291 11.0367C8.91063 12.3167 9.69268 13.4357 10.8032 14.1475C11.9137 14.8593 13.2617 15.1056 14.5507 14.8322C15.8397 14.5588 16.964 13.788 17.6764 12.6896C18.0326 12.1404 18.1536 11.4723 18.0128 10.8323C17.872 10.1922 17.481 9.63275 16.9258 9.27686C16.3705 8.92097 15.6965 8.79783 15.052 8.93454C14.4075 9.07124 13.8454 9.4566 13.4892 10.0058L9.30197 7.32204Z" fill="#0047A0"/>
<path d="M13.4892 10.0058C14.2309 8.86212 13.8948 7.33419 12.7386 6.59308C11.5823 5.85197 10.0437 6.17834 9.30197 7.32204C8.56025 8.46574 8.89632 9.99367 10.0526 10.7348C11.2089 11.4759 12.7475 11.1495 13.4892 10.0058Z" fill="#CD2E3A"/>
<path fill-rule="evenodd" clip-rule="evenodd" d="M6.14692 18.0363L3.28535 14.0614L3.96099 13.5968L6.82255 17.5717L6.14692 18.0363ZM7.16037 17.3393L4.29881 13.3645L4.97445 12.8999L7.83601 16.8747L7.16037 17.3393ZM8.17383 16.6424L5.31227 12.6676L5.9879 12.203L8.84947 16.1778L8.17383 16.6424Z" fill="black"/>
<path fill-rule="evenodd" clip-rule="evenodd" d="M6.14692 18.0363L3.28535 14.0614L3.96099 13.5968L6.82255 17.5717L6.14692 18.0363ZM7.16037 17.3393L4.29881 13.3645L4.97445 12.8999L7.83601 16.8747L7.16037 17.3393ZM8.17383 16.6424L5.31227 12.6676L5.9879 12.203L8.84947 16.1778L8.17383 16.6424Z" fill="black"/>
<path fill-rule="evenodd" clip-rule="evenodd" d="M21.0238 7.81676L18.1622 3.84193L18.8379 3.37731L21.6994 7.35215L21.0238 7.81676ZM22.0373 7.11984L19.1757 3.14501L19.8513 2.6804L22.7129 6.65523L22.0373 7.11984ZM23.0507 6.42293L20.1892 2.44809L20.8648 1.98348L23.7264 5.95831L23.0507 6.42293Z" fill="black"/>
<path fill-rule="evenodd" clip-rule="evenodd" d="M21.0238 7.81676L18.1622 3.84193L18.8379 3.37731L21.6994 7.35215L21.0238 7.81676ZM22.0373 7.11984L19.1757 3.14501L19.8513 2.6804L22.7129 6.65523L22.0373 7.11984ZM23.0507 6.42293L20.1892 2.44809L20.8648 1.98348L23.7264 5.95831L23.0507 6.42293Z" fill="black"/>
<path fill-rule="evenodd" clip-rule="evenodd" d="M5.61355 15.4415L6.62302 14.7479L5.61355 15.4415ZM19.2414 6.07849L20.4191 5.26934L19.2414 6.07849ZM21.4286 4.57578L22.438 3.88223L21.4286 4.57578Z" fill="black"/>
<path d="M5.61355 15.4415L6.62302 14.7479M19.2414 6.07849L20.4191 5.26934M21.4286 4.57578L22.438 3.88223" stroke="white" stroke-width="0.4"/>
</g>
<defs>
<clipPath id="clip0_202_105">
<rect width="27" height="20" fill="white"/>
</clipPath>
</defs>
</svg>
