<svg width="27" height="20" viewBox="0 0 27 20" fill="none" xmlns="http://www.w3.org/2000/svg">
<g clip-path="url(#clip0_202_157)">
<path fill-rule="evenodd" clip-rule="evenodd" d="M0 0H27V20H0V0Z" fill="#00ABC2"/>
<path fill-rule="evenodd" clip-rule="evenodd" d="M2.53969 19.4583C2.67891 19.5917 2.6325 19.8125 3.01641 19.7833C3.59859 19.7833 3.61547 19.4333 3.61547 19.1875C3.61547 18.9417 2.74219 18.6 2.7 18.2375C2.65781 17.875 2.9025 17.7792 3.105 17.7792C3.30328 17.7792 3.4425 17.8917 3.4425 17.9917C3.4425 18.0917 3.34969 18.125 3.20625 18.125C3.06281 18.125 3.26953 18.0542 3.14719 18C3.02484 17.9458 2.94469 18.0833 2.94469 18.1667C2.94469 18.2583 3.24844 18.2833 3.45094 18.2208C3.49313 18.4167 3.51 18.4292 3.22734 18.7625C3.42984 18.6333 3.44672 18.6042 3.67031 18.6792C3.44672 18.4875 3.61547 18.1042 3.61969 18.0083C3.62391 17.9125 3.5775 17.7958 3.49313 17.7375C3.32859 17.5917 2.97844 17.5833 2.7675 17.6792C2.45953 17.8125 2.44266 18.2125 2.52281 18.3458L3.375 19.1958C3.43406 19.2958 3.45938 19.5792 3.09656 19.5917C2.71688 19.6208 2.58188 19.1083 2.51437 18.9375C2.42578 19.125 2.32453 19.6375 1.94063 19.6083C1.57781 19.5958 1.51031 19.3167 1.56938 19.2125L2.44266 18.3375C2.52703 18.2042 2.51016 17.8042 2.20219 17.6708C1.99125 17.575 1.64109 17.5875 1.48078 17.7292C1.38797 17.7875 1.33734 17.9 1.34578 18C1.35422 18.1 1.51875 18.4792 1.29937 18.6667C1.51875 18.5958 1.53984 18.625 1.74234 18.75C1.45969 18.4208 1.48078 18.4083 1.51875 18.2083C1.72125 18.275 2.025 18.25 2.025 18.1625C2.025 18.075 1.94062 17.9292 1.81828 17.9875C1.70016 18.0458 1.90266 18.1167 1.75922 18.1167C1.62 18.1167 1.51875 18.0875 1.51875 17.9917C1.51875 17.8958 1.65797 17.7708 1.86047 17.7708C2.06297 17.7708 2.30344 17.8708 2.26125 18.2333C2.21906 18.5958 1.33312 18.9875 1.33312 19.2333C1.33312 19.4833 1.39219 19.7792 1.97438 19.7792C2.35406 19.8083 2.40047 19.5875 2.53969 19.4542V19.4583Z" fill="#FFEC2D"/>
<path fill-rule="evenodd" clip-rule="evenodd" d="M2.49328 14.3042C2.6325 14.1708 2.74641 13.7792 3.12609 13.8042C3.70828 13.8042 3.92766 14.125 3.92766 14.3708C3.92766 14.6167 2.74641 16.6208 2.70422 16.9833C2.66203 17.3458 2.90672 17.4458 3.105 17.4458C3.3075 17.4458 3.44672 17.3333 3.44672 17.2292C3.44672 17.125 3.34547 17.1042 3.20625 17.1042C3.06703 17.1042 3.26531 17.175 3.14719 17.2292C3.02906 17.2833 2.94469 17.1458 2.94469 17.0583C2.94469 16.9708 3.24844 16.9417 3.45094 17.0083C3.48891 16.8125 3.50578 16.8 3.22734 16.4667C3.42984 16.5917 3.44672 16.625 3.67031 16.55C3.44672 16.7417 3.61125 17.1208 3.61969 17.2167C3.62813 17.3125 3.5775 17.4333 3.48891 17.4917C3.32859 17.6375 2.97422 17.6417 2.76328 17.55C2.45953 17.4125 2.44266 17.0167 2.52281 16.8833L3.67031 14.4417C3.73359 14.3417 3.57328 14.0083 3.21047 13.9958C2.83078 13.9667 2.7 14.3625 2.6325 14.5333L3.15141 14.4917C3.15141 14.4917 3.1725 14.575 3.15141 14.625C2.97731 14.6376 2.80406 14.6598 2.6325 14.6917L2.61141 14.95H2.86453L2.84766 15.0667C2.84766 15.0667 2.6325 15.05 2.61141 15.0667C2.59031 15.0792 2.56922 15.325 2.56922 15.325C2.56922 15.325 2.52703 15.3417 2.48484 15.3417C2.44266 15.3417 2.40047 15.325 2.40047 15.325C2.40047 15.325 2.38359 15.0792 2.3625 15.0667C2.34141 15.05 2.12625 15.0667 2.12625 15.0667L2.10516 14.95H2.3625L2.34141 14.6917C2.34141 14.6917 2.08828 14.6417 1.8225 14.625C1.80563 14.575 1.8225 14.4958 1.8225 14.4958L2.34141 14.5333C2.27391 14.3625 2.14313 13.9667 1.76344 13.9917C1.40062 14.0083 1.24031 14.3417 1.29937 14.4417L2.44688 16.8833C2.52703 17.0125 2.51016 17.4125 2.20641 17.55C1.99547 17.6417 1.64109 17.6333 1.48078 17.4917C1.39219 17.4333 1.34156 17.3167 1.35 17.2208C1.35844 17.125 1.51875 16.7375 1.29937 16.5542C1.52297 16.625 1.54406 16.5958 1.74234 16.4667C1.46391 16.8 1.48078 16.8125 1.52297 17.0083C1.72125 16.9417 2.025 16.9667 2.025 17.0583C2.025 17.1417 1.94063 17.2875 1.8225 17.2292C1.70438 17.1708 1.90688 17.1042 1.76344 17.1042C1.62422 17.1042 1.52297 17.1292 1.52297 17.2292C1.52297 17.3292 1.66219 17.4458 1.86047 17.4458C2.05875 17.4458 2.30344 17.3458 2.26547 16.9875C2.22328 16.625 1.04203 14.6125 1.04203 14.3708C1.04203 14.1208 1.26141 13.8083 1.84359 13.8083C2.22328 13.7792 2.3625 14.1708 2.4975 14.3042H2.49328Z" fill="#FFEC2D"/>
<path fill-rule="evenodd" clip-rule="evenodd" d="M2.49328 13.3083C2.6325 13.4417 2.74641 13.8333 3.12609 13.8083C3.70828 13.8083 3.92766 13.4875 3.92766 13.2417C3.92766 12.9958 2.74641 10.9917 2.70422 10.6292C2.66203 10.2667 2.90672 10.1667 3.105 10.1667C3.3075 10.1667 3.44672 10.2792 3.44672 10.3833C3.44672 10.4875 3.34547 10.5083 3.20625 10.5083C3.06703 10.5083 3.26531 10.4417 3.14719 10.3833C3.02906 10.325 2.94469 10.4667 2.94469 10.5542C2.94469 10.6417 3.24844 10.6708 3.45094 10.6042C3.48891 10.8 3.50578 10.8125 3.22734 11.1458C3.42984 11.0208 3.44672 10.9875 3.67031 11.0625C3.44672 10.8708 3.61125 10.4917 3.61969 10.3958C3.62813 10.3 3.5775 10.1792 3.48891 10.1208C3.32859 9.97917 2.97422 9.97083 2.76328 10.0625C2.45953 10.2 2.44266 10.5958 2.52281 10.7292L3.67031 13.1667C3.73359 13.2667 3.57328 13.6 3.21047 13.6125C2.83078 13.6417 2.7 13.2458 2.6325 13.075L3.15141 13.1167C3.15141 13.1167 3.1725 13.0333 3.15141 12.9833C2.97731 12.9708 2.80406 12.9485 2.6325 12.9167L2.61141 12.6583H2.86453L2.84766 12.5417C2.84766 12.5417 2.6325 12.5583 2.61141 12.5417C2.59031 12.5292 2.56922 12.2833 2.56922 12.2833C2.56922 12.2833 2.52703 12.2667 2.48484 12.2667C2.44266 12.2667 2.40047 12.2833 2.40047 12.2833C2.40047 12.2833 2.38359 12.5292 2.3625 12.5417C2.34141 12.5583 2.12625 12.5417 2.12625 12.5417L2.10516 12.6583H2.3625L2.34141 12.9167C2.34141 12.9167 2.08828 12.9667 1.8225 12.9833C1.80563 13.0333 1.8225 13.1125 1.8225 13.1125L2.34141 13.075C2.27391 13.2458 2.14313 13.6417 1.76344 13.6167C1.40062 13.6 1.24031 13.2667 1.29937 13.1667L2.44688 10.7292C2.52703 10.5958 2.51016 10.2 2.20641 10.0625C1.99547 9.97083 1.64109 9.97917 1.48078 10.1208C1.39219 10.1792 1.34156 10.2958 1.35 10.3917C1.35844 10.4875 1.51875 10.8708 1.29937 11.0583C1.52297 10.9875 1.54406 11.0167 1.74234 11.1458C1.46391 10.8125 1.48078 10.8 1.52297 10.6042C1.72125 10.6708 2.025 10.6458 2.025 10.5542C2.025 10.4708 1.94063 10.325 1.8225 10.3833C1.70438 10.4417 1.90688 10.5083 1.76344 10.5083C1.62422 10.5083 1.52297 10.4833 1.52297 10.3833C1.52297 10.2833 1.66219 10.1667 1.86047 10.1667C2.05875 10.1667 2.30344 10.2667 2.26547 10.625C2.22328 10.9875 1.04203 13 1.04203 13.2417C1.04203 13.4917 1.26141 13.8042 1.84359 13.8042C2.22328 13.8333 2.3625 13.4417 2.4975 13.3083H2.49328Z" fill="#FFEC2D"/>
<path fill-rule="evenodd" clip-rule="evenodd" d="M2.49328 6.69167C2.6325 6.55833 2.74641 6.16667 3.12609 6.19167C3.70828 6.19167 3.92766 6.5125 3.92766 6.75833C3.92766 7.00417 2.74641 9.00833 2.70422 9.375C2.66203 9.73333 2.90672 9.83333 3.105 9.83333C3.3075 9.83333 3.44672 9.72083 3.44672 9.62083C3.44672 9.52083 3.34547 9.4875 3.20625 9.4875C3.06703 9.4875 3.26531 9.5625 3.14719 9.62083C3.02906 9.67917 2.94469 9.53333 2.94469 9.44583C2.94469 9.3625 3.24844 9.32917 3.45094 9.39583C3.48891 9.2 3.50578 9.1875 3.22734 8.85417C3.42984 8.98333 3.44672 9.0125 3.67031 8.9375C3.44672 9.12917 3.61125 9.5125 3.61969 9.60417C3.62813 9.69583 3.5775 9.82083 3.48891 9.87917C3.32859 10.025 2.97422 10.0292 2.76328 9.9375C2.45953 9.8 2.44266 9.40417 2.52281 9.27083L3.67031 6.83333C3.73359 6.73333 3.57328 6.4 3.21047 6.3875C2.83078 6.35833 2.7 6.75417 2.6325 6.925L3.15141 6.88333C3.15141 6.88333 3.1725 6.96667 3.15141 7.01667C2.88141 7.03333 2.6325 7.08333 2.6325 7.08333L2.61141 7.34167H2.86453L2.84766 7.45833C2.84766 7.45833 2.6325 7.44583 2.61141 7.45833C2.59031 7.47083 2.56922 7.72083 2.56922 7.72083C2.56922 7.72083 2.52703 7.73333 2.48484 7.73333C2.44266 7.73333 2.40047 7.72083 2.40047 7.72083C2.40047 7.72083 2.38359 7.47083 2.3625 7.45833C2.34141 7.44583 2.12625 7.45833 2.12625 7.45833L2.10516 7.34167H2.3625L2.34141 7.08333C2.34141 7.08333 2.08828 7.03333 1.8225 7.01667C1.80563 6.96667 1.8225 6.8875 1.8225 6.8875L2.34141 6.925C2.27391 6.75417 2.14313 6.35833 1.76344 6.38333C1.40062 6.4 1.24031 6.73333 1.29937 6.83333L2.44688 9.27083C2.52703 9.40417 2.51016 9.8 2.20641 9.9375C1.99547 10.0292 1.64109 10.0208 1.48078 9.87917C1.39219 9.82083 1.34156 9.70417 1.35 9.60833C1.35844 9.5125 1.51875 9.12917 1.29937 8.94167C1.52297 9.0125 1.54406 8.98333 1.74234 8.85417C1.46391 9.1875 1.48078 9.2 1.52297 9.39583C1.72125 9.32917 2.025 9.35833 2.025 9.44583C2.025 9.52917 1.94063 9.675 1.8225 9.61667C1.70438 9.5625 1.90688 9.49167 1.76344 9.49167C1.62422 9.49167 1.52297 9.51667 1.52297 9.61667C1.52297 9.71667 1.66219 9.83333 1.86047 9.83333C2.05875 9.83333 2.30344 9.73333 2.26547 9.375C2.22328 9.0125 1.04203 7.00417 1.04203 6.75833C1.04203 6.5125 1.26141 6.19583 1.84359 6.19583C2.22328 6.16667 2.3625 6.55833 2.4975 6.69583L2.49328 6.69167Z" fill="#FFEC2D"/>
<path fill-rule="evenodd" clip-rule="evenodd" d="M2.49328 5.69583C2.6325 5.82917 2.74641 6.225 3.12609 6.19583C3.70828 6.19583 3.92766 5.875 3.92766 5.62917C3.92766 5.38333 2.74641 3.37917 2.70422 3.01667C2.66203 2.65417 2.90672 2.55417 3.105 2.55417C3.3075 2.55417 3.44672 2.67083 3.44672 2.77083C3.44672 2.87083 3.34547 2.9 3.20625 2.9C3.06703 2.9 3.26531 2.82917 3.14719 2.77083C3.02906 2.7125 2.94469 2.85417 2.94469 2.94167C2.94469 3.02917 3.24844 3.05833 3.45094 2.99167C3.48891 3.1875 3.50578 3.2 3.22734 3.53333C3.42984 3.40833 3.44672 3.375 3.67031 3.45C3.44672 3.2625 3.61125 2.87917 3.61969 2.78333C3.62813 2.6875 3.5775 2.56667 3.48891 2.50833C3.32859 2.36667 2.97422 2.35833 2.76328 2.45417C2.45953 2.5875 2.44266 2.9875 2.52281 3.11667L3.67031 5.55833C3.73359 5.65833 3.57328 5.99167 3.21047 6.00833C2.83078 6.03333 2.7 5.64167 2.6325 5.46667L3.15141 5.50833C3.15141 5.50833 3.1725 5.425 3.15141 5.375C2.9774 5.36368 2.80416 5.34282 2.6325 5.3125L2.61141 5.05H2.86453L2.84766 4.93333C2.84766 4.93333 2.6325 4.95 2.61141 4.93333C2.59031 4.92083 2.56922 4.675 2.56922 4.675C2.56922 4.675 2.52703 4.65833 2.48484 4.65833C2.44266 4.65833 2.40047 4.675 2.40047 4.675C2.40047 4.675 2.38359 4.92083 2.3625 4.93333C2.34141 4.95 2.12625 4.93333 2.12625 4.93333L2.10516 5.05H2.3625L2.34141 5.3125C2.34141 5.3125 2.08828 5.35833 1.8225 5.375C1.80563 5.42917 1.8225 5.50833 1.8225 5.50833L2.34141 5.46667C2.27391 5.64167 2.14313 6.03333 1.76344 6.00833C1.40062 5.99167 1.24031 5.65833 1.29937 5.55833L2.44688 3.11667C2.52703 2.9875 2.51016 2.5875 2.20641 2.45C1.99547 2.35833 1.64109 2.36667 1.48078 2.50833C1.39219 2.56667 1.34156 2.68333 1.35 2.77917C1.35844 2.875 1.51875 3.2625 1.29937 3.44583C1.52297 3.375 1.54406 3.40417 1.74234 3.53333C1.46391 3.2 1.48078 3.1875 1.52297 2.99167C1.72547 3.05833 2.025 3.03333 2.025 2.94167C2.025 2.85833 1.94063 2.7125 1.8225 2.77083C1.70438 2.82917 1.90688 2.9 1.76344 2.9C1.62422 2.9 1.52297 2.87083 1.52297 2.77083C1.52297 2.67083 1.66219 2.55417 1.86047 2.55417C2.05875 2.55417 2.30766 2.65417 2.26547 3.0125C2.22328 3.375 1.04203 5.3875 1.04203 5.62917C1.04203 5.87917 1.26141 6.19583 1.84359 6.19583C2.22328 6.225 2.3625 5.82917 2.4975 5.69583H2.49328Z" fill="#FFEC2D"/>
<path fill-rule="evenodd" clip-rule="evenodd" d="M2.53969 0.541667C2.67891 0.408333 2.6325 0.1875 3.01641 0.216667C3.59859 0.216667 3.61547 0.566667 3.61547 0.8125C3.61547 1.05833 2.74219 1.4 2.7 1.7625C2.65781 2.125 2.9025 2.22083 3.105 2.22083C3.30328 2.22083 3.4425 2.10833 3.4425 2.00833C3.4425 1.90833 3.34969 1.875 3.20625 1.875C3.06281 1.875 3.26953 1.94583 3.14719 2C3.02484 2.05417 2.94469 1.91667 2.94469 1.83333C2.94469 1.74167 3.24844 1.7125 3.45094 1.77917C3.49313 1.58333 3.51 1.57083 3.22734 1.2375C3.42984 1.36667 3.44672 1.39583 3.67031 1.32083C3.44672 1.5125 3.61547 1.89583 3.61969 1.99167C3.62391 2.0875 3.5775 2.20417 3.49313 2.2625C3.32438 2.41667 2.97422 2.41667 2.76328 2.325C2.45531 2.19167 2.43844 1.79167 2.51859 1.65833L3.375 0.804167C3.43406 0.704167 3.45938 0.420833 3.09656 0.408333C2.71688 0.379167 2.58188 0.891667 2.51437 1.0625C2.42578 0.875 2.32453 0.358333 1.94063 0.3875C1.57781 0.4 1.51031 0.679167 1.56938 0.783333L2.44266 1.65833C2.52703 1.79167 2.51016 2.19167 2.20219 2.325C1.99125 2.42083 1.64109 2.4125 1.48078 2.26667C1.38797 2.20833 1.33734 2.09583 1.34578 1.99583C1.35422 1.89583 1.51875 1.51667 1.29937 1.32917C1.51875 1.4 1.53984 1.37083 1.73813 1.24583C1.45969 1.575 1.48078 1.5875 1.51875 1.7875C1.72125 1.72083 2.025 1.74583 2.025 1.83333C2.025 1.92083 1.94062 2.06667 1.81828 2.00833C1.70016 1.95 1.90266 1.87917 1.75922 1.87917C1.62 1.87917 1.51875 1.90833 1.51875 2.00417C1.51875 2.1 1.65797 2.225 1.86047 2.225C2.06297 2.225 2.30344 2.125 2.26125 1.7625C2.21906 1.4 1.33312 1.00833 1.33312 0.7625C1.33312 0.5125 1.39219 0.216667 1.97438 0.216667C2.35406 0.1875 2.40047 0.408333 2.53969 0.541667Z" fill="#FFEC2D"/>
<path d="M18.6265 8.57961C18.6265 6.5988 16.911 4.99304 14.7947 4.99304C12.6785 4.99304 10.963 6.5988 10.963 8.57961C10.963 10.5604 12.6785 12.1662 14.7947 12.1662C16.911 12.1662 18.6265 10.5604 18.6265 8.57961Z" fill="#FFEC2D"/>
<path fill-rule="evenodd" clip-rule="evenodd" d="M14.6146 2.85399C14.5786 2.85399 14.4075 4.04581 14.3445 4.31263C14.2814 4.91299 15.155 4.89075 15.0109 4.2904L14.6146 2.84954V2.85399ZM14.9208 14.4075C14.9523 14.4075 15.2135 13.229 15.299 12.9667C15.4026 12.3752 14.5291 12.3441 14.6236 12.9489L14.9208 14.4075ZM8.8152 8.55515C8.8152 8.58628 10.0714 8.83532 10.3506 8.91536C10.981 9.01765 11.026 8.20383 10.3776 8.29277L8.8152 8.5596V8.55515ZM21.049 8.69746C21.049 8.66633 19.7792 8.46176 19.4955 8.39061C18.8607 8.31501 18.8562 9.12882 19.4955 9.01765L21.049 8.69746ZM10.103 4.77513C10.0804 4.79736 10.9089 5.72236 11.0755 5.94916C11.5078 6.39387 12.0796 5.77128 11.5078 5.46887L10.103 4.77958V4.77513ZM19.6081 12.3796C19.6306 12.3574 18.7211 11.5036 18.532 11.2946C18.0592 10.8854 17.5504 11.548 18.1447 11.806L19.6081 12.3841V12.3796ZM11.9986 3.48547C11.9716 3.49882 12.3588 4.64616 12.4218 4.91744C12.638 5.48221 13.4214 5.11311 13.0162 4.62838L12.0031 3.48547H11.9986ZM17.5414 13.8205C17.5729 13.8072 17.2712 12.6376 17.2307 12.3663C17.0551 11.7882 16.2491 12.0995 16.6138 12.6153L17.5459 13.816L17.5414 13.8205ZM18.9057 4.28595C18.8787 4.26371 17.8791 5.02417 17.6359 5.17537C17.1541 5.5756 17.807 6.11815 18.1402 5.58894L18.9057 4.28595ZM10.6658 12.8999C10.6883 12.9222 11.7464 12.2329 11.9986 12.095C12.5074 11.7304 11.8995 11.1434 11.5258 11.6503L10.6703 12.8999H10.6658ZM9.08986 6.4917C9.07635 6.51838 10.1705 7.14542 10.4091 7.30997C10.972 7.59903 11.3007 6.84302 10.6568 6.72295L9.08986 6.4917ZM20.5131 10.8676C20.5266 10.841 19.4775 10.1428 19.2524 9.96487C18.7121 9.63579 18.3293 10.3696 18.9642 10.5297L20.5131 10.8676ZM16.884 3.17863C16.8525 3.16973 16.2266 4.21924 16.06 4.44604C16.0603 4.51847 16.0836 4.58898 16.1265 4.6477C16.1694 4.70641 16.2299 4.75037 16.2994 4.77342C16.3689 4.79647 16.444 4.79745 16.5141 4.77623C16.5842 4.755 16.6459 4.71263 16.6904 4.65506L16.884 3.17863ZM12.656 14.0428C12.6875 14.0562 13.3899 13.0467 13.57 12.8288C13.8987 12.3129 13.1017 11.9839 12.9532 12.5798L12.656 14.0428ZM9.16641 10.961C9.17992 10.9877 10.4272 10.6942 10.7198 10.6497C11.3322 10.4807 10.99 9.73363 10.4497 10.0805L9.16641 10.961ZM20.5176 6.39387C20.5086 6.36718 19.2434 6.5762 18.9507 6.60288C18.3203 6.73184 18.613 7.50119 19.1758 7.18989L20.5176 6.39387Z" fill="#FFEC2D"/>
<path fill-rule="evenodd" clip-rule="evenodd" d="M15.8574 2.92959C15.8259 2.92514 15.4026 4.05915 15.2765 4.30818C15.0919 4.88631 15.9519 5.02861 15.9384 4.41491L15.8619 2.92514L15.8574 2.92959ZM13.6736 14.3097C13.7051 14.3186 14.2139 13.2112 14.358 12.9667C14.5831 12.4063 13.7366 12.2107 13.7051 12.8199L13.6691 14.3097H13.6736ZM13.2368 3.04077C13.2053 3.04966 13.3224 4.25037 13.3224 4.52609C13.4079 5.11755 14.2499 4.91299 13.9708 4.36155L13.2368 3.04077ZM16.2986 14.243C16.3302 14.2385 16.2986 13.0334 16.3212 12.7576C16.2806 12.1573 15.4206 12.3085 15.6638 12.8777L16.2941 14.243H16.2986ZM11.0665 4.03691C11.0395 4.0547 11.6384 5.11755 11.7509 5.37104C12.0751 5.89135 12.773 5.40217 12.2823 4.98859L11.0665 4.03691ZM18.4869 13.2824C18.514 13.2646 17.9916 12.1617 17.9016 11.9038C17.6179 11.3657 16.8885 11.8104 17.3433 12.2507L18.4869 13.2824ZM9.48159 5.53113C9.46358 5.55782 10.4317 6.3494 10.6343 6.55396C11.1341 6.92752 11.5978 6.23377 10.9855 6.01586L9.48159 5.53113ZM20.0269 11.7437C20.0449 11.717 19.1398 10.8632 18.9507 10.6497C18.4824 10.245 17.9691 10.9077 18.5635 11.1656L20.0269 11.7437ZM8.78818 7.39446C8.77918 7.42559 9.97239 7.87475 10.2335 8.00371C10.8369 8.20383 11.0305 7.4078 10.3731 7.39001L8.78818 7.39446ZM20.8283 9.96487C20.8418 9.93819 19.6847 9.41344 19.4325 9.26668C18.8472 9.02654 18.5905 9.80923 19.2434 9.87149L20.8283 9.96487ZM8.74766 9.68471C8.75216 9.71139 10.0399 9.6936 10.3326 9.71584C10.972 9.68471 10.8189 8.87979 10.2065 9.09769L8.74766 9.68471ZM20.9139 7.68352C20.9139 7.65239 19.6261 7.58568 19.3379 7.54566C18.6941 7.53677 18.7886 8.35058 19.4145 8.16825L20.9139 7.67907V7.68352ZM9.85081 12.0595C9.86882 12.0861 11.0215 11.5436 11.2917 11.4413C11.85 11.1522 11.3367 10.4896 10.8909 10.9388L9.85081 12.0595ZM19.8603 5.28654C19.8422 5.25986 18.658 5.7268 18.3744 5.8113C17.7935 6.06478 18.2573 6.75853 18.7346 6.3405L19.8603 5.28654ZM11.7239 13.6337C11.7509 13.6471 12.5749 12.7221 12.7821 12.5264C13.1738 12.0506 12.4218 11.637 12.2012 12.2151L11.7239 13.6337ZM18.0142 3.68115C17.9916 3.66336 17.1001 4.53054 16.8795 4.71287C16.4562 5.16202 17.1767 5.62452 17.4378 5.06419L18.0097 3.68115H18.0142Z" fill="#FFEC2D"/>
<path fill-rule="evenodd" clip-rule="evenodd" d="M8.93597 10.9652C9.00476 11.1945 9.01458 12.4788 10.4001 13.7173C11.7759 14.9466 14.1343 15.2218 14.1343 15.2218C14.1343 15.2218 14.1441 15.3961 13.977 15.4053C13.81 15.4237 13.0042 15.2677 12.6013 15.1484C12.2082 15.0384 11.8545 14.8365 11.8152 14.8457C11.766 14.8641 11.6874 14.9925 11.5695 14.9741C11.4516 14.9558 10.8816 14.4054 10.6262 14.2586C10.1151 13.8462 9.66271 13.3745 9.2799 12.855C9.00476 12.4421 8.93597 12.1669 8.84753 12.1669C8.75909 12.1669 8.43481 12.3688 8.43481 12.3688C8.43481 12.3688 8.14001 11.9559 7.88452 11.2954C7.6192 10.6349 7.64868 10.2496 7.70764 10.2221C7.77643 10.1945 7.77643 10.7083 7.97296 11.1762C8.16949 11.6532 8.44464 11.8 8.44464 11.8C8.44464 11.8 8.26776 11.5523 8.13019 10.9376C7.99261 10.323 7.93365 9.72668 8.03192 9.5432C8.13019 9.35972 8.21863 9.30468 8.22845 9.31385C8.24811 9.3322 8.0614 9.59824 8.18915 10.3046C8.31689 11.011 8.66083 11.6073 8.73944 11.5798C8.81805 11.5523 8.69031 11.4055 8.64117 10.9927C8.59204 10.5799 8.69031 10.323 8.7984 10.2863C8.84753 10.2496 8.92615 10.745 8.93597 10.9652ZM7.97296 12.1394C7.70764 11.9101 7.29492 11.1119 7.20648 11.1486C7.10822 11.1945 7.8747 12.3412 7.89435 12.433C7.914 12.5431 8.08105 12.855 7.95331 12.8091C7.82556 12.7632 6.91169 11.8642 7.01978 12.0385C7.12787 12.2128 7.81573 13.0018 7.77643 13.0476C7.73712 13.0935 7.20648 12.6073 7.18683 12.6715C7.177 12.7265 7.70764 13.2036 7.69782 13.2586C7.68799 13.3137 7.35388 12.9559 7.35388 13.0293C7.35388 13.1027 7.69782 13.4605 7.69782 13.5155C7.69782 13.5705 7.40302 13.2586 7.50128 13.4238C7.58972 13.6072 7.84521 13.7632 7.83539 13.8182C7.82556 13.8733 7.6192 13.7448 7.6192 13.7724C7.6192 13.7999 8.00244 13.9283 8.09088 14.0292C8.18915 14.1301 8.81805 14.809 9.28973 15.1484C9.76141 15.4879 11.1175 16.0842 11.2157 16.0842C11.3042 16.0842 11.4418 15.9007 11.4123 15.8273C11.3828 15.7539 10.0562 15.3319 9.69262 15.02C9.31921 14.7081 8.41516 13.9558 8.33655 13.9191C8.26776 13.8733 8.0614 13.8916 8.0614 13.8458C8.0614 13.7999 8.32672 13.8733 8.30707 13.8458C8.29724 13.8182 7.94348 13.6715 7.95331 13.6439C7.97296 13.6164 8.19897 13.699 8.19897 13.6715C8.19897 13.6439 7.78626 13.4329 7.80591 13.3871C7.81574 13.3412 8.11054 13.5155 8.11054 13.4788C8.11054 13.4605 7.71747 13.2036 7.72729 13.1577C7.73712 13.1118 8.03192 13.3595 8.02209 13.3045C8.01227 13.2495 7.78625 12.9375 7.78625 12.9008C7.78625 12.855 8.14001 13.2128 8.17932 13.1394C8.19897 13.0751 8.05158 12.4788 8.0614 12.4697C8.07123 12.4605 8.32672 12.5981 8.36603 12.5155C8.41516 12.4238 8.18915 12.3045 7.97296 12.1394ZM12.503 16.653C12.3163 16.6805 12.2279 16.6163 12.336 16.4695C12.4834 16.4695 12.8765 16.3502 13.014 16.2952C13.1516 16.2401 13.299 16.1667 13.4169 16.0658C13.5348 15.9466 13.6134 16.1301 13.5447 16.231C13.4955 16.2952 13.2695 16.4144 13.1025 16.4787C12.8568 16.5521 12.6406 16.6621 12.503 16.653ZM13.7314 16.1851C13.6036 16.0567 13.7117 15.9649 13.8984 15.864C14.1736 15.7264 14.095 15.5337 14.4487 15.3778C14.6059 15.2861 16.8071 14.4604 17.5244 14.0201C18.2418 13.5797 20.2562 12.1578 20.7967 11.1762C21.3274 10.2037 21.0719 10.1303 21.1505 10.0936C21.2193 10.0478 21.2979 10.2312 21.288 10.4514C21.2684 10.6624 21.0915 11.3046 21.1505 11.3688C21.2094 11.433 21.9563 10.8642 22.2707 10.1762C22.5852 9.48816 22.821 8.77259 22.9684 8.77259C23.1256 8.77259 22.7129 9.94685 22.4476 10.4055C22.1921 10.8642 21.8875 11.0936 21.9563 11.1945C22.0349 11.2862 22.8013 10.6899 23.0667 10.2496C23.3222 9.80007 23.5678 9.40559 23.617 9.48816C23.5388 10.0256 23.3118 10.5346 22.9586 10.9652C22.5459 11.4055 22.0545 11.7266 22.1331 11.7908C22.2019 11.8642 22.762 11.9376 23.3418 11.5706C23.9314 11.1945 23.9904 10.6532 24.0592 10.6808C24.1378 10.7083 23.9904 11.4514 23.4303 11.9101C22.8701 12.3688 22.1331 12.4146 22.1528 12.5155C22.1921 12.6073 23.7545 12.0935 23.7251 12.2128C23.6956 12.3229 21.7008 13.0568 21.6811 13.1302C21.6811 13.1852 22.025 13.2036 22.5655 13.0843C23.0961 12.9742 23.6071 12.5798 23.6759 12.6715C23.6956 12.7999 23.2927 13.1118 22.6834 13.2586C22.0644 13.4054 21.7597 13.5981 21.7401 13.6439C21.7302 13.6898 22.8407 13.5155 22.8407 13.5705C22.8407 13.6256 21.3863 13.8916 21.3765 13.965C21.3568 14.0292 22.7522 13.699 22.7326 13.7815C22.6933 13.8458 20.836 14.3595 20.8557 14.387C20.8655 14.4237 22.4083 14.0751 22.3788 14.1301C22.3395 14.1944 19.7846 14.8641 19.7649 14.9099C19.7453 14.9466 22.025 14.4329 22.0054 14.4788C21.9857 14.5246 20.8262 14.7907 20.8262 14.8182C20.8262 14.8457 21.7597 14.6806 21.7401 14.7264C21.7302 14.7631 19.3817 15.3228 19.3325 15.4053C19.2834 15.4971 20.551 15.176 20.5314 15.3411C20.5117 15.5062 17.8094 16.3502 17.7996 16.1943C17.7799 16.0383 19.4406 15.6438 19.4308 15.598C19.4112 15.5521 18.4776 15.6897 18.458 15.6071C18.4481 15.5154 19.0771 15.3319 19.0279 15.2952C18.9788 15.2494 18.5071 15.4237 18.5464 15.3227C18.5955 15.2218 19.4898 14.8365 19.4701 14.809C19.4603 14.7815 19.1458 14.9008 19.1753 14.809C19.2146 14.7081 21.1112 14.1944 21.0817 14.1301C21.0522 14.0751 20.2071 14.2586 20.1285 14.2769C20.099 14.2219 21.3077 13.7999 21.288 13.7265C21.2487 13.6623 20.6395 13.9742 20.6002 13.8916C20.5805 13.7999 21.6713 13.4054 21.6025 13.3412C21.5337 13.277 21.0424 13.5063 20.9736 13.4421C20.9048 13.3779 22.0054 12.6715 21.8383 12.6531C21.6713 12.644 21.4649 12.8733 21.4453 12.7265C21.4649 12.5431 22.3002 12.2403 22.1135 12.0935C21.8187 12.011 20.8262 12.1578 20.4135 12.3871C20.0008 12.6165 18.625 13.8916 18.2909 14.0935C17.9568 14.2861 16.8169 14.7356 16.6007 14.8274C16.2666 14.9374 16.2077 15.1026 15.8637 15.2677C15.2447 15.4237 15.2545 15.598 14.9597 15.6989C14.8516 15.7264 13.7412 16.2218 13.7314 16.1851ZM12.1788 16.8273C11.9921 16.919 11.825 17.1392 11.9331 17.2309C11.9921 17.341 12.1788 16.9832 12.3262 17.0016L13.1123 17.0383C13.5348 17.0658 13.7412 16.9557 13.977 16.9741C14.2129 16.9924 14.7337 16.8548 14.9794 16.8548C15.225 16.8548 15.2741 16.8823 15.2938 16.7814C15.3233 16.6897 14.5273 16.7539 14.1736 16.7447C13.8198 16.7264 13.3776 16.8089 13.1123 16.8089C12.8666 16.7997 12.4441 16.7264 12.1788 16.8273Z" fill="#FFEC2D"/>
<path d="M13.358 16.7172C13.358 16.6412 13.2832 16.5796 13.1909 16.5796C13.0986 16.5796 13.0239 16.6412 13.0239 16.7172C13.0239 16.7932 13.0986 16.8548 13.1909 16.8548C13.2832 16.8548 13.358 16.7932 13.358 16.7172Z" fill="#FFEC2D"/>
<path fill-rule="evenodd" clip-rule="evenodd" d="M17.2788 16.4511C17.4458 16.4236 17.8979 16.5704 18.2123 16.6346C18.7823 16.8456 19.8435 16.7447 19.8435 16.8456C19.8435 16.9465 19.7747 17.0658 19.5291 17.0841C19.2834 17.1025 18.6643 16.9924 18.684 16.9924C18.7036 16.9924 19.1753 17.2034 19.0377 17.2584C18.9002 17.3135 18.4973 17.1392 18.4285 17.185C18.3597 17.2309 18.8019 17.3135 18.7233 17.341C18.6643 17.3685 18.3597 17.3043 18.2614 17.3135C18.1632 17.3318 18.3401 17.4327 18.2221 17.4694C18.1042 17.5153 17.9077 17.4144 17.8291 17.4419C17.7406 17.4694 18.006 17.6254 17.888 17.6437C17.7701 17.6621 17.495 17.5704 17.3377 17.552C17.1805 17.552 17.4851 17.6988 17.3869 17.7171C17.2886 17.7263 17.0135 17.5979 16.9447 17.5979C16.8759 17.5979 16.9447 17.7813 16.8464 17.7813C16.7481 17.7813 16.6302 17.6254 16.5713 17.6254C16.5123 17.6254 16.5713 17.8089 16.473 17.8089C16.3747 17.8089 16.3354 17.6162 16.2568 17.6254C16.1585 17.6437 16.2568 17.8731 16.1192 17.8547C15.9915 17.8456 15.9718 17.6162 15.8637 17.6254C15.7655 17.6437 15.8834 17.8547 15.7851 17.8547C15.6869 17.8547 15.6672 17.6437 15.5689 17.6254C15.4707 17.6162 15.51 17.8272 15.451 17.8272C15.3921 17.8272 15.3331 17.6254 15.2938 17.6254C15.2643 17.6254 15.2938 17.8272 15.1759 17.8089C15.058 17.7905 15.058 17.5887 15.0285 17.5979C14.9892 17.6162 14.9892 17.763 14.9106 17.763C14.8319 17.763 14.8221 17.6162 14.7926 17.6346C14.7533 17.6437 14.6354 17.8272 14.5568 17.7997C14.4684 17.7722 14.5765 17.6254 14.5372 17.6254C14.4978 17.6254 14.3996 17.7263 14.3406 17.7171C14.2817 17.708 14.3406 17.5887 14.321 17.5887C14.3013 17.5887 14.1539 17.6621 14.0851 17.6621C14.0163 17.6621 13.8296 17.7538 13.7805 17.6713C13.7314 17.5795 13.9082 17.5795 13.9476 17.497C13.977 17.4144 13.8493 17.1667 13.9869 17.0841C14.1146 16.9924 14.5372 17.2034 15.1661 17.0566C16.3059 16.7722 17.1903 16.442 17.2788 16.4511Z" fill="#FFEC2D"/>
</g>
<defs>
<clipPath id="clip0_202_157">
<rect width="27" height="20" fill="white"/>
</clipPath>
</defs>
</svg>
