<svg width="27" height="20" viewBox="0 0 27 20" fill="none" xmlns="http://www.w3.org/2000/svg">
<g clip-path="url(#clip0_202_194)">
<path fill-rule="evenodd" clip-rule="evenodd" d="M0 0H8.99859V20H0V0Z" fill="#00319C"/>
<path fill-rule="evenodd" clip-rule="evenodd" d="M8.9986 0H18.0014V20H8.9986V0Z" fill="#FFDE00"/>
<path fill-rule="evenodd" clip-rule="evenodd" d="M18.0014 0H27V20H18.0014V0Z" fill="#DE2110"/>
<path fill-rule="evenodd" clip-rule="evenodd" d="M15.2044 13.35L16.2253 14.8083C16.2844 14.8916 16.3392 14.9708 16.2548 15.025C16.1705 15.0791 16.1958 15.2916 16.2548 15.375C16.3688 15.5375 16.508 15.5625 16.5923 15.5083L17.3686 15.025C17.453 14.975 17.4825 14.8375 17.3686 14.675C17.3053 14.5916 17.1155 14.4875 17.0311 14.5416C16.9425 14.5958 16.8834 14.5125 16.8286 14.4333L15.8034 12.975" fill="#FF1900"/>
<path d="M15.2044 13.35L16.2253 14.8083C16.2844 14.8916 16.3392 14.9708 16.2548 15.025C16.1705 15.0791 16.1958 15.2916 16.2548 15.375C16.3688 15.5375 16.508 15.5625 16.5923 15.5083L17.3686 15.025C17.453 14.975 17.4825 14.8375 17.3686 14.675C17.3053 14.5916 17.1155 14.4875 17.0311 14.5416C16.9425 14.5958 16.8834 14.5125 16.8286 14.4333L15.8034 12.975" stroke="black" stroke-width="0.06"/>
<path fill-rule="evenodd" clip-rule="evenodd" d="M15.6051 12.3221C16.0617 12.8344 16.2206 13.4217 15.9603 13.6283C15.7 13.8349 15.1141 13.5867 14.6575 13.0745C14.2009 12.5622 14.0442 11.9731 14.3045 11.7665C14.5648 11.5598 15.1488 11.806 15.6073 12.3203L15.6051 12.3221Z" fill="#A77B3B" stroke="black" stroke-width="0.06"/>
<path fill-rule="evenodd" clip-rule="evenodd" d="M11.0531 12.7542L10.1461 14.2833C10.0955 14.3666 10.0448 14.45 9.95625 14.4083C9.86766 14.3583 9.67781 14.4792 9.62719 14.5667C9.52594 14.7333 9.56391 14.8667 9.65672 14.9167L10.4667 15.3417C10.5511 15.3875 10.6945 15.35 10.7958 15.1833C10.8422 15.0917 10.8548 14.8792 10.7663 14.8333C10.6777 14.7875 10.7241 14.7 10.7789 14.6166L11.6817 13.0875" fill="#FF1900"/>
<path d="M11.0531 12.7542L10.1461 14.2833C10.0955 14.3666 10.0448 14.45 9.95625 14.4083C9.86766 14.3583 9.67781 14.4792 9.62719 14.5667C9.52594 14.7333 9.56391 14.8667 9.65672 14.9167L10.4667 15.3417C10.5511 15.3875 10.6945 15.35 10.7958 15.1833C10.8422 15.0916 10.8548 14.8792 10.7663 14.8333C10.6777 14.7875 10.7241 14.7 10.7789 14.6166L11.6817 13.0875" stroke="black" stroke-width="0.06"/>
<path fill-rule="evenodd" clip-rule="evenodd" d="M13.9725 11.6917H13.1456C13.1203 11.7167 12.8841 13.175 12.6309 13.7333C12.323 14.4125 11.3991 15.0125 11.3991 15.0125C11.3991 15.0125 11.9517 15.1792 12.1163 15.2875C12.1584 15.275 13.0444 15.0917 13.1456 14.025C13.2469 15.0917 12.5297 15.5792 12.5297 15.5792C12.5297 15.5792 13.5591 15.8708 13.5591 16.55C13.5591 15.8708 14.5884 15.5792 14.5884 15.5792C14.5884 15.5792 14.0738 15.0917 13.9683 14.025C14.1792 15.0917 14.9597 15.275 15.0019 15.2875C15.1664 15.1792 15.7191 15.0125 15.7191 15.0125C15.7191 15.0125 14.7952 14.4125 14.4872 13.7333C14.2341 13.175 13.9978 11.7167 13.9725 11.6917ZM10.4709 6.82918L12.015 7.31668C12.5255 7.31668 13.0444 6.82918 13.0444 6.34168C13.0613 5.25835 12.6309 4.88335 12.5297 4.88335L12.7322 4.69168L12.4242 4.40001C12.4242 4.40001 12.5297 3.89585 13.5591 3.91251C14.5884 3.93335 14.5884 4.40001 14.5884 4.88335C14.5884 5.36668 14.0738 5.37085 14.0738 6.34168C14.0738 6.82918 14.5884 7.31668 15.1031 7.31668L16.6472 6.82918V11.6917H10.4667V6.82918H10.4709Z" fill="#A77B3B" stroke="black" stroke-width="0.06"/>
<path d="M12.8369 7.02368L12.9396 7.31601L13.043 7.02368L13.1457 7.31601L13.3518 7.02368L13.4524 7.3316L13.5579 7.02368L13.7098 7.3316L13.8666 7.02368L13.9693 7.31601L14.0727 7.02368" stroke="black" stroke-width="0.0174531"/>
<path d="M13.2501 5.95593L13.0437 7.02588M13.3518 5.95593V7.02588M13.5582 5.95593V7.02588M13.7646 5.95593L13.8664 7.02588M13.971 5.95593L14.0728 7.02588" stroke="black" stroke-width="0.0168392"/>
<path fill-rule="evenodd" clip-rule="evenodd" d="M9.43575 3.91492C8.4067 4.40051 8.4067 5.37444 8.4067 5.86003C8.44158 6.30173 8.4067 15.5801 8.4067 15.5801C8.4067 15.5801 8.47356 15.0314 8.92123 14.6089L9.43285 14.1233L9.94737 13.6377C10.3253 13.314 10.4619 12.6638 10.4619 12.1782V5.37444C10.4619 5.37444 10.4619 4.8861 9.43285 3.91492H9.43575Z" fill="#A77B3B" stroke="black" stroke-width="0.06"/>
<path d="M10.4648 5.85998C10.4532 5.85998 9.95027 5.37439 9.95027 5.37439L9.43575 5.85998L8.92122 5.37439L8.40669 5.85998" stroke="black" stroke-width="0.06"/>
<path d="M10.4648 6.34424C10.4532 6.34424 9.95027 6.82983 9.95027 6.82983L9.43575 6.34424L8.92122 6.82983L8.40669 6.34424" stroke="black" stroke-width="0.06"/>
<path d="M10.4648 7.80163C10.4532 7.80163 9.95027 7.31604 9.95027 7.31604L9.43575 7.80163L8.92122 7.31604L8.40669 7.80163" stroke="black" stroke-width="0.06"/>
<path d="M9.94448 5.37317L9.95027 13.6381" stroke="black" stroke-width="0.06"/>
<path d="M9.43822 5.85901L9.44402 14.1038" stroke="black" stroke-width="0.06"/>
<path d="M8.92355 5.37537L8.92934 14.6115" stroke="black" stroke-width="0.06"/>
<path fill-rule="evenodd" clip-rule="evenodd" d="M17.6782 3.91492C18.7072 4.40051 18.7072 5.37444 18.7072 5.86003C18.6723 6.30173 18.7072 15.5801 18.7072 15.5801C18.7072 15.5801 18.6403 15.0314 18.1927 14.6089L17.6811 14.1233L17.1665 13.6377C16.7886 13.314 16.652 12.6638 16.652 12.1782V5.37444C16.652 5.37444 16.652 4.8861 17.6811 3.91492H17.6782Z" fill="#A77B3B" stroke="black" stroke-width="0.06"/>
<path d="M16.6491 5.85998C16.6607 5.85998 17.1636 5.37439 17.1636 5.37439L17.6782 5.85998L18.1927 5.37439L18.7072 5.85998" stroke="black" stroke-width="0.06"/>
<path d="M16.6491 6.34424C16.6607 6.34424 17.1636 6.82983 17.1636 6.82983L17.6782 6.34424L18.1927 6.82983L18.7072 6.34424" stroke="black" stroke-width="0.06"/>
<path d="M16.6491 7.80163C16.6607 7.80163 17.1636 7.31604 17.1636 7.31604L17.6782 7.80163L18.1927 7.31604L18.7072 7.80163" stroke="black" stroke-width="0.06"/>
<path d="M17.1694 5.37317L17.1636 13.6381" stroke="black" stroke-width="0.06"/>
<path d="M17.6799 5.85901L17.6741 14.1038" stroke="black" stroke-width="0.06"/>
<path d="M18.1946 5.37537L18.1888 14.6115" stroke="black" stroke-width="0.06"/>
<path fill-rule="evenodd" clip-rule="evenodd" d="M12.2038 12.6196C11.931 13.2375 11.4509 13.6401 11.1369 13.5167C10.823 13.3932 10.7879 12.788 11.0607 12.1701C11.3335 11.5522 11.8163 11.1506 12.1302 11.274C12.4442 11.3975 12.4804 12.0002 12.2065 12.6206L12.2038 12.6196Z" fill="#A77B3B" stroke="black" stroke-width="0.06"/>
<path fill-rule="evenodd" clip-rule="evenodd" d="M10.4667 7.31665H16.6472V10.2333H10.4667V7.31665Z" fill="#FF0000"/>
<path fill-rule="evenodd" clip-rule="evenodd" d="M10.4667 10.2333H16.6472V11.6916C16.6472 12.6624 15.1031 12.6624 13.5591 13.6333C12.0108 12.6666 10.4625 12.6666 10.4625 11.6916V10.2333H10.4667Z" fill="#564DFF"/>
<path d="M10.4682 7.31677H16.6483V11.6953C16.6483 12.6665 15.1047 12.6665 13.5582 13.6404C12.0147 12.6665 10.4682 12.6665 10.4682 11.6926V7.31952V7.31677Z" stroke="#FFFF00" stroke-width="0.168392"/>
<path fill-rule="evenodd" clip-rule="evenodd" d="M12.4238 7.51086C12.4238 7.51086 11.3942 8.22582 11.3942 8.90986C11.3942 9.5939 12.4747 9.8232 12.4747 9.8232C12.4747 9.8232 12.1145 9.8232 12.1145 10.7352C12.1145 11.1926 13.195 10.9646 13.195 11.1926C13.195 11.4206 13.1808 11.9719 13.195 12.3339C13.195 12.5619 12.4747 12.3339 12.4747 12.5619C12.4747 12.6753 13.016 13.246 13.5572 13.246C14.0985 13.246 14.6378 12.6753 14.6378 12.5619C14.6378 12.3339 13.9174 12.5619 13.9174 12.3339V11.1926C13.9174 10.9646 14.9979 11.1926 14.9979 10.7352C14.9979 9.8232 14.6378 9.8232 14.6378 9.8232C14.6378 9.8232 15.7203 9.59519 15.7203 8.90986C15.7203 8.22453 14.6886 7.51086 14.6886 7.51086C14.6886 7.51086 15.2686 8.45383 15.2686 8.90986C15.2686 9.13787 14.9979 9.59519 14.2776 9.59519C14.2776 9.59519 14.0944 9.36588 13.9174 9.59519C13.9174 9.59519 13.7098 9.36588 13.5572 9.59519C13.5043 9.67248 13.4107 9.36588 13.195 9.59519C13.1055 9.65573 13.0322 9.36588 12.8349 9.59519C12.4747 9.59519 11.7543 9.36588 11.7543 8.90986C11.7543 8.45383 12.4238 7.51086 12.4238 7.51086Z" fill="#FFFF00" stroke="black" stroke-width="0.120677"/>
<path fill-rule="evenodd" clip-rule="evenodd" d="M12.445 11.5947C12.3717 11.6411 12.5386 12.3844 12.5874 12.4166C12.6607 12.4617 13.0941 12.4617 13.1653 12.4166C13.2162 12.3844 13.1653 11.6862 13.0941 11.6411C13.0208 11.5947 12.4958 11.5638 12.4429 11.5947H12.445Z" fill="#FFFF00" stroke="black" stroke-width="0.120677"/>
<path fill-rule="evenodd" clip-rule="evenodd" d="M14.6732 11.5947C14.7464 11.6411 14.5796 12.3844 14.5307 12.4166C14.4575 12.4617 14.024 12.4617 13.9528 12.4166C13.9019 12.3844 13.9528 11.6862 14.024 11.6411C14.0973 11.5947 14.6223 11.5638 14.6752 11.5947H14.6732Z" fill="#FFFF00" stroke="black" stroke-width="0.120677"/>
<path fill-rule="evenodd" clip-rule="evenodd" d="M13.1859 11.3237C13.1859 11.3919 13.1465 11.4572 13.0763 11.5054C13.0061 11.5536 12.9109 11.5807 12.8117 11.5807C12.7124 11.5807 12.6172 11.5536 12.547 11.5054C12.4769 11.4572 12.4374 11.3919 12.4374 11.3237C12.4374 11.2556 12.4769 11.1902 12.547 11.142C12.6172 11.0938 12.7124 11.0668 12.8117 11.0668C12.9109 11.0668 13.0061 11.0938 13.0763 11.142C13.1465 11.1902 13.1859 11.2556 13.1859 11.3237Z" fill="#FFFF00" stroke="black" stroke-width="0.144454"/>
<path fill-rule="evenodd" clip-rule="evenodd" d="M14.6753 11.3237C14.6753 11.3919 14.6358 11.4572 14.5657 11.5054C14.4955 11.5536 14.4003 11.5807 14.301 11.5807C14.2018 11.5807 14.1066 11.5536 14.0364 11.5054C13.9662 11.4572 13.9268 11.3919 13.9268 11.3237C13.9268 11.2556 13.9662 11.1902 14.0364 11.142C14.1066 11.0938 14.2018 11.0668 14.301 11.0668C14.4003 11.0668 14.4955 11.0938 14.5657 11.142C14.6358 11.1902 14.6753 11.2556 14.6753 11.3237Z" fill="#FFFF00" stroke="black" stroke-width="0.144457"/>
<path fill-rule="evenodd" clip-rule="evenodd" d="M14.2088 12.8125C14.2088 12.875 14.1244 12.925 14.0273 12.925C13.9261 12.925 13.8459 12.875 13.8459 12.8125C13.8459 12.75 13.9303 12.7 14.0273 12.7C14.1244 12.7 14.2088 12.75 14.2088 12.8125ZM13.268 12.8125C13.268 12.875 13.1878 12.925 13.0908 12.925C12.9895 12.925 12.9094 12.875 12.9094 12.8125C12.9094 12.75 12.9895 12.7 13.0908 12.7C13.1878 12.7 13.268 12.75 13.268 12.8125Z" fill="black"/>
<path fill-rule="evenodd" clip-rule="evenodd" d="M13.5585 9.16676L13.3373 8.89107L12.9743 8.93657L13.0253 8.59398L12.7332 8.38788L13.0253 8.17911L12.9743 7.83651L13.3373 7.88469L13.5585 7.60901L13.7797 7.88469L14.1399 7.83651L14.0917 8.17911L14.3809 8.38788L14.0917 8.59665L14.1399 8.93657L13.7769 8.89107L13.5585 9.16676Z" fill="#FFFF00" stroke="black" stroke-width="0.0903568"/>
<path fill-rule="evenodd" clip-rule="evenodd" d="M15.1018 10.2331L15.721 10.5266L16.3402 10.2331L15.721 9.94226L15.1047 10.2331H15.1018Z" fill="#FFFF00" stroke="black" stroke-width="0.0926153"/>
<path fill-rule="evenodd" clip-rule="evenodd" d="M10.6721 10.2331L11.2913 10.5266L11.9105 10.2331L11.2913 9.94226L10.675 10.2331H10.6721Z" fill="#FFFF00" stroke="black" stroke-width="0.0926153"/>
<path fill-rule="evenodd" clip-rule="evenodd" d="M16.0575 11.9727C15.8679 11.8539 15.5486 11.9131 15.3696 12.0101C15.1906 12.1071 15.0116 12.2041 14.9875 12.5557C14.782 12.2179 14.9439 11.9055 15.2161 11.7579C15.3605 11.691 15.5258 11.676 15.681 11.716C15.8362 11.756 15.9706 11.8481 16.0589 11.975L16.0575 11.9727Z" fill="#FFFF00" stroke="black" stroke-width="0.0926513"/>
<path fill-rule="evenodd" clip-rule="evenodd" d="M11.8045 11.3998C11.8045 11.4511 11.7829 11.5003 11.7445 11.5366C11.7061 11.5729 11.6539 11.5932 11.5996 11.5932C11.5452 11.5932 11.4931 11.5729 11.4547 11.5366C11.4162 11.5003 11.3947 11.4511 11.3947 11.3998C11.3947 11.3485 11.4162 11.2993 11.4547 11.2631C11.4931 11.2268 11.5452 11.2064 11.5996 11.2064C11.6539 11.2064 11.7061 11.2268 11.7445 11.2631C11.7829 11.2993 11.8045 11.3485 11.8045 11.3998Z" fill="#FFFF00" stroke="black" stroke-width="0.0926153"/>
<path fill-rule="evenodd" clip-rule="evenodd" d="M11.5978 12.079C11.5978 12.1303 11.5762 12.1795 11.5378 12.2158C11.4993 12.2521 11.4472 12.2724 11.3929 12.2724C11.3385 12.2724 11.2864 12.2521 11.248 12.2158C11.2095 12.1795 11.1879 12.1303 11.1879 12.079C11.1879 12.0277 11.2095 11.9785 11.248 11.9423C11.2864 11.906 11.3385 11.8856 11.3929 11.8856C11.4472 11.8856 11.4993 11.906 11.5378 11.9423C11.5762 11.9785 11.5978 12.0277 11.5978 12.079Z" fill="#FFFF00" stroke="black" stroke-width="0.0926153"/>
<path fill-rule="evenodd" clip-rule="evenodd" d="M11.4966 11.6915C11.4966 11.7428 11.475 11.792 11.4365 11.8282C11.3981 11.8645 11.346 11.8849 11.2916 11.8849C11.2373 11.8849 11.1851 11.8645 11.1467 11.8282C11.1083 11.792 11.0867 11.7428 11.0867 11.6915C11.0867 11.6402 11.1083 11.591 11.1467 11.5547C11.1851 11.5184 11.2373 11.498 11.2916 11.498C11.346 11.498 11.3981 11.5184 11.4365 11.5547C11.475 11.591 11.4966 11.6402 11.4966 11.6915Z" fill="#FFFF00" stroke="black" stroke-width="0.0926153"/>
<path fill-rule="evenodd" clip-rule="evenodd" d="M12.0113 12.079C12.0113 12.1303 11.9897 12.1795 11.9512 12.2158C11.9128 12.2521 11.8607 12.2724 11.8063 12.2724C11.752 12.2724 11.6998 12.2521 11.6614 12.2158C11.623 12.1795 11.6014 12.1303 11.6014 12.079C11.6014 12.0277 11.623 11.9785 11.6614 11.9423C11.6998 11.906 11.752 11.8856 11.8063 11.8856C11.8607 11.8856 11.9128 11.906 11.9512 11.9423C11.9897 11.9785 12.0113 12.0277 12.0113 12.079Z" fill="#FFFF00" stroke="black" stroke-width="0.0926153"/>
<path fill-rule="evenodd" clip-rule="evenodd" d="M12.1125 11.6915C12.1125 11.7428 12.0909 11.792 12.0525 11.8282C12.014 11.8645 11.9619 11.8849 11.9076 11.8849C11.8532 11.8849 11.8011 11.8645 11.7626 11.8282C11.7242 11.792 11.7026 11.7428 11.7026 11.6915C11.7026 11.6402 11.7242 11.591 11.7626 11.5547C11.8011 11.5184 11.8532 11.498 11.9076 11.498C11.9619 11.498 12.014 11.5184 12.0525 11.5547C12.0909 11.591 12.1125 11.6402 12.1125 11.6915Z" fill="#FFFF00" stroke="black" stroke-width="0.0926153"/>
<path fill-rule="evenodd" clip-rule="evenodd" d="M11.8045 11.7874C11.8045 11.8387 11.7829 11.8879 11.7445 11.9242C11.7061 11.9604 11.6539 11.9808 11.5996 11.9808C11.5452 11.9808 11.4931 11.9604 11.4547 11.9242C11.4162 11.8879 11.3947 11.8387 11.3947 11.7874C11.3947 11.7361 11.4162 11.6869 11.4547 11.6506C11.4931 11.6144 11.5452 11.594 11.5996 11.594C11.6539 11.594 11.7061 11.6144 11.7445 11.6506C11.7829 11.6869 11.8045 11.7361 11.8045 11.7874Z" fill="#FFFF00" stroke="black" stroke-width="0.0926153"/>
<path fill-rule="evenodd" clip-rule="evenodd" d="M12.5634 5.01677C12.0403 5.01677 11.9728 5.10011 11.7366 5.17927C11.7366 4.95427 12.3187 4.69177 12.8334 4.69177C12.8334 4.85427 12.6984 5.01677 12.5634 5.01677Z" fill="#DA4500"/>
<path fill-rule="evenodd" clip-rule="evenodd" d="M13.3523 4.50003C13.3523 4.6042 13.2595 4.6917 13.1456 4.6917C13.0317 4.6917 12.9389 4.6042 12.9389 4.49587C12.9389 4.38753 13.0317 4.3042 13.1456 4.3042C13.2595 4.3042 13.3523 4.38753 13.3523 4.49587V4.50003Z" fill="#CAC9C7"/>
<path fill-rule="evenodd" clip-rule="evenodd" d="M11.1891 3.81889V4.1097H11.7036V5.56648H12.0146V4.1097H12.5292V3.81889H12.0146V3.42932H11.7007V3.81889H11.1862H11.1891Z" fill="#FFFF00" stroke="black" stroke-width="0.0926153"/>
<path fill-rule="evenodd" clip-rule="evenodd" d="M12.8377 4.69172C12.4189 4.66809 11.9995 4.72324 11.6016 4.85422C11.6016 4.55422 11.9559 4.20422 12.5634 4.20422C12.6984 4.20422 12.8377 4.52922 12.8377 4.69172Z" fill="#DA4500"/>
<path fill-rule="evenodd" clip-rule="evenodd" d="M7.47812 9.8537C7.32986 9.53807 7.3333 9.43734 7.59704 9.79847L10.774 15.7469L10.6767 15.774L7.47976 9.85493L7.47812 9.8537Z" fill="#008500" stroke="black" stroke-width="0.0321037"/>
<path fill-rule="evenodd" clip-rule="evenodd" d="M9.63562 13.7666C9.66937 13.3249 8.85093 12.8499 8.81718 12.8791C8.78765 12.9124 8.86781 13.1707 9.0239 13.2999C8.72859 13.1499 8.4164 13.0582 8.40797 13.1207C8.38265 13.2124 8.87203 13.4207 8.91422 13.5041C8.91422 13.5624 8.5514 13.5541 8.55984 13.6124C8.56828 13.6707 9.585 14.1791 9.63562 13.7666ZM8.81718 12.4832C8.85093 12.0416 8.0325 11.5666 8.00297 11.5957C7.96922 11.6249 8.04937 11.8832 8.20547 12.0166C7.91015 11.8666 7.59796 11.7707 7.58953 11.8374C7.56843 11.9249 8.05359 12.1374 8.09578 12.2207C8.1 12.2791 7.73718 12.2707 7.7414 12.3291C7.74984 12.3874 8.76656 12.8916 8.81718 12.4832ZM8.19281 11.3166C8.22656 10.8749 7.40812 10.3999 7.37437 10.4291C7.34484 10.4582 7.425 10.7166 7.58109 10.8499C7.28578 10.6999 6.97359 10.6041 6.96515 10.6707C6.94406 10.7582 7.42922 10.9707 7.4714 11.0541C7.4714 11.1124 7.11281 11.1041 7.11703 11.1624C7.12547 11.2207 8.14218 11.7291 8.19281 11.3166ZM7.57687 10.0499C7.6064 9.6124 6.79218 9.13323 6.75843 9.1624C6.72468 9.19573 6.80906 9.45407 6.96093 9.5874C6.66562 9.43324 6.35343 9.34157 6.34922 9.40823C6.3239 9.49573 6.81328 9.70823 6.85125 9.7874C6.85546 9.84573 6.49265 9.84157 6.50109 9.8999C6.50531 9.95824 7.52203 10.4624 7.57687 10.0499Z" fill="#008F00"/>
<path fill-rule="evenodd" clip-rule="evenodd" d="M7.78782 9.99579C8.18438 9.75829 8.10422 8.85412 8.06204 8.84579C8.01563 8.84162 7.84266 9.05412 7.82157 9.25412C7.77516 8.93745 7.66969 8.64579 7.61063 8.67912C7.52204 8.71245 7.6275 9.20829 7.5811 9.28745C7.53891 9.32912 7.32797 9.04579 7.28579 9.08745C7.23516 9.12912 7.40391 10.2 7.79204 9.99579H7.78782ZM8.36157 11.1041C8.81719 11.0041 9.0661 10.1291 9.02391 10.1083C8.98172 10.0875 8.74547 10.2333 8.65688 10.4166C8.72438 10.1041 8.7286 9.79579 8.65688 9.80829C8.55985 9.81245 8.48813 10.3125 8.41641 10.3708C8.36157 10.3958 8.26032 10.0666 8.20547 10.0875C8.14641 10.1125 7.92704 11.175 8.36157 11.1041ZM9.045 12.2375C9.46266 12.0375 9.46688 11.1291 9.42469 11.1208C9.3825 11.1083 9.19266 11.3083 9.15047 11.5041C9.1336 11.1833 9.05766 10.8875 8.99438 10.9166C8.90157 10.9416 8.96063 11.4416 8.91 11.5166C8.85938 11.5541 8.67797 11.2541 8.62735 11.2916C8.57672 11.325 8.64422 12.4083 9.04922 12.2375H9.045ZM9.7875 13.7208C10.222 13.5583 10.3275 12.6583 10.2853 12.6416C10.2431 12.6291 10.0322 12.8083 9.96891 13C9.98579 12.6791 9.9436 12.375 9.8761 12.4C9.77907 12.4166 9.7875 12.9208 9.72844 12.9916C9.6736 13.0208 9.52594 12.7083 9.47532 12.7416C9.42047 12.7666 9.36985 13.8541 9.7875 13.7208Z" fill="#008F00"/>
<path fill-rule="evenodd" clip-rule="evenodd" d="M10.7445 15.2669C10.634 15.4537 10.2844 15.4706 9.9595 15.2994C9.63461 15.1282 9.46641 14.8385 9.57694 14.6517C9.68747 14.4648 10.0396 14.4493 10.3619 14.6191C10.6843 14.789 10.855 15.08 10.7445 15.2669Z" fill="#FF1900" stroke="black" stroke-width="0.05"/>
<path fill-rule="evenodd" clip-rule="evenodd" d="M19.1328 9.00871L19.1875 8.86928L19.3348 8.91511L19.3895 8.77568L19.5368 8.8215L19.4829 8.95896L19.6344 9.00609L19.579 9.14748L19.4274 9.10035L19.2911 9.44794L19.1438 9.40212L19.2801 9.05453L19.1328 9.00871ZM18.8164 10.2367L18.9637 10.2825L17.3806 14.318L17.2333 14.2722L18.8164 10.2367Z" fill="#FFFF00" stroke="black" stroke-width="0.0321346"/>
<path fill-rule="evenodd" clip-rule="evenodd" d="M17.1845 14.1799L17.4834 14.2729L17.0466 15.3863L16.7477 15.2934L17.1845 14.1799ZM18.9417 9.49573L19.39 9.63516C19.6868 9.72745 19.0138 10.3775 19.0138 10.3775L18.7171 10.2852C18.7171 10.2852 18.6429 9.40278 18.9417 9.49573ZM19.3537 9.5049C19.3306 9.56381 19.2469 9.59065 19.1648 9.56512C19.0827 9.53959 19.0339 9.47151 19.0562 9.41456C19.0786 9.35762 19.1631 9.32881 19.2452 9.35434C19.3272 9.37987 19.3761 9.44795 19.353 9.50686L19.3537 9.5049Z" fill="#FFFF00" stroke="black" stroke-width="0.0321346"/>
<path fill-rule="evenodd" clip-rule="evenodd" d="M17.4243 14.7583C17.5495 14.9367 17.405 15.2376 17.0948 15.4315C16.7846 15.6254 16.4346 15.6336 16.3094 15.4552C16.1842 15.2768 16.3311 14.9743 16.6389 14.7819C16.9467 14.5896 17.2991 14.5799 17.4243 14.7583Z" fill="#FF1900" stroke="black" stroke-width="0.05"/>
</g>
<defs>
<clipPath id="clip0_202_194">
<rect width="27" height="20" fill="white"/>
</clipPath>
</defs>
</svg>
