<svg width="27" height="20" viewBox="0 0 27 20" fill="none" xmlns="http://www.w3.org/2000/svg">
<path d="M0 0H27V20H0V0Z" fill="#0052B4"/>
<path d="M22.4277 8.6962L22.6066 9.3074H23.1846L22.7171 9.6848L22.896 10.296L22.4277 9.91859L21.9603 10.296L22.1391 9.6848L21.6709 9.3074H22.2488L22.4277 8.6962ZM20.3614 13.0948L20.6288 14.0116H21.4962L20.7951 14.5786L21.0625 15.4945L20.3614 14.9284L19.6594 15.4945L19.9277 14.5786L19.2257 14.0116H20.0931L20.3614 13.0948ZM20.439 5.89738L20.6634 6.66055H21.3865L20.8018 7.13314L21.0246 7.8963L20.4398 7.42454L19.8551 7.8963L20.0787 7.13314L19.4931 6.66055H20.2154L20.439 5.89738ZM18.4503 8.66948L18.7186 9.58628H19.586L18.884 10.1524L19.1523 11.0692L18.4503 10.5031L17.7491 11.0692L18.0166 10.1524L17.3154 9.58628H18.1828L18.4503 8.66948Z" fill="#D80027"/>
<path d="M13.5 0V1.79101L11.1181 3.26055H13.5V6.73903H10.3832L13.5 8.66363V9.99958H12.0926L8.21812 7.6074V10.0004H5.28272V7.15401L0.672469 9.99958H0V8.20941L2.38191 6.73903H0V3.26055H3.11681L0 1.33678V0.000834969H1.40737L5.28188 2.39218V0H8.21812V2.84641L12.8284 0H13.5Z" fill="#F0F0F0"/>
<path d="M7.59375 0H5.90625V4.06379H0V5.9383H5.90625V10.0004H7.59375V5.93746H13.5V4.06379H7.59375V0Z" fill="#D80027"/>
<path d="M8.21814 6.73903L13.5 10.0004V9.07778L9.71158 6.73986L8.21814 6.73903Z" fill="#0052B4"/>
<path d="M8.21814 6.73903L13.5 10.0004V9.07778L9.71158 6.73986L8.21814 6.73903Z" fill="#F0F0F0"/>
<path d="M8.21812 6.73903L13.5 10.0004V9.07778L9.71156 6.73986L8.21812 6.73903ZM3.78844 6.73903L0 9.07778V10.0004L5.28188 6.73903H3.78844Z" fill="#D80027"/>
<path d="M5.28188 3.26139L0 0V0.92264L3.78844 3.26055L5.28188 3.26139Z" fill="#0052B4"/>
<path d="M5.28188 3.26139L0 0V0.92264L3.78844 3.26055L5.28188 3.26139Z" fill="#F0F0F0"/>
<path d="M5.28188 3.26139L0 0V0.92264L3.78844 3.26055L5.28188 3.26139ZM9.71156 3.26139L13.5 0.92264V0L8.21812 3.26222L9.71156 3.26139Z" fill="#D80027"/>
</svg>
