<svg width="27" height="20" viewBox="0 0 27 20" fill="none" xmlns="http://www.w3.org/2000/svg">
<path d="M8.05254 0L10.9213 1.11148L8.05254 2.21627L10.9213 3.32775L8.05254 4.43924L10.9213 5.55072L8.05254 6.6622L10.9213 7.77369L8.05254 8.88517L10.9213 9.99665L8.05254 11.1081L10.9213 12.2196L8.05254 13.3311L10.9213 14.4426L8.05254 15.5541L10.9213 16.6656L8.05254 17.777L10.9213 18.8885L8.05254 20H27V0H8.05254Z" fill="#691941"/>
<path d="M0 0V20H8.05254L10.9213 18.8885L8.05254 17.777L10.9213 16.6656L8.05254 15.5541L10.9213 14.4426L8.05254 13.3311L10.9213 12.2196L8.05254 11.1081L10.9213 9.99665L8.05254 8.88517L10.9213 7.77369L8.05254 6.6622L10.9213 5.55072L8.05254 4.43924L10.9213 3.32775L8.05254 2.21627L10.9213 1.11148L8.05254 0H0Z" fill="white"/>
</svg>
