<svg width="27" height="20" viewBox="0 0 27 20" fill="none" xmlns="http://www.w3.org/2000/svg">
<g clip-path="url(#clip0_202_327)">
<path fill-rule="evenodd" clip-rule="evenodd" d="M0 0H27V20H0V0Z" fill="white"/>
<path fill-rule="evenodd" clip-rule="evenodd" d="M0 0H27V10H0V0Z" fill="#DF0000"/>
<path fill-rule="evenodd" clip-rule="evenodd" d="M6.15938 1.675C5.36026 1.84461 4.64456 2.2806 4.13244 2.90976C3.62031 3.53892 3.34294 4.32294 3.3469 5.1302C3.35086 5.93746 3.6359 6.71879 4.15417 7.34302C4.67245 7.96725 5.39239 8.39637 6.19313 8.55833C5.73441 8.68943 5.254 8.7298 4.77945 8.67713C4.3049 8.62445 3.84555 8.47977 3.42773 8.25138C3.00992 8.02299 2.64187 7.71538 2.34469 7.3462C2.04751 6.97701 1.82704 6.55352 1.69594 6.1C1.43554 5.18837 1.5512 4.212 2.01763 3.38435C2.48406 2.55671 3.26331 1.94513 4.185 1.68333C4.86 1.49167 5.48438 1.4875 6.16359 1.675H6.15938Z" fill="white"/>
<path fill-rule="evenodd" clip-rule="evenodd" d="M5.61094 4.58333L5.81766 5.20833L5.26922 4.825L4.72922 5.21667L4.9275 4.58333L4.3875 4.19583L5.05828 4.1875L5.26922 3.5625L5.48016 4.1875H6.14672L5.61094 4.58333ZM6.34922 6.75L6.56016 7.37917L6.01172 6.99583L5.4675 7.38333L5.67 6.75417L5.13 6.3625L5.80078 6.35833L6.0075 5.72917L6.21844 6.35417H6.89344L6.34922 6.75ZM8.81719 6.73333L9.02391 7.36667L8.47547 6.97917L7.93547 7.36667L8.13375 6.7375L7.59375 6.35L8.26453 6.34167L8.47547 5.71667L8.68641 6.34167H9.35297L8.81719 6.73333ZM9.55125 4.58333L9.75797 5.2125L9.20953 4.82917L8.66953 5.21667L8.87203 4.5875L8.32781 4.19583L9.00281 4.19167L9.20531 3.5625L9.41625 4.1875H10.0913L9.55125 4.58333ZM7.59797 3.15417L7.80891 3.7875L7.26047 3.4L6.71625 3.79167L6.91875 3.15833L6.37875 2.76667L7.04531 2.7625L7.25625 2.13333L7.46719 2.75833H8.14219L7.59797 3.15417Z" fill="white"/>
</g>
<defs>
<clipPath id="clip0_202_327">
<rect width="27" height="20" fill="white"/>
</clipPath>
</defs>
</svg>
