<svg width="27" height="20" viewBox="0 0 27 20" fill="none" xmlns="http://www.w3.org/2000/svg">
<g clip-path="url(#clip0_202_336)">
<path d="M0 0H27V20H0V0Z" fill="#006600"/>
<path d="M0 0H27V14.2875H0V0Z" fill="white"/>
<path d="M0 0H27V5.7125H0V0Z" fill="#CC0000"/>
<path d="M13.9367 7.452L13.5 7.13863L13.0633 7.452L13.2301 6.94495L12.7934 6.63157H13.3332L13.5 6.12452L13.6668 6.63157H14.2066L13.7699 6.94495L13.9367 7.452Z" fill="#F8C300"/>
<path d="M11.9117 7.98917L11.475 7.67579L11.0383 7.98917L11.2051 7.48211L10.7684 7.16874H11.3082L11.475 6.66168L11.6418 7.16874H12.1816L11.7449 7.48211L11.9117 7.98917Z" fill="#F8C300"/>
<path d="M9.99388 9.13864L10.4306 9.45201L10.2638 8.94496L10.7005 8.63158H10.1607L9.99388 8.12453L9.82707 8.63158H9.28726L9.72397 8.94496L9.55716 9.45201L9.99388 9.13864Z" fill="#F8C300"/>
<path d="M9.88674 11.452L9.45003 11.1386L9.01331 11.452L9.18012 10.9449L8.7434 10.6316H9.28321L9.45003 10.1245L9.61684 10.6316H10.1566L9.71993 10.9449L9.88674 11.452Z" fill="#F8C300"/>
<path d="M15.525 7.67579L15.0883 7.98917L15.2551 7.48211L14.8184 7.16874H15.3582L15.525 6.66168L15.6918 7.16874H16.2316L15.7949 7.48211L15.9617 7.98917L15.525 7.67579Z" fill="#F8C300"/>
<path d="M16.5694 9.45201L17.0061 9.13864L17.4428 9.45201L17.276 8.94496L17.7127 8.63158H17.1729L17.0061 8.12453L16.8393 8.63158H16.2995L16.7362 8.94496L16.5694 9.45201Z" fill="#F8C300"/>
<path d="M17.55 11.1386L17.1133 11.452L17.2801 10.9449L16.8434 10.6316H17.3832L17.55 10.1245L17.7168 10.6316H18.2566L17.8199 10.9449L17.9867 11.452L17.55 11.1386Z" fill="#F8C300"/>
<path fill-rule="evenodd" clip-rule="evenodd" d="M12.69 9.73333C12.7297 9.66676 12.7902 9.61466 12.8624 9.58482C12.9346 9.55497 13.0146 9.54897 13.0905 9.56772C13.1664 9.58646 13.2342 9.62894 13.2836 9.68883C13.3331 9.74871 13.3616 9.82279 13.365 9.9V10.7625C13.3471 10.9656 13.2715 11.1595 13.147 11.3221C13.0224 11.4846 12.854 11.6092 12.661 11.6814C12.468 11.7536 12.2583 11.7706 12.056 11.7304C11.8536 11.6903 11.6669 11.5945 11.5172 11.4542C11.4537 11.6142 11.3539 11.7577 11.2256 11.8737C11.0972 11.9897 10.9436 12.0752 10.7766 12.1234C10.6096 12.1717 10.4336 12.1816 10.2621 12.1522C10.0907 12.1229 9.92832 12.0551 9.7875 11.9542C9.89297 12.9958 11.475 12.7833 11.5931 11.7708C12.0861 12.6322 13.1765 12.384 13.4987 11.3333H13.5013C13.8235 12.384 14.9139 12.6322 15.4069 11.7708C15.525 12.7833 17.107 12.9958 17.2125 11.9542C17.0717 12.0551 16.9093 12.1229 16.7379 12.1522C16.5664 12.1816 16.3904 12.1717 16.2234 12.1234C16.0564 12.0752 15.9028 11.9897 15.7744 11.8737C15.6461 11.7577 15.5463 11.6142 15.4828 11.4542C15.3331 11.5945 15.1464 11.6903 14.944 11.7304C14.7417 11.7706 14.532 11.7536 14.339 11.6814C14.146 11.6092 13.9776 11.4846 13.853 11.3221C13.7285 11.1595 13.6529 10.9656 13.635 10.7625V9.90417C13.6384 9.82695 13.6669 9.75288 13.7164 9.69299C13.7658 9.63311 13.8336 9.59063 13.9095 9.57188C13.9854 9.55314 14.0654 9.55914 14.1376 9.58898C14.2098 9.61883 14.2703 9.67093 14.31 9.7375C14.3518 9.61113 14.3628 9.47677 14.3419 9.34542C14.321 9.21408 14.2689 9.08949 14.1899 8.98186C14.1109 8.87423 14.0071 8.78662 13.8872 8.7262C13.7673 8.66579 13.6346 8.63429 13.5 8.63429C13.3654 8.63429 13.2327 8.66579 13.1128 8.7262C12.9929 8.78662 12.8891 8.87423 12.8101 8.98186C12.7311 9.08949 12.679 9.21408 12.6581 9.34542C12.6372 9.47677 12.6482 9.61113 12.69 9.7375V9.73333ZM12.8841 9.3625C13.0025 9.33831 13.1257 9.35143 13.2362 9.40002C13.3467 9.44861 13.4389 9.53021 13.5 9.63333C13.5611 9.53021 13.6533 9.44861 13.7638 9.40002C13.8743 9.35143 13.9975 9.33831 14.1159 9.3625C14.0982 9.21342 14.0257 9.07596 13.9122 8.97619C13.7987 8.87643 13.652 8.82132 13.5 8.82132C13.348 8.82132 13.2013 8.87643 13.0878 8.97619C12.9743 9.07596 12.9018 9.21342 12.8841 9.3625Z" fill="#F8C300"/>
<path d="M12.3088 12.6116L12.3103 12.6083V12.6125L12.3088 12.6116Z" fill="#F8C300"/>
<path d="M11.9644 12.5708C12.1808 12.5436 12.2944 12.6034 12.3088 12.6116C12.0847 13.0795 11.6471 13.1575 11.2641 12.7792C11.2641 12.7792 11.4159 12.6708 11.5847 12.6417C11.5509 12.5125 11.6142 12.3292 11.707 12.2333C11.8299 12.3129 11.9209 12.4322 11.9644 12.5708Z" fill="#F8C300"/>
<path d="M14.0399 12.5556L14.0378 12.5585C14.025 12.5482 13.9228 12.4708 13.7048 12.4628C13.6848 12.319 13.6148 12.1866 13.5067 12.0883C13.3993 12.1679 13.3066 12.3385 13.3185 12.4714C13.1472 12.473 12.9795 12.5553 12.9795 12.5553C13.2948 12.9903 13.7394 12.984 14.0378 12.5585L14.0392 12.5597L14.0399 12.5556Z" fill="#F8C300"/>
<path d="M15.7345 12.7812L15.737 12.7786L15.7356 12.7826L15.7345 12.7812Z" fill="#F8C300"/>
<path d="M15.4215 12.6336C15.6353 12.6763 15.7235 12.769 15.7345 12.7812C15.3703 13.1535 14.9305 13.0888 14.6905 12.6092C14.6905 12.6092 14.8695 12.5546 15.0389 12.5804C15.0488 12.4474 15.1683 12.2938 15.2873 12.2324C15.3778 12.3467 15.4253 12.4885 15.4215 12.6336Z" fill="#F8C300"/>
<path d="M10.7607 13.878L10.6283 13.4387C12.5022 12.8878 14.4978 12.8878 16.3717 13.4387L16.2393 13.878C14.4518 13.3525 12.5482 13.3525 10.7607 13.878Z" fill="#F8C300"/>
</g>
<defs>
<clipPath id="clip0_202_336">
<rect width="27" height="20" fill="white"/>
</clipPath>
</defs>
</svg>
