<svg width="27" height="20" viewBox="0 0 27 20" fill="none" xmlns="http://www.w3.org/2000/svg">
<g clip-path="url(#clip0_202_345)">
<path fill-rule="evenodd" clip-rule="evenodd" d="M0 0H27V20H0V0Z" fill="#E30A17"/>
<path d="M16.3751 7.64357C15.6212 6.82884 14.5273 6.31667 13.3102 6.31667C11.0363 6.31667 9.19266 8.1 9.19266 10.3083C9.19266 12.5167 11.0363 14.3083 13.3102 14.3083C14.5316 14.3083 15.6277 13.7925 16.3807 12.9728C15.4696 14.3759 13.859 15.3083 12.0234 15.3083C9.18 15.3083 6.87656 13.0708 6.87656 10.3083C6.87656 7.54584 9.18 5.31667 12.0234 5.31667C13.8553 5.31667 15.463 6.2453 16.3751 7.64357Z" fill="white"/>
<path fill-rule="evenodd" clip-rule="evenodd" d="M18.1702 7.97917L18.128 9.825L16.3856 10.2917L18.1069 10.8958L18.0647 12.5917L19.1827 11.2667L20.8786 11.85L19.8998 10.4292L21.0938 9.01667L19.2586 9.51667L18.1702 7.975V7.97917Z" fill="white"/>
</g>
<defs>
<clipPath id="clip0_202_345">
<rect width="27" height="20" fill="white"/>
</clipPath>
</defs>
</svg>
