<svg width="27" height="20" viewBox="0 0 27 20" fill="none" xmlns="http://www.w3.org/2000/svg">
<path d="M0 0H27V20H0V0Z" fill="black"/>
<path fill-rule="evenodd" clip-rule="evenodd" d="M0 0H26.9987V1.53906H0V0ZM0 3.07812H26.9987V4.61719H0V3.07812ZM0 6.15234H26.9987V7.69531H0V6.15234ZM0 9.23047H26.9987V10.7695H0V9.23047ZM0 12.3086H26.9987V13.8477H0V12.3086ZM0 15.3828H26.9987V16.9219H0V15.3828ZM0 18.4609H26.9987V20H0V18.4609Z" fill="#BD3D44"/>
<path fill-rule="evenodd" clip-rule="evenodd" d="M0 1.53906H26.9987V3.07812H0V1.53906ZM0 4.61719H26.9987V6.15234H0V4.61719ZM0 7.69141H26.9987V9.23047H0V7.69141ZM0 10.7695H26.9987V12.3086H0V10.7695ZM0 13.8477H26.9987V15.3867H0V13.8477ZM0 16.9219H26.9987V18.4609H0V16.9219Z" fill="white"/>
<path fill-rule="evenodd" clip-rule="evenodd" d="M0 0H15.3885V10.7695H0V0Z" fill="#192F5D"/>
<path fill-rule="evenodd" clip-rule="evenodd" d="M1.28138 0.460938L1.42376 0.886719H1.87462L1.51077 1.14844L1.64919 1.57813L1.28138 1.3125L0.917533 1.57422L1.05595 1.14844L0.68815 0.886719H1.14692L1.28138 0.460938ZM3.8481 0.460938L3.98652 0.886719H4.44134L4.07353 1.14844L4.21195 1.57813L3.8481 1.3125L3.4803 1.57422L3.61872 1.14844L3.25487 0.886719H3.70573L3.8481 0.460938ZM6.41087 0.460938L6.55325 0.886719H7.00015L6.6363 1.14844L6.77472 1.57813L6.40691 1.3125L6.04307 1.57422L6.18149 1.14844L5.81368 0.886719H6.26849L6.41087 0.460938ZM8.97759 0.460938L9.11601 0.886719H9.57082L9.20302 1.14844L9.34539 1.57813L8.97759 1.3125L8.60979 1.57422L8.75216 1.14844L8.38436 0.886719H8.83521L8.97759 0.460938ZM11.5404 0.460938L11.6827 0.886719H12.1336L11.7697 1.14844L11.9082 1.57813L11.5404 1.3125L11.1765 1.57422L11.3149 1.14844L10.9511 0.886719H11.4019L11.5404 0.460938ZM14.1071 0.460938L14.2455 0.886719H14.7003L14.3325 1.14844L14.4749 1.57813L14.1071 1.3125L13.7393 1.57422L13.8816 1.14844L13.5138 0.886719H13.9687L14.1071 0.460938ZM2.56672 1.53906L2.70514 1.96484H3.15995L2.79215 2.22656L2.92661 2.65234L2.57068 2.39062L2.20287 2.65234L2.33338 2.22656L1.97744 1.96484H2.4283L2.56672 1.53906ZM5.12949 1.53906L5.27186 1.96484H5.72272L5.35491 2.22656L5.49729 2.65234L5.12949 2.39062L4.76168 2.65234L4.90406 2.22656L4.53625 1.96484H4.99107L5.12949 1.53906ZM7.69621 1.53906L7.83463 1.96484H8.28944L7.92164 2.22656L8.06006 2.65234L7.69621 2.39062L7.3284 2.65234L7.46682 2.22656L7.10297 1.96484H7.55383L7.69621 1.53906ZM10.259 1.53906L10.4013 1.96484H10.8522L10.4844 2.22656L10.6268 2.65234L10.259 2.39062L9.89512 2.65234L10.0335 2.22656L9.66574 1.96484H10.1245L10.259 1.53906ZM12.8257 1.53906L12.9641 1.96484H13.4189L13.0511 2.22656L13.1895 2.65234L12.8257 2.39062L12.4579 2.65234L12.5963 2.22656L12.2325 1.96484H12.6833L12.8257 1.53906ZM1.28138 2.61328L1.42376 3.04688H1.87462L1.51077 3.30859L1.64919 3.73437L1.28138 3.46875L0.917533 3.73437L1.05595 3.30469L0.68815 3.04297H1.14692L1.28138 2.61328ZM3.8481 2.61328L3.98652 3.04297H4.44134L4.07353 3.30469L4.21195 3.73047L3.8481 3.46484L3.4803 3.73047L3.61872 3.30078L3.25487 3.03906H3.70573L3.8481 2.61328ZM6.41087 2.61328L6.55325 3.04297H7.00015L6.6363 3.30469L6.77472 3.73047L6.40691 3.46484L6.04307 3.73047L6.18149 3.30078L5.81368 3.03906H6.26849L6.41087 2.61328ZM8.97759 2.61328L9.11601 3.04297H9.57082L9.20302 3.30469L9.34539 3.73047L8.97759 3.46484L8.60979 3.73047L8.75216 3.30078L8.38436 3.03906H8.83521L8.97759 2.61328ZM11.5404 2.61328L11.6827 3.04297H12.1336L11.7697 3.30469L11.9082 3.73047L11.5404 3.46484L11.1765 3.73047L11.3149 3.30078L10.9511 3.03906H11.4019L11.5404 2.61328ZM14.1071 2.61328L14.2455 3.04297H14.7003L14.3325 3.30469L14.4749 3.73047L14.1071 3.46484L13.7393 3.73047L13.8816 3.30078L13.5138 3.03906H13.9687L14.1071 2.61328ZM2.56672 3.69141L2.70514 4.11719H3.15995L2.79215 4.37891L2.93057 4.80859L2.56672 4.54297L2.19892 4.80469L2.33734 4.37891L1.97349 4.11719H2.42434L2.56672 3.69141ZM5.12949 3.69141L5.27186 4.11719H5.72272L5.35491 4.37891L5.49729 4.80859L5.12949 4.54297L4.76168 4.80469L4.90406 4.37891L4.53625 4.11719H4.99107L5.12949 3.69141ZM7.69621 3.69141L7.83463 4.11719H8.28944L7.92164 4.37891L8.06006 4.80859L7.69621 4.54297L7.3284 4.80469L7.46682 4.37891L7.10297 4.11719H7.55383L7.69621 3.69141ZM10.259 3.69141L10.4013 4.11719H10.8522L10.4884 4.37891L10.6268 4.80859L10.259 4.54297L9.89512 4.80469L10.0335 4.37891L9.66574 4.11719H10.1245L10.259 3.69141ZM12.8257 3.69141L12.9641 4.11719H13.4189L13.0511 4.37891L13.1895 4.80859L12.8257 4.54297L12.4579 4.80469L12.5963 4.37891L12.2325 4.11719H12.6833L12.8257 3.69141ZM1.28138 4.76953L1.42376 5.19531H1.87462L1.51077 5.45703L1.64919 5.88672L1.28138 5.62109L0.917533 5.88281L1.05595 5.45703L0.68815 5.19531H1.14692L1.28138 4.76953ZM3.8481 4.76953L3.98652 5.19531H4.44134L4.07353 5.45703L4.21195 5.88281L3.8481 5.62109L3.4803 5.88281L3.61872 5.45703L3.25487 5.19531H3.70573L3.8481 4.76953ZM6.41087 4.76953L6.55325 5.19531H7.00015L6.6363 5.45703L6.77472 5.88672L6.40691 5.62109L6.04307 5.88281L6.18149 5.45703L5.81368 5.19531H6.26849L6.41087 4.76953ZM8.97759 4.76953L9.11601 5.19531H9.57082L9.20302 5.45703L9.34539 5.88672L8.97759 5.62109L8.60979 5.88281L8.75216 5.45703L8.38436 5.19531H8.83521L8.97759 4.76953ZM11.5404 4.76953L11.6827 5.19531H12.1336L11.7697 5.45703L11.9082 5.88672L11.5404 5.62109L11.1765 5.88281L11.3149 5.45703L10.9511 5.19531H11.4019L11.5404 4.76953ZM14.1071 4.76953L14.2455 5.19531H14.7003L14.3325 5.45703L14.4749 5.88672L14.1071 5.62109L13.7393 5.88281L13.8816 5.45703L13.5138 5.19531H13.9687L14.1071 4.76953ZM2.56672 5.84766L2.70514 6.27344H3.15995L2.79215 6.53516L2.93057 6.96094L2.56672 6.69531L2.19892 6.96094L2.33734 6.53125L1.97349 6.26953H2.42434L2.56672 5.84766ZM5.12949 5.84766L5.27186 6.27344H5.72272L5.35491 6.53516L5.49729 6.96094L5.12949 6.69531L4.76168 6.96094L4.90406 6.53125L4.53625 6.26953H4.99107L5.12949 5.84766ZM7.69621 5.84766L7.83463 6.27344H8.28944L7.92164 6.53516L8.06006 6.96094L7.69621 6.69531L7.3284 6.96094L7.46682 6.53125L7.10297 6.26953H7.55383L7.69621 5.84766ZM10.259 5.84766L10.4013 6.27344H10.8522L10.4884 6.53516L10.6268 6.96094L10.259 6.69531L9.89512 6.96094L10.0335 6.53125L9.66574 6.26953H10.1245L10.259 5.84766ZM12.8257 5.84766L12.9641 6.27344H13.4189L13.0511 6.53516L13.1895 6.96094L12.8257 6.69531L12.4579 6.96094L12.5963 6.53125L12.2325 6.26953H12.6833L12.8257 5.84766ZM1.28138 6.92188L1.42376 7.35156H1.87462L1.51077 7.61328L1.64919 8.03516L1.28138 7.77344L0.917533 8.03516L1.05595 7.60938L0.68815 7.34766H1.14692L1.28138 6.92188ZM3.8481 6.92188L3.98652 7.35156H4.44134L4.07353 7.61328L4.21591 8.03516L3.8481 7.77344L3.4803 8.03516L3.62267 7.60938L3.25487 7.34766H3.70573L3.8481 6.92188ZM6.41087 6.92188L6.55325 7.35156H7.00015L6.6363 7.61328L6.77472 8.03516L6.40691 7.77344L6.04307 8.03516L6.18149 7.60938L5.81368 7.34766H6.26849L6.41087 6.92188ZM8.97759 6.92188L9.11601 7.35156H9.57082L9.20302 7.61328L9.34539 8.03516L8.97759 7.77344L8.60979 8.03516L8.75216 7.60938L8.38436 7.34766H8.83521L8.97759 6.92188ZM11.5404 6.92188L11.6827 7.35156H12.1336L11.7697 7.61328L11.9082 8.03516L11.5404 7.77344L11.1765 8.03516L11.3149 7.60938L10.9511 7.34766H11.4019L11.5404 6.92188ZM14.1071 6.92188L14.2455 7.35156H14.7003L14.3325 7.61328L14.4749 8.03516L14.1071 7.77344L13.7393 8.03516L13.8816 7.60938L13.5138 7.34766H13.9687L14.1071 6.92188ZM2.56672 8L2.70514 8.42578H3.15995L2.79215 8.6875L2.93057 9.11719L2.56672 8.85156L2.19892 9.11328L2.33734 8.6875L1.97349 8.42578H2.42434L2.56672 8ZM5.12949 8L5.27186 8.42578H5.72272L5.35491 8.6875L5.49729 9.11719L5.12949 8.85156L4.76168 9.11328L4.90406 8.6875L4.53625 8.42578H4.99107L5.12949 8ZM7.69621 8L7.83463 8.42578H8.28944L7.92164 8.6875L8.06006 9.11719L7.69621 8.85156L7.3284 9.11328L7.46682 8.6875L7.10297 8.42578H7.55383L7.69621 8ZM10.259 8L10.4013 8.42578H10.8522L10.4884 8.6875L10.6268 9.11719L10.259 8.85156L9.89512 9.11328L10.0335 8.6875L9.66574 8.42578H10.1245L10.259 8ZM12.8257 8L12.9641 8.42578H13.4189L13.0511 8.6875L13.1895 9.11719L12.8257 8.85156L12.4579 9.11328L12.5963 8.6875L12.2325 8.42578H12.6833L12.8257 8ZM1.28138 9.07812L1.42376 9.50391H1.87462L1.51077 9.76562L1.64919 10.1914L1.28138 9.92969L0.917533 10.1914L1.05595 9.76172L0.68815 9.5H1.14692L1.28138 9.07812ZM3.8481 9.07812L3.98652 9.50391H4.44134L4.07353 9.76562L4.21591 10.1914L3.8481 9.92969L3.4803 10.1914L3.62267 9.76172L3.25487 9.5H3.70573L3.8481 9.07812ZM6.41087 9.07812L6.55325 9.50391H7.00015L6.64421 9.76562L6.78263 10.1914L6.41482 9.92969L6.05097 10.1914L6.1894 9.76172L5.82159 9.5H6.2764L6.41087 9.07812ZM8.97759 9.07812L9.11601 9.50391H9.57082L9.20302 9.76562L9.34539 10.1914L8.97759 9.92969L8.60979 10.1914L8.75216 9.76172L8.38436 9.5H8.83521L8.97759 9.07812ZM11.5404 9.07812L11.6827 9.50391H12.1336L11.7697 9.76562L11.9082 10.1914L11.5404 9.92969L11.1765 10.1914L11.3149 9.76172L10.9511 9.5H11.4019L11.5404 9.07812ZM14.1071 9.07812L14.2455 9.50391H14.7003L14.3325 9.76562L14.4749 10.1914L14.1071 9.92969L13.7393 10.1914L13.8816 9.76172L13.5138 9.5H13.9687L14.1071 9.07812Z" fill="white"/>
</svg>
