<svg width="27" height="20" viewBox="0 0 27 20" fill="none" xmlns="http://www.w3.org/2000/svg">
<g clip-path="url(#clip0_202_354)">
<path d="M0 13.3333H27V20H0V13.3333Z" fill="#1EB53A"/>
<path d="M0 0H27V6.66667H0V0Z" fill="#0099B5"/>
<path d="M0 6.4H27V13.6H0V6.4Z" fill="#CE1126"/>
<path d="M0 6.8H27V13.2H0V6.8Z" fill="white"/>
<path d="M6.075 5.56681C5.94329 5.58864 5.80799 5.6 5.67 5.6C4.32795 5.6 3.24 4.52548 3.24 3.2C3.24 1.87451 4.32795 0.799998 5.67 0.799998C5.80799 0.799998 5.94329 0.811357 6.075 0.833181C4.92573 1.02361 4.05 2.0108 4.05 3.2C4.05 4.3892 4.92573 5.37638 6.075 5.56681Z" fill="white"/>
<path d="M11.0152 4.64083L10.8613 5.09683L11.0962 5.17683" fill="white"/>
<path d="M11.0152 4.64083L11.1691 5.09683L10.9342 5.17683" fill="white"/>
<path d="M11.4774 4.97251L10.9907 4.96886L10.9863 5.21422" fill="white"/>
<path d="M11.4774 4.97251L11.0858 5.25798L10.9362 5.06205" fill="white"/>
<path d="M10.5529 4.97251L10.9445 5.25798L11.0941 5.06205" fill="white"/>
<path d="M10.5529 4.97251L11.0396 4.96886L11.0441 5.21422" fill="white"/>
<path d="M11.3008 5.50916L11.1539 5.05091L10.9163 5.12255" fill="white"/>
<path d="M11.3008 5.50916L10.9049 5.22959L11.0474 5.02851" fill="white"/>
<path d="M10.7295 5.50916L11.1254 5.22959L10.983 5.02851" fill="white"/>
<path d="M10.7295 5.50916L10.8764 5.05091L11.114 5.12255" fill="white"/>
<path d="M11.0152 4.64083L10.8613 5.09683L11.0962 5.17683" fill="white"/>
<path d="M11.0152 4.64083L11.1691 5.09683L10.9342 5.17683" fill="white"/>
<path d="M11.4774 4.97251L10.9907 4.96886L10.9863 5.21422" fill="white"/>
<path d="M11.4774 4.97251L11.0858 5.25798L10.9362 5.06205" fill="white"/>
<path d="M10.5529 4.97251L10.9445 5.25798L11.0941 5.06205" fill="white"/>
<path d="M10.5529 4.97251L11.0396 4.96886L11.0441 5.21422" fill="white"/>
<path d="M11.3008 5.50916L11.1539 5.05091L10.9163 5.12255" fill="white"/>
<path d="M11.3008 5.50916L10.9049 5.22959L11.0474 5.02851" fill="white"/>
<path d="M10.7295 5.50916L11.1254 5.22959L10.983 5.02851" fill="white"/>
<path d="M10.7295 5.50916L10.8764 5.05091L11.114 5.12255" fill="white"/>
<path d="M11.0152 4.64083L10.8613 5.09683L11.0962 5.17683" fill="white"/>
<path d="M11.0152 4.64083L11.1691 5.09683L10.9342 5.17683" fill="white"/>
<path d="M11.4774 4.97251L10.9907 4.96886L10.9863 5.21422" fill="white"/>
<path d="M11.4774 4.97251L11.0858 5.25798L10.9362 5.06205" fill="white"/>
<path d="M10.5529 4.97251L10.9445 5.25798L11.0941 5.06205" fill="white"/>
<path d="M10.5529 4.97251L11.0396 4.96886L11.0441 5.21422" fill="white"/>
<path d="M11.3008 5.50916L11.1539 5.05091L10.9163 5.12255" fill="white"/>
<path d="M11.3008 5.50916L10.9049 5.22959L11.0474 5.02851" fill="white"/>
<path d="M10.7295 5.50916L11.1254 5.22959L10.983 5.02851" fill="white"/>
<path d="M10.7295 5.50916L10.8764 5.05091L11.114 5.12255" fill="white"/>
<path d="M11.0152 4.64083L10.8613 5.09683L11.0962 5.17683" fill="white"/>
<path d="M11.0152 4.64083L11.1691 5.09683L10.9342 5.17683" fill="white"/>
<path d="M11.4774 4.97251L10.9907 4.96886L10.9863 5.21422" fill="white"/>
<path d="M11.4774 4.97251L11.0858 5.25798L10.9362 5.06205" fill="white"/>
<path d="M10.5529 4.97251L10.9445 5.25798L11.0941 5.06205" fill="white"/>
<path d="M10.5529 4.97251L11.0396 4.96886L11.0441 5.21422" fill="white"/>
<path d="M11.3008 5.50916L11.1539 5.05091L10.9163 5.12255" fill="white"/>
<path d="M11.3008 5.50916L10.9049 5.22959L11.0474 5.02851" fill="white"/>
<path d="M10.7295 5.50916L11.1254 5.22959L10.983 5.02851" fill="white"/>
<path d="M10.7295 5.50916L10.8764 5.05091L11.114 5.12255" fill="white"/>
<path d="M11.0152 4.64083L10.8613 5.09683L11.0962 5.17683" fill="white"/>
<path d="M11.0152 4.64083L11.1691 5.09683L10.9342 5.17683" fill="white"/>
<path d="M11.4774 4.97251L10.9907 4.96886L10.9863 5.21422" fill="white"/>
<path d="M11.4774 4.97251L11.0858 5.25798L10.9362 5.06205" fill="white"/>
<path d="M10.5529 4.97251L10.9445 5.25798L11.0941 5.06205" fill="white"/>
<path d="M10.5529 4.97251L11.0396 4.96886L11.0441 5.21422" fill="white"/>
<path d="M11.3008 5.50916L11.1539 5.05091L10.9163 5.12255" fill="white"/>
<path d="M11.3008 5.50916L10.9049 5.22959L11.0474 5.02851" fill="white"/>
<path d="M10.7295 5.50916L11.1254 5.22959L10.983 5.02851" fill="white"/>
<path d="M10.7295 5.50916L10.8764 5.05091L11.114 5.12255" fill="white"/>
<path d="M11.0152 4.64083L10.8613 5.09683L11.0962 5.17683" fill="white"/>
<path d="M11.0152 4.64083L11.1691 5.09683L10.9342 5.17683" fill="white"/>
<path d="M11.4774 4.97251L10.9907 4.96886L10.9863 5.21422" fill="white"/>
<path d="M11.4774 4.97251L11.0858 5.25798L10.9362 5.06205" fill="white"/>
<path d="M10.5529 4.97251L10.9445 5.25798L11.0941 5.06205" fill="white"/>
<path d="M10.5529 4.97251L11.0396 4.96886L11.0441 5.21422" fill="white"/>
<path d="M11.3008 5.50916L11.1539 5.05091L10.9163 5.12255" fill="white"/>
<path d="M11.3008 5.50916L10.9049 5.22959L11.0474 5.02851" fill="white"/>
<path d="M10.7295 5.50916L11.1254 5.22959L10.983 5.02851" fill="white"/>
<path d="M10.7295 5.50916L10.8764 5.05091L11.114 5.12255" fill="white"/>
<path d="M11.0152 4.64083L10.8613 5.09683L11.0962 5.17683" fill="white"/>
<path d="M11.0152 4.64083L11.1691 5.09683L10.9342 5.17683" fill="white"/>
<path d="M11.4774 4.97251L10.9907 4.96886L10.9863 5.21422" fill="white"/>
<path d="M11.4774 4.97251L11.0858 5.25798L10.9362 5.06205" fill="white"/>
<path d="M10.5529 4.97251L10.9445 5.25798L11.0941 5.06205" fill="white"/>
<path d="M10.5529 4.97251L11.0396 4.96886L11.0441 5.21422" fill="white"/>
<path d="M11.3008 5.50916L11.1539 5.05091L10.9163 5.12255" fill="white"/>
<path d="M11.3008 5.50916L10.9049 5.22959L11.0474 5.02851" fill="white"/>
<path d="M10.7295 5.50916L11.1254 5.22959L10.983 5.02851" fill="white"/>
<path d="M10.7295 5.50916L10.8764 5.05091L11.114 5.12255" fill="white"/>
<path d="M11.0152 4.64083L10.8613 5.09683L11.0962 5.17683" fill="white"/>
<path d="M11.0152 4.64083L11.1691 5.09683L10.9342 5.17683" fill="white"/>
<path d="M11.4774 4.97251L10.9907 4.96886L10.9863 5.21422" fill="white"/>
<path d="M11.4774 4.97251L11.0858 5.25798L10.9362 5.06205" fill="white"/>
<path d="M10.5529 4.97251L10.9445 5.25798L11.0941 5.06205" fill="white"/>
<path d="M10.5529 4.97251L11.0396 4.96886L11.0441 5.21422" fill="white"/>
<path d="M11.3008 5.50916L11.1539 5.05091L10.9163 5.12255" fill="white"/>
<path d="M11.3008 5.50916L10.9049 5.22959L11.0474 5.02851" fill="white"/>
<path d="M10.7295 5.50916L11.1254 5.22959L10.983 5.02851" fill="white"/>
<path d="M10.7295 5.50916L10.8764 5.05091L11.114 5.12255" fill="white"/>
<path d="M11.0152 4.64083L10.8613 5.09683L11.0962 5.17683" fill="white"/>
<path d="M11.0152 4.64083L11.1691 5.09683L10.9342 5.17683" fill="white"/>
<path d="M11.4774 4.97251L10.9907 4.96886L10.9863 5.21422" fill="white"/>
<path d="M11.4774 4.97251L11.0858 5.25798L10.9362 5.06205" fill="white"/>
<path d="M10.5529 4.97251L10.9445 5.25798L11.0941 5.06205" fill="white"/>
<path d="M10.5529 4.97251L11.0396 4.96886L11.0441 5.21422" fill="white"/>
<path d="M11.3008 5.50916L11.1539 5.05091L10.9163 5.12255" fill="white"/>
<path d="M11.3008 5.50916L10.9049 5.22959L11.0474 5.02851" fill="white"/>
<path d="M10.7295 5.50916L11.1254 5.22959L10.983 5.02851" fill="white"/>
<path d="M10.7295 5.50916L10.8764 5.05091L11.114 5.12255" fill="white"/>
<path d="M11.0152 4.64083L10.8613 5.09683L11.0962 5.17683" fill="white"/>
<path d="M11.0152 4.64083L11.1691 5.09683L10.9342 5.17683" fill="white"/>
<path d="M11.4774 4.97251L10.9907 4.96886L10.9863 5.21422" fill="white"/>
<path d="M11.4774 4.97251L11.0858 5.25798L10.9362 5.06205" fill="white"/>
<path d="M10.5529 4.97251L10.9445 5.25798L11.0941 5.06205" fill="white"/>
<path d="M10.5529 4.97251L11.0396 4.96886L11.0441 5.21422" fill="white"/>
<path d="M11.3008 5.50916L11.1539 5.05091L10.9163 5.12255" fill="white"/>
<path d="M11.3008 5.50916L10.9049 5.22959L11.0474 5.02851" fill="white"/>
<path d="M10.7295 5.50916L11.1254 5.22959L10.983 5.02851" fill="white"/>
<path d="M10.7295 5.50916L10.8764 5.05091L11.114 5.12255" fill="white"/>
<path d="M11.0152 4.64083L10.8613 5.09683L11.0962 5.17683" fill="white"/>
<path d="M11.0152 4.64083L11.1691 5.09683L10.9342 5.17683" fill="white"/>
<path d="M11.4774 4.97251L10.9907 4.96886L10.9863 5.21422" fill="white"/>
<path d="M11.4774 4.97251L11.0858 5.25798L10.9362 5.06205" fill="white"/>
<path d="M10.5529 4.97251L10.9445 5.25798L11.0941 5.06205" fill="white"/>
<path d="M10.5529 4.97251L11.0396 4.96886L11.0441 5.21422" fill="white"/>
<path d="M11.3008 5.50916L11.1539 5.05091L10.9163 5.12255" fill="white"/>
<path d="M11.3008 5.50916L10.9049 5.22959L11.0474 5.02851" fill="white"/>
<path d="M10.7295 5.50916L11.1254 5.22959L10.983 5.02851" fill="white"/>
<path d="M10.7295 5.50916L10.8764 5.05091L11.114 5.12255" fill="white"/>
<path d="M11.0152 4.64083L10.8613 5.09683L11.0962 5.17683" fill="white"/>
<path d="M11.0152 4.64083L11.1691 5.09683L10.9342 5.17683" fill="white"/>
<path d="M11.4774 4.97251L10.9907 4.96886L10.9863 5.21422" fill="white"/>
<path d="M11.4774 4.97251L11.0858 5.25798L10.9362 5.06205" fill="white"/>
<path d="M10.5529 4.97251L10.9445 5.25798L11.0941 5.06205" fill="white"/>
<path d="M10.5529 4.97251L11.0396 4.96886L11.0441 5.21422" fill="white"/>
<path d="M11.3008 5.50916L11.1539 5.05091L10.9163 5.12255" fill="white"/>
<path d="M11.3008 5.50916L10.9049 5.22959L11.0474 5.02851" fill="white"/>
<path d="M10.7295 5.50916L11.1254 5.22959L10.983 5.02851" fill="white"/>
<path d="M10.7295 5.50916L10.8764 5.05091L11.114 5.12255" fill="white"/>
</g>
<defs>
<clipPath id="clip0_202_354">
<rect width="27" height="20" fill="white"/>
</clipPath>
</defs>
</svg>
